<svg width="18" height="19" viewBox="0 0 18 19" fill="none" xmlns="http://www.w3.org/2000/svg">
<path d="M5.1112 0.666667C5.1112 0.489856 5.04096 0.320286 4.91594 0.195262C4.79092 0.0702379 4.62135 0 4.44453 0C4.26772 0 4.09815 0.0702379 3.97313 0.195262C3.84811 0.320286 3.77787 0.489856 3.77787 0.666667V2.07111C2.49787 2.17333 1.65876 2.424 1.04187 3.04178C0.42409 3.65867 0.173424 4.49867 0.0703125 5.77778H17.7076C17.6045 4.49778 17.3539 3.65867 16.7361 3.04178C16.1192 2.424 15.2792 2.17333 14.0001 2.07022V0.666667C14.0001 0.489856 13.9299 0.320286 13.8048 0.195262C13.6798 0.0702379 13.5102 0 13.3334 0C13.1566 0 12.987 0.0702379 12.862 0.195262C12.737 0.320286 12.6668 0.489856 12.6668 0.666667V2.01156C12.0756 2 11.4125 2 10.6668 2H7.1112C6.36542 2 5.70231 2 5.1112 2.01156V0.666667Z" fill="#5F33E1"/>
<path d="M12.0683 17.1895C12.0455 17.4975 12.1464 16.1442 12.2417 16.3702C12.337 16.5962 12.3425 17.4883 12.5 17.5C12.6575 17.5117 12.4783 16.9143 13 17.5C13.1275 17.2905 13.2336 17.5854 13.2564 17.2774L13.4374 14.8309C14.5911 14.7373 15.3711 14.3559 16.0005 13.3205C16.6304 12.2866 16.9621 10.8399 17.2188 8.61857L1.50294 7.45575C1.42984 9.69223 1.54505 11.1704 2.01601 12.2858C2.48607 13.4026 2.07371 14.567 3.20019 14.8309L4.14782 16.6035C4.12504 16.9114 4.16577 17.2115 4.26106 17.4375C4.35635 17.6635 4.49839 17.797 4.65594 17.8087C4.81349 17.8204 4.97363 17.7092 5.10115 17.4996C5.22867 17.2901 5.31311 16.9994 5.3359 16.6914L5.50924 14.3486C6.03446 14.4077 6.62533 14.4515 7.28986 14.5006L10.4581 14.735C11.1226 14.7842 11.7135 14.8279 12.2417 14.8468L12.0683 17.1895Z" fill="white"/>
<path fill-rule="evenodd" clip-rule="evenodd" d="M0 9.11111C0 8.36533 1.02445e-08 7.70222 0.0115556 7.11111H17.7662C17.7778 7.70222 17.7778 8.36533 17.7778 9.11111V10.8889C17.7778 14.2409 17.7778 15.9173 16.736 16.9582C15.6951 18 14.0187 18 10.6667 18H7.11111C3.75911 18 2.08267 18 1.04178 16.9582C0 15.9173 0 14.2409 0 10.8889V9.11111ZM13.3333 10.8889C13.5691 10.8889 13.7952 10.7952 13.9619 10.6285C14.1286 10.4618 14.2222 10.2357 14.2222 10C14.2222 9.76425 14.1286 9.53816 13.9619 9.37146C13.7952 9.20476 13.5691 9.11111 13.3333 9.11111C13.0976 9.11111 12.8715 9.20476 12.7048 9.37146C12.5381 9.53816 12.4444 9.76425 12.4444 10C12.4444 10.2357 12.5381 10.4618 12.7048 10.6285C12.8715 10.7952 13.0976 10.8889 13.3333 10.8889ZM13.3333 14.4444C13.5691 14.4444 13.7952 14.3508 13.9619 14.1841C14.1286 14.0174 14.2222 13.7913 14.2222 13.5556C14.2222 13.3198 14.1286 13.0937 13.9619 12.927C13.7952 12.7603 13.5691 12.6667 13.3333 12.6667C13.0976 12.6667 12.8715 12.7603 12.7048 12.927C12.5381 13.0937 12.4444 13.3198 12.4444 13.5556C12.4444 13.7913 12.5381 14.0174 12.7048 14.1841C12.8715 14.3508 13.0976 14.4444 13.3333 14.4444ZM9.77778 10C9.77778 10.2357 9.68413 10.4618 9.51743 10.6285C9.35073 10.7952 9.12464 10.8889 8.88889 10.8889C8.65314 10.8889 8.42705 10.7952 8.26035 10.6285C8.09365 10.4618 8 10.2357 8 10C8 9.76425 8.09365 9.53816 8.26035 9.37146C8.42705 9.20476 8.65314 9.11111 8.88889 9.11111C9.12464 9.11111 9.35073 9.20476 9.51743 9.37146C9.68413 9.53816 9.77778 9.76425 9.77778 10ZM9.77778 13.5556C9.77778 13.7913 9.68413 14.0174 9.51743 14.1841C9.35073 14.3508 9.12464 14.4444 8.88889 14.4444C8.65314 14.4444 8.42705 14.3508 8.26035 14.1841C8.09365 14.0174 8 13.7913 8 13.5556C8 13.3198 8.09365 13.0937 8.26035 12.927C8.42705 12.7603 8.65314 12.6667 8.88889 12.6667C9.12464 12.6667 9.35073 12.7603 9.51743 12.927C9.68413 13.0937 9.77778 13.3198 9.77778 13.5556ZM4.44444 10.8889C4.68019 10.8889 4.90629 10.7952 5.07298 10.6285C5.23968 10.4618 5.33333 10.2357 5.33333 10C5.33333 9.76425 5.23968 9.53816 5.07298 9.37146C4.90629 9.20476 4.68019 9.11111 4.44444 9.11111C4.2087 9.11111 3.9826 9.20476 3.81591 9.37146C3.64921 9.53816 3.55556 9.76425 3.55556 10C3.55556 10.2357 3.64921 10.4618 3.81591 10.6285C3.9826 10.7952 4.2087 10.8889 4.44444 10.8889ZM4.44444 14.4444C4.68019 14.4444 4.90629 14.3508 5.07298 14.1841C5.23968 14.0174 5.33333 13.7913 5.33333 13.5556C5.33333 13.3198 5.23968 13.0937 5.07298 12.927C4.90629 12.7603 4.68019 12.6667 4.44444 12.6667C4.2087 12.6667 3.9826 12.7603 3.81591 12.927C3.64921 13.0937 3.55556 13.3198 3.55556 13.5556C3.55556 13.7913 3.64921 14.0174 3.81591 14.1841C3.9826 14.3508 4.2087 14.4444 4.44444 14.4444Z" fill="#BFADF3"/>
</svg>
