<svg width="274" height="211" viewBox="0 0 274 211" fill="none" xmlns="http://www.w3.org/2000/svg">
<path opacity="0.42" d="M142.44 0.0394936C134.595 -0.213957 126.732 0.773512 118.929 2.39719C99.8041 6.37716 81.0955 12.9782 66.4279 24.1605C49.5689 37.0141 40.3723 55.5889 35.5058 74.7397C31.2676 91.4175 30.302 107.477 35.8182 124.581C45.0173 153.101 69.071 181.173 99.7234 195.249C133.35 210.689 175.67 217.398 209.068 203.213C223.869 196.926 236.075 186.758 245.008 174.765C259.87 154.811 266.387 130.033 265.982 105.624C265.765 92.508 265.056 76.621 255.051 65.4165C246.803 56.1799 233.398 54.2581 221.823 50.1884C204.43 44.0731 198.753 30.0839 186.725 18.9646C175.001 8.12593 159.167 0.580251 142.44 0.0394936Z" fill="#E0E0E0"/>
<path d="M182.947 187.92C183.524 190.826 186.426 192.58 189.215 191.708L262.953 168.663L273.898 157.61L258.755 157.127L186.249 182.098C183.869 182.918 182.451 185.418 182.947 187.92Z" fill="#A239CA"/>
<path d="M186.249 182.098C183.869 182.917 182.451 185.418 182.948 187.92C183.524 190.826 186.426 192.58 189.215 191.708L186.249 182.098Z" fill="#263238"/>
<g opacity="0.4">
<path d="M258.755 157.127L186.249 182.098L186.755 183.739L259.423 159.317L258.755 157.127Z" fill="black"/>
</g>
<g opacity="0.4">
<path d="M262.182 166.427L188.728 190.131L189.214 191.708L262.953 168.663L262.182 166.427Z" fill="black"/>
</g>
<g opacity="0.4">
<path d="M260.355 161.589L187.469 186.051L188.144 188.239L261.088 163.857L260.355 161.589Z" fill="black"/>
</g>
<g opacity="0.4">
<path d="M262.953 168.663L258.754 157.127L268.025 157.422L270.14 161.405L262.953 168.663Z" fill="#E296FF"/>
</g>
<path d="M114.442 102.647C111.934 104.317 108.564 103.575 106.914 100.989C105.265 98.4034 105.961 94.9533 108.469 93.283C110.977 91.6128 114.347 92.3549 115.997 94.9407C117.646 97.5264 116.95 100.977 114.442 102.647Z" fill="#0E0B16"/>
<path d="M95.0779 95.2731C95.2934 94.7415 95.2698 94.1264 95.4216 93.5475C95.4216 93.5475 96.1135 88.7802 103.218 88.3442C108.284 88.0333 110.526 91.6557 111.068 95.9594C111.445 98.9464 110.13 101.878 107.678 103.511C101.816 107.415 91.9552 102.981 95.0779 95.2731Z" fill="black"/>
<path d="M40.1117 176.251L35.4489 178.981L31.6553 174.731L36.1284 172.114L40.1117 176.251Z" fill="#F6AD84"/>
<path d="M16.421 171.448L30.6511 186.255C30.9504 186.17 31.2826 185.952 31.6339 185.646C32.9343 184.514 34.4842 182.162 35.5154 180.734C35.6349 180.567 35.7483 180.412 35.8535 180.275C36.031 180.042 36.1844 179.854 36.3093 179.728C37.3043 178.723 36.2587 177.984 36.2587 177.984C33.3974 177.922 33.8984 174.072 32.2473 173.788C32.2473 173.788 31.5414 173.66 29.3884 173.518C27.2362 173.377 24.6392 172.059 22.3146 171.053C19.3145 169.754 17.8282 170.027 17.0999 170.523C16.5228 170.916 16.421 171.448 16.421 171.448Z" fill="#E0E0E0"/>
<path d="M16.4208 171.448L30.651 186.255C30.9503 186.17 31.2825 185.952 31.6337 185.646L17.0993 170.523C16.5227 170.916 16.4208 171.448 16.4208 171.448Z" fill="#595959"/>
<path d="M29.1992 184.744L29.6221 185.184C29.6854 184.255 30.0349 183.092 31.1506 182.071C32.6344 180.712 34.4321 180.626 35.5152 180.734C35.6347 180.567 35.7481 180.412 35.8533 180.275C34.7353 180.108 32.6068 180.075 30.8288 181.701C29.7632 182.677 29.3364 183.787 29.1992 184.744Z" fill="#595959"/>
<path d="M28.784 174.622C28.8892 174.732 29.0568 174.759 29.1906 174.678C29.3482 174.582 29.3997 174.374 29.3054 174.211L28.6387 173.062C28.5447 172.899 28.3403 172.845 28.1825 172.94C28.0249 173.035 27.9734 173.244 28.0676 173.407L28.7343 174.556C28.7488 174.581 28.7653 174.603 28.784 174.622Z" fill="#F9F9F9"/>
<path d="M30.4122 174.789C30.5174 174.899 30.685 174.926 30.8188 174.845C30.9764 174.749 31.0279 174.54 30.9336 174.378L30.2667 173.228C30.1727 173.066 29.9683 173.011 29.8104 173.107C29.6528 173.202 29.6013 173.411 29.6958 173.574L30.3625 174.723C30.3768 174.748 30.3935 174.769 30.4122 174.789Z" fill="#F9F9F9"/>
<path d="M27.3748 174.223C27.48 174.333 27.6476 174.36 27.7814 174.279C27.9389 174.183 27.9905 173.974 27.896 173.812L27.2291 172.662C27.1351 172.5 26.9307 172.445 26.7728 172.541C26.6152 172.636 26.5637 172.845 26.6582 173.008L27.3249 174.157C27.3396 174.181 27.3563 174.204 27.3748 174.223Z" fill="#F9F9F9"/>
<path d="M25.9861 173.803C26.0913 173.913 26.2587 173.94 26.3927 173.859C26.5503 173.763 26.6021 173.554 26.5073 173.392L25.8406 172.242C25.7464 172.08 25.5422 172.026 25.3841 172.121C25.2265 172.216 25.175 172.425 25.2695 172.588L25.9364 173.737C25.9507 173.762 25.9674 173.784 25.9861 173.803Z" fill="#F9F9F9"/>
<path d="M24.5545 173.262C24.6597 173.371 24.8271 173.398 24.9611 173.317C25.1187 173.222 25.1704 173.013 25.0757 172.85L24.409 171.701C24.3147 171.539 24.1104 171.484 23.9525 171.579C23.7949 171.675 23.7434 171.884 23.8379 172.046L24.5046 173.196C24.5191 173.22 24.5357 173.243 24.5545 173.262Z" fill="#F9F9F9"/>
<path d="M23.1089 172.567C23.2141 172.676 23.3817 172.703 23.5155 172.622C23.6731 172.527 23.7246 172.318 23.6301 172.155L22.9634 171.006C22.8693 170.843 22.665 170.789 22.5069 170.884C22.3494 170.979 22.2979 171.188 22.3923 171.351L23.059 172.5C23.0738 172.525 23.0905 172.547 23.1089 172.567Z" fill="#F9F9F9"/>
<path d="M38.5086 177.375C38.5086 177.375 59.9983 168.023 65.0116 159.899C65.0116 159.899 85.3465 167.321 100.158 161.105L96.0097 146.277C96.0097 146.277 76.0552 142.384 63.7645 147.666C63.7371 147.678 63.7119 147.688 63.6843 147.7L63.4684 147.886L34.727 172.424C34.727 172.424 36.0737 174.519 38.5086 177.375Z" fill="#E0E0E0"/>
<path d="M63.4684 147.886C64.38 149.078 64.9155 149.813 64.9328 149.834C64.9953 149.918 65.1087 149.934 65.1917 149.873C65.2706 149.811 65.2884 149.694 65.2254 149.61C65.2081 149.589 64.6741 148.856 63.7642 147.667C63.7367 147.678 63.7115 147.688 63.684 147.7L63.4684 147.886Z" fill="#595959"/>
<path d="M99.344 159.516C99.402 159.476 99.4344 159.403 99.4209 159.328C99.4024 159.226 99.3071 159.157 99.2076 159.176C99.155 159.185 93.8611 160.134 86.9327 160.382C80.5467 160.611 71.4263 160.275 64.2427 157.376C64.1608 157.343 64.0678 157.374 64.0214 157.45C63.9871 157.507 60.5074 163.148 54.3302 167.051C47.1992 171.556 39.3746 175.257 39.2963 175.294C39.2044 175.337 39.1652 175.448 39.208 175.543C39.2507 175.637 39.3598 175.678 39.4514 175.635C39.53 175.598 47.3744 171.888 54.5242 167.371C60.2498 163.754 63.686 158.657 64.2502 157.781C67.4231 159.043 71.2171 159.923 75.5294 160.398C79.0255 160.783 82.8692 160.904 86.9541 160.757C93.9066 160.507 99.2212 159.555 99.2741 159.545C99.3002 159.54 99.3237 159.53 99.344 159.516Z" fill="#E0E0E0"/>
<path d="M40.0635 176.609C40.0663 176.607 40.069 176.605 40.0718 176.603C40.1524 176.541 40.1675 176.423 40.1059 176.34L36.3809 171.318C36.3196 171.235 36.2057 171.216 36.1243 171.281C36.044 171.343 36.0288 171.461 36.0902 171.544L39.8152 176.566C39.8746 176.646 39.9839 176.664 40.0635 176.609Z" fill="#E0E0E0"/>
<path d="M64.7006 158.524L62.9878 163.749L57.4225 163.109L59.0662 158.099L64.7006 158.524Z" fill="#F6AD84"/>
<path d="M43.9591 170.958L64.1049 172.498C64.273 172.231 64.3799 171.841 64.444 171.372C64.6829 169.635 64.3201 166.806 64.1679 165.029C64.1488 164.821 64.1337 164.627 64.1232 164.453C64.1049 164.156 64.0981 163.909 64.1096 163.73C64.2025 162.296 62.948 162.447 62.948 162.447C60.7769 164.34 58.6675 161.091 57.2541 161.995C57.2541 161.995 56.6461 162.377 54.951 163.73C53.257 165.083 50.4731 165.848 48.0932 166.664C45.0206 167.716 44.0903 168.93 43.8675 169.798C43.6918 170.487 43.9591 170.958 43.9591 170.958Z" fill="#E0E0E0"/>
<path d="M43.9591 170.958L64.1049 172.498C64.273 172.231 64.3799 171.841 64.4441 171.372L43.8676 169.798C43.6918 170.487 43.9591 170.958 43.9591 170.958Z" fill="#595959"/>
<path d="M62.0493 172.341L62.6479 172.387C62.0961 171.642 61.6065 170.526 61.7791 168.998C62.0085 166.966 63.2916 165.682 64.168 165.029C64.1489 164.821 64.1338 164.627 64.1233 164.452C63.1834 165.085 61.5767 166.503 61.3008 168.937C61.1363 170.397 61.5348 171.525 62.0493 172.341Z" fill="#595959"/>
<path d="M55.2136 164.974C55.3627 164.985 55.5046 164.892 55.5523 164.74C55.6083 164.561 55.5119 164.368 55.3368 164.31L54.0991 163.893C53.9242 163.834 53.7369 163.931 53.6808 164.111C53.6247 164.29 53.7215 164.483 53.8964 164.541L55.1341 164.958C55.1607 164.967 55.1872 164.972 55.2136 164.974Z" fill="#F9F9F9"/>
<path d="M56.5337 163.996C56.6828 164.007 56.8249 163.914 56.8724 163.762C56.9284 163.583 56.8321 163.39 56.6569 163.331L55.4192 162.915C55.2443 162.856 55.057 162.953 55.0008 163.133C54.9448 163.311 55.0415 163.504 55.2163 163.563L56.454 163.979C56.4805 163.989 56.5073 163.994 56.5337 163.996Z" fill="#F9F9F9"/>
<path d="M53.9067 165.627C54.0558 165.639 54.1977 165.546 54.2454 165.393C54.3014 165.215 54.205 165.021 54.0299 164.963L52.7922 164.547C52.6171 164.487 52.43 164.585 52.3742 164.764C52.3181 164.943 52.4146 165.136 52.5898 165.195L53.8275 165.611C53.8533 165.62 53.8803 165.625 53.9067 165.627Z" fill="#F9F9F9"/>
<path d="M52.6017 166.252C52.7508 166.263 52.8927 166.17 52.9404 166.018C52.9964 165.839 52.9 165.646 52.7249 165.587L51.4872 165.171C51.3121 165.112 51.1249 165.21 51.0692 165.388C51.0131 165.567 51.1096 165.76 51.2848 165.819L52.5225 166.236C52.5485 166.245 52.5753 166.25 52.6017 166.252Z" fill="#F9F9F9"/>
<path d="M51.1862 166.813C51.3353 166.825 51.4772 166.731 51.5249 166.579C51.5809 166.4 51.4845 166.207 51.3094 166.149L50.0717 165.732C49.8967 165.674 49.7092 165.771 49.6534 165.95C49.5973 166.129 49.694 166.322 49.869 166.381L51.1067 166.797C51.133 166.806 51.1598 166.811 51.1862 166.813Z" fill="#F9F9F9"/>
<path d="M49.6616 167.268C49.8107 167.279 49.9526 167.186 50.0003 167.034C50.0563 166.855 49.9599 166.662 49.7848 166.604L48.5471 166.187C48.3719 166.128 48.1846 166.226 48.1288 166.405C48.0727 166.584 48.1694 166.777 48.3444 166.836L49.5821 167.252C49.6082 167.261 49.6352 167.266 49.6616 167.268Z" fill="#F9F9F9"/>
<path d="M57.4142 159.702L64.6831 159.917C64.6831 159.917 66.7126 157.355 69.728 154.076C73.0191 150.497 75.8352 148.899 76.3404 145.025C76.3404 145.025 86.8435 161.54 98.8318 163.402C106.246 164.554 112.077 156.81 112.077 156.81C112.077 156.81 84.2129 132.595 76.8281 129.596C76.6075 129.505 76.4071 129.435 76.2237 129.385C76.0219 129.327 75.816 129.307 75.6019 129.317C75.4584 129.326 75.3105 129.347 75.1585 129.383C74.8067 129.471 74.4432 129.637 74.0654 129.873C67.4453 133.992 57.4142 159.702 57.4142 159.702Z" fill="#E0E0E0"/>
<path d="M75.1585 129.383C76.0714 130.351 76.6072 130.943 76.6246 130.962C76.6959 131.038 76.8115 131.042 76.8884 130.972C76.9591 130.9 76.9651 130.781 76.8938 130.705C76.8771 130.689 76.4089 130.17 75.6017 129.317C75.4581 129.326 75.3103 129.347 75.1585 129.383Z" fill="white"/>
<path d="M65.9967 158.296C66.0828 158.286 66.1512 158.214 66.1562 158.122C66.1618 158.018 66.0846 157.929 65.9838 157.922L58.4371 157.419C58.3363 157.412 58.2493 157.49 58.2437 157.594C58.2381 157.697 58.3153 157.787 58.4161 157.794L65.9628 158.297C65.9745 158.298 65.9856 158.297 65.9967 158.296Z" fill="white"/>
<path d="M100.09 161.716C102.784 161.39 105.134 160.228 106.783 159.174C109.121 157.679 110.595 156.07 110.61 156.054C110.678 155.978 110.674 155.86 110.6 155.789C110.525 155.718 110.41 155.722 110.341 155.797C110.327 155.813 108.879 157.391 106.579 158.86C104.464 160.21 101.175 161.742 97.5083 161.376C94.6083 161.085 89.8893 157.456 83.8621 150.88C79.2906 145.892 75.5506 140.93 75.5135 140.881C75.4655 140.817 75.3838 140.791 75.3099 140.816C75.2359 140.841 75.1862 140.912 75.1858 140.992C75.1857 141.032 75.1169 145.111 71.483 149.508C67.5563 154.259 64.9724 157.904 64.9466 157.941C64.8874 158.024 64.906 158.142 64.988 158.203C65.0702 158.264 65.1844 158.246 65.2438 158.162C65.2693 158.126 67.8457 154.492 71.7631 149.752C74.7786 146.104 75.3943 142.737 75.5198 141.496C76.493 142.763 79.7518 146.941 83.5963 151.136C89.7728 157.875 94.4427 161.446 97.4757 161.749C98.3734 161.839 99.2489 161.818 100.09 161.716Z" fill="white"/>
<path d="M99.8397 109.756C99.8397 109.756 99.7709 122.905 93.5039 126.821C88.6724 129.84 78.2583 121.268 76.2922 122.718C74.3261 124.168 73.5344 125.046 74.7533 126.897C75.9722 128.748 89.8215 139.715 96.6793 135.909C103.537 132.104 104.529 115.363 99.8397 109.756Z" fill="#4717F6"/>
<path d="M93.0667 140.98C103.58 156.696 110.412 159.92 113.346 156.506C121.087 147.498 121.627 134.359 121.1 127.961C121.034 127.162 121.017 126.296 121.032 125.389C121.054 124.053 121.144 122.627 121.247 121.19C121.634 115.792 122.2 110.253 119.987 108.842C118 107.575 116.105 107.818 114.484 107.347C113.48 107.055 112.433 106.96 111.397 107.072L105.369 107.725C105.369 107.725 101.004 108.28 99.9772 108.995C98.9504 109.71 98.3284 113.024 96.4182 116.003C94.5084 118.982 94.0143 122.03 95.6322 125.459C97.0392 128.442 96.8113 127.324 96.8501 132.121C96.8986 137.998 91.7944 139.078 93.0667 140.98Z" fill="#4717F6"/>
<path d="M109.794 111.714C110.513 111.236 110.991 110.792 111.038 110.747L110.807 110.489C110.78 110.515 108.042 113.054 105.718 112.529C104.692 112.297 103.884 111.491 103.317 110.135L103.004 110.27C103.618 111.737 104.507 112.612 105.648 112.87C107.139 113.206 108.73 112.423 109.794 111.714Z" fill="#E0E0E0"/>
<path d="M112.236 156.759C112.163 156.823 112.053 156.829 111.971 156.767C111.876 156.696 111.856 156.559 111.925 156.462C117.056 149.316 118.7 140.106 119.177 133.638C119.694 126.623 118.986 121.239 118.979 121.185C118.963 121.066 119.044 120.956 119.16 120.941C119.276 120.925 119.384 121.009 119.4 121.128C119.407 121.182 120.121 126.613 119.601 133.675C119.295 137.823 118.63 141.717 117.623 145.248C116.363 149.667 114.561 153.528 112.268 156.722C112.259 156.736 112.248 156.748 112.236 156.759Z" fill="#E0E0E0"/>
<path d="M94.2388 138.652L98.0758 140.423C98.4058 139.94 98.6901 139.379 98.9352 138.751C100.452 134.868 100.449 128.442 100.37 122.212C100.279 114.975 103.517 108.01 103.517 108.01C102.644 107.783 101.369 108.107 100.624 108.391C100.077 108.599 99.6256 109.005 99.3457 109.529C98.2285 111.62 95.5228 115.593 94.3897 118.87C93.1086 122.579 95.4672 125.093 95.9781 127.784C96.3528 129.756 95.2431 134.679 94.6238 137.166C94.3985 138.07 94.2388 138.652 94.2388 138.652Z" fill="#4717F6"/>
<path d="M98.001 101.562C98.001 101.562 96.419 100.703 96.3316 102.248C96.2442 103.792 97.7511 106.226 99.2037 105.129L98.001 101.562Z" fill="#0E0B16"/>
<path d="M103.224 107.157L104.486 110.746C104.486 110.746 107.415 113.06 111.397 107.072C110.654 105.951 109.343 104.016 109.112 102.524C109.112 102.524 108.768 102.836 108.274 103.504C108.177 103.634 108.043 103.747 107.915 103.878C106.783 105.029 105.009 106.584 103.224 107.157Z" fill="#F6AD84"/>
<path d="M103.224 107.157L103.822 108.859C105.174 107.907 107.516 105.974 108.274 103.504C108.163 103.622 108.044 103.747 107.916 103.877C106.783 105.029 105.009 106.584 103.224 107.157Z" fill="#212019"/>
<path d="M99.7875 107.209C103.943 109.116 108.95 102.744 109.11 102.538C109.112 102.535 109.114 102.533 109.114 102.533C109.063 102.23 109.007 101.932 108.947 101.639C108.442 99.158 107.614 97.0002 106.575 95.0538C105.829 92.8577 103.788 91.3662 101.528 91.4366C99.1859 91.5103 97.7247 93.1827 96.7647 93.9828C95.3162 95.1898 95.1494 97.8227 96.3882 100.967C97.9085 104.826 98.7561 106.734 99.7875 107.209Z" fill="#F6AD84"/>
<path d="M100.29 91.6337C100.29 91.6337 96.5027 90.3799 94.4392 93.2684C92.153 96.4689 94.5338 99.0533 95.5985 98.348C96.6633 97.6427 97.6371 94.6373 97.6371 94.6373C97.6371 94.6373 101.966 96.6107 104.853 94.5313C107.741 92.452 102.996 89.5867 100.29 91.6337Z" fill="#0E0B16"/>
<path d="M97.1803 97.3187C97.1803 97.3187 97.8109 97.1314 97.8252 97.7903C97.8395 98.4491 96.3734 98.3188 95.9222 99.7292C95.9222 99.7292 95.0072 98.5102 97.1803 97.3187Z" fill="#0E0B16"/>
<path d="M99.9265 96.1905C99.9265 96.1905 99.3451 96.5012 99.7849 96.9849C100.225 97.4689 101.19 96.3398 102.479 97.035C102.479 97.035 102.304 95.5122 99.9265 96.1905Z" fill="#0E0B16"/>
<path d="M101.019 99.0639C101.178 99.4636 101.483 99.7151 101.7 99.6256C101.918 99.5364 101.965 99.1403 101.806 98.7407C101.647 98.3413 101.343 98.0897 101.125 98.179C100.908 98.268 100.861 98.6643 101.019 99.0639Z" fill="#212019"/>
<path d="M97.1781 100.642C97.337 101.042 97.6416 101.293 97.859 101.204C98.0764 101.115 98.1236 100.718 97.9649 100.319C97.8062 99.9193 97.5012 99.6679 97.2841 99.7569C97.0666 99.8466 97.0194 100.243 97.1781 100.642Z" fill="#212019"/>
<path d="M100.564 103.685C100.116 103.869 99.5842 103.915 98.9838 103.66C98.8954 103.622 98.853 103.519 98.8889 103.428C98.9249 103.338 99.0253 103.295 99.1137 103.333C100.749 104.028 101.793 102.098 101.836 102.016C101.881 101.93 101.986 101.899 102.07 101.946C102.154 101.993 102.185 102.1 102.14 102.186C102.132 102.201 101.551 103.279 100.564 103.685Z" fill="#212019"/>
<path d="M99.5139 101.455C99.3276 101.531 99.189 101.551 99.1774 101.553C99.1296 101.559 99.0811 101.544 99.0437 101.513C99.0063 101.481 98.9836 101.434 98.9813 101.385L98.8798 99.3997C98.8747 99.3021 98.948 99.2194 99.0432 99.2149C99.1383 99.2104 99.2196 99.2863 99.2247 99.3839L99.315 101.151C99.4785 101.093 99.7202 100.974 99.9117 100.738C99.9724 100.663 100.081 100.653 100.155 100.716C100.228 100.778 100.239 100.89 100.178 100.965C99.9676 101.226 99.7136 101.373 99.5139 101.455Z" fill="#212019"/>
<path d="M107.202 101.437C107.239 101.474 108.234 102.482 109.11 102.539C109.11 102.538 109.111 102.539 109.111 102.539C109.113 102.535 109.114 102.533 109.114 102.533C109.063 102.23 109.007 101.932 108.947 101.639C108.918 101.646 108.124 101.817 107.202 101.437Z" fill="#212019"/>
<path d="M106.811 98.3701C106.811 98.3701 107.511 95.5865 109.319 96.8053C110.808 97.8097 110.475 102.158 108.127 101.68L106.811 98.3701Z" fill="#F6AD84"/>
<path d="M108.083 100.947C108.077 100.949 108.071 100.951 108.065 100.953C107.973 100.979 107.877 100.924 107.851 100.83C107.32 98.9255 108.561 97.6803 108.614 97.6282C108.683 97.561 108.792 97.5639 108.858 97.6349C108.924 97.7056 108.923 97.8176 108.854 97.8849C108.807 97.9313 107.71 99.0407 108.183 100.735C108.207 100.823 108.163 100.914 108.083 100.947Z" fill="#212019"/>
<path d="M109.177 99.338C109.142 99.3527 109.101 99.3551 109.062 99.3424C108.877 99.2838 108.342 99.1721 108.096 99.3578C108.019 99.4152 107.911 99.398 107.855 99.3192C107.798 99.2402 107.814 99.1296 107.89 99.0721C108.32 98.7481 109.077 98.9776 109.162 99.0046C109.253 99.0337 109.305 99.133 109.277 99.2262C109.261 99.2793 109.224 99.3191 109.177 99.338Z" fill="#212019"/>
<path d="M104.488 94.3064C104.488 94.3064 105.602 99.1552 106.727 98.7168C107.853 98.2786 108.271 96.0405 106.044 92.786L104.488 94.3064Z" fill="#0E0B16"/>
<path d="M104.248 94.8994L105.079 96.6011C105.488 97.4377 105.768 98.3352 105.884 99.2615C105.927 99.6071 105.943 99.9383 105.903 100.185C105.483 102.795 107.42 104.415 109.224 104.067C109.224 104.067 106.484 102.612 107 100.228C107.422 98.2769 107.488 98.6608 107.699 96.9749C107.877 95.5562 105.991 92.3462 104.248 94.8994Z" fill="#0E0B16"/>
<path d="M113.355 130.22C111.635 131.238 109.766 131.895 107.828 132.035C107.151 132.085 106.475 132.074 105.803 132.015C98.7264 131.392 92.1262 125.263 90.718 123.821C89.2304 122.298 89.4677 119.13 90.3584 118.105C91.9687 116.251 98.6308 120.943 104.288 122.022C108.291 122.785 111.066 117.358 111.964 113.043C113.574 105.307 119.955 108.579 119.955 108.579C126.12 113.031 121.336 125.501 113.355 130.22Z" fill="#4717F6"/>
<path d="M108.673 120.662C108.17 121.104 107.625 121.493 107.036 121.802C103.954 123.415 98.6471 119.945 98.4225 119.796C98.3237 119.731 98.2946 119.596 98.3575 119.495C98.42 119.394 98.5518 119.365 98.6509 119.431C98.7036 119.466 103.975 122.913 106.84 121.413C110.987 119.243 112.951 112.655 112.97 112.588C113.004 112.473 113.122 112.409 113.235 112.444C113.347 112.479 113.411 112.601 113.378 112.716C113.308 112.956 111.842 117.871 108.673 120.662Z" fill="#E0E0E0"/>
<path d="M115.2 129.145C113.386 130.742 111.647 131.755 110.009 132.166C107.162 132.88 103.943 132.097 101.744 131.315C99.3714 130.471 97.6391 129.444 97.6222 129.434C97.5202 129.373 97.4851 129.24 97.5435 129.136C97.6018 129.033 97.7317 128.997 97.8335 129.058C97.901 129.098 104.639 133.063 109.905 131.742C115.175 130.421 120.209 122.683 120.26 122.606C120.323 122.506 120.456 122.479 120.554 122.546C120.652 122.612 120.679 122.748 120.615 122.848C120.602 122.868 119.316 124.855 117.383 126.981C116.644 127.792 115.917 128.514 115.2 129.145Z" fill="#E0E0E0"/>
<path d="M79.5002 110.457L89.9831 123.151C90.5543 123.843 90.356 124.897 89.627 125.044L88.286 125.622L78.477 127.287C78.1455 127.353 77.3157 126.762 77.0534 126.451L66.2786 114.616C65.7234 113.958 67.2363 113.494 67.9171 113.287L78.4607 110.071C78.8125 109.964 79.2165 110.114 79.5002 110.457Z" fill="#455A64"/>
<path d="M78.1593 111.036L88.642 123.73C89.2134 124.421 89.0148 125.475 88.2859 125.622L77.1357 127.865C76.8042 127.931 76.4408 127.781 76.1781 127.47L66.3015 115.749C65.7464 115.09 65.8946 114.072 66.5756 113.864L77.1192 110.649C77.4717 110.542 77.8756 110.692 78.1593 111.036Z" fill="#0E0B16"/>
<path d="M77.6262 112.122C77.6882 112.081 77.7182 112.001 77.6951 111.925C77.6667 111.832 77.5713 111.781 77.4817 111.808L67.2345 115.025C67.1446 115.053 67.0951 115.151 67.1231 115.243C67.1515 115.335 67.2469 115.387 67.3365 115.359L77.5837 112.142C77.5988 112.137 77.6132 112.131 77.6262 112.122Z" fill="#455A64"/>
<path d="M84.5574 123.015C84.5574 123.015 81.8681 123.877 82.0613 124.54C82.2678 125.241 84.7445 124.311 84.7445 124.311C84.7445 124.311 83.6978 125.115 83.8475 125.415C84.2258 126.173 87.4653 124.831 88.2562 124.443C89.0471 124.057 90.5831 123.795 91.5176 123.117C92.1514 122.656 93.3672 119.664 92.4228 118.477C92.125 118.102 90.8251 117.935 90.0451 117.731C89.2523 117.523 88.0874 117.421 87.3608 117.492C86.8949 117.537 86.084 117.208 85.2203 117.384L86.5083 118.944C86.6345 118.981 86.3292 119.512 86.3292 119.512C86.3292 119.512 81.1019 120.217 80.8992 120.931C80.628 121.887 82.8955 121.503 83.889 121.269C83.889 121.269 81.1745 122.401 81.0693 122.885C80.8573 123.854 84.5574 123.015 84.5574 123.015Z" fill="#F6AD84"/>
<path d="M71.3064 121.717L70.5647 120.824C70.5647 120.824 70.4829 122.08 71.3671 123.009C72.2512 123.938 73.175 125.228 73.6397 125.83C74.1044 126.432 74.8236 127.864 75.4051 128.001C75.9866 128.137 76.6262 127.722 77.3008 127.018C77.9751 126.313 77.8349 125.807 77.2807 125.914C76.7264 126.022 75.2387 126.353 75.2387 126.353C75.2387 126.353 75.548 125.984 76.5733 125.377C77.5988 124.769 77.378 124.345 76.4937 124.302C75.6097 124.259 73.9992 125.008 73.9992 125.008C73.9992 125.008 75.155 124.111 75.8389 123.589C76.523 123.067 75.6884 122.371 74.4654 123.03C73.2425 123.69 72.9768 123.733 72.9768 123.733C72.9768 123.733 73.2174 122.998 74.0762 122.401C74.935 121.803 75.2646 121.111 74.6106 120.928C73.9566 120.746 71.8795 122.4 71.8795 122.4L71.3064 121.717Z" fill="#F6AD84"/>
<path d="M70.997 108.632L64.9765 108.634C64.6003 108.634 64.2948 108.276 64.2947 107.833L64.2935 103.693C64.2933 103.251 64.5983 102.892 64.9748 102.892L70.9953 102.89C71.3715 102.89 71.677 103.248 71.6771 103.691L71.6783 107.831C71.6782 108.273 71.3733 108.632 70.997 108.632Z" fill="#A239CA"/>
<path d="M70.4662 108.632L72.4922 109.927L71.6779 107.355L70.4662 108.632Z" fill="#A239CA"/>
<path d="M69.6204 105.336C69.4893 106.317 67.9314 107.547 67.9314 107.547C67.9314 107.547 66.4297 106.318 66.3437 105.337C66.2501 104.273 67.3224 103.946 67.9955 104.748C68.7055 103.946 69.7627 104.272 69.6204 105.336Z" fill="#F9F9F9"/>
<path d="M215.608 12.8984H128.781C125.703 12.8984 123.208 15.3935 123.208 18.4714V157.867C123.208 160.945 125.703 163.44 128.781 163.44H215.608C218.686 163.44 221.181 160.945 221.181 157.867V18.4714C221.181 15.3935 218.686 12.8984 215.608 12.8984Z" fill="#E7DFDD"/>
<path d="M215.073 18.6186H129.315V156.68H215.073V18.6186Z" fill="white"/>
<path d="M136.673 29.0184H183.751C184.521 29.0184 185.151 28.3748 185.151 27.5885C185.151 26.8022 184.521 26.1586 183.751 26.1586H136.673C135.904 26.1586 135.274 26.8022 135.274 27.5885C135.274 28.3753 135.904 29.0184 136.673 29.0184Z" fill="#A239CA"/>
<path d="M136.673 32.9187H162.693C163.463 32.9187 164.093 32.2751 164.093 31.4888C164.093 30.7025 163.463 30.0589 162.693 30.0589H136.673C135.904 30.0589 135.274 30.7025 135.274 31.4888C135.274 32.2751 135.904 32.9187 136.673 32.9187Z" fill="#A239CA"/>
<path d="M142.945 22.3595H201.362C201.362 15.6981 196.077 10.2976 189.557 10.2976H154.751C148.231 10.2976 142.945 15.6976 142.945 22.3595Z" fill="#0E0B16"/>
<path d="M158.686 13.9022H187.182C189.318 13.9022 191.05 12.1331 191.05 9.95109C191.05 7.76908 189.318 6.00001 187.182 6.00001H158.686C156.55 6.00001 154.819 7.76908 154.819 9.95109C154.818 12.1331 156.55 13.9022 158.686 13.9022Z" fill="#0E0B16"/>
<ellipse cx="163.103" cy="88.0426" rx="2.53194" ry="2.58693" fill="#A239CA"/>
<ellipse cx="172.869" cy="88.0426" rx="2.53194" ry="2.58693" fill="#A239CA"/>
<ellipse cx="182.635" cy="88.0426" rx="2.53194" ry="2.58693" fill="#A239CA"/>
<path d="M154.792 98.259C154.767 98.0137 154.663 97.8232 154.478 97.6874C154.294 97.5516 154.044 97.4837 153.727 97.4837C153.513 97.4837 153.331 97.5141 153.183 97.5749C153.035 97.6337 152.922 97.7158 152.843 97.8212C152.766 97.9266 152.727 98.0461 152.727 98.1799C152.723 98.2914 152.746 98.3887 152.797 98.4718C152.85 98.5549 152.922 98.6268 153.013 98.6876C153.104 98.7464 153.21 98.7981 153.329 98.8427C153.449 98.8853 153.576 98.9217 153.712 98.9521L154.272 99.0859C154.543 99.1467 154.793 99.2278 155.02 99.3291C155.247 99.4305 155.443 99.5551 155.609 99.7031C155.776 99.851 155.904 100.025 155.996 100.226C156.089 100.427 156.136 100.657 156.138 100.916C156.136 101.297 156.039 101.628 155.847 101.907C155.656 102.185 155.38 102.401 155.02 102.555C154.661 102.707 154.228 102.783 153.721 102.783C153.219 102.783 152.781 102.706 152.408 102.552C152.037 102.398 151.747 102.17 151.538 101.868C151.332 101.564 151.223 101.188 151.213 100.74H152.487C152.501 100.949 152.561 101.123 152.666 101.263C152.774 101.401 152.917 101.505 153.095 101.576C153.276 101.645 153.479 101.679 153.706 101.679C153.929 101.679 154.123 101.647 154.287 101.582C154.453 101.517 154.582 101.427 154.673 101.311C154.764 101.196 154.81 101.063 154.81 100.913C154.81 100.773 154.768 100.656 154.685 100.56C154.604 100.465 154.485 100.384 154.326 100.317C154.17 100.25 153.979 100.19 153.752 100.135L153.074 99.9645C152.549 99.8369 152.134 99.6372 151.83 99.3656C151.526 99.094 151.375 98.7282 151.377 98.2681C151.375 97.8911 151.476 97.5617 151.678 97.28C151.883 96.9983 152.164 96.7783 152.521 96.6203C152.877 96.4622 153.283 96.3831 153.737 96.3831C154.199 96.3831 154.602 96.4622 154.947 96.6203C155.293 96.7783 155.563 96.9983 155.755 97.28C155.948 97.5617 156.047 97.888 156.053 98.259H154.792ZM159.128 102.786C158.647 102.786 158.234 102.689 157.887 102.494C157.543 102.297 157.277 102.02 157.091 101.661C156.904 101.3 156.811 100.874 156.811 100.381C156.811 99.9007 156.904 99.4791 157.091 99.1163C157.277 98.7535 157.54 98.4708 157.878 98.2681C158.219 98.0654 158.618 97.9641 159.076 97.9641C159.384 97.9641 159.671 98.0137 159.936 98.113C160.204 98.2103 160.437 98.3573 160.636 98.5539C160.836 98.7505 160.992 98.9977 161.104 99.2957C161.215 99.5916 161.271 99.9382 161.271 100.335V100.691H157.328V99.8885H160.052C160.052 99.7021 160.011 99.5369 159.93 99.393C159.849 99.2491 159.737 99.1366 159.593 99.0555C159.451 98.9724 159.286 98.9309 159.097 98.9309C158.901 98.9309 158.726 98.9765 158.574 99.0677C158.424 99.1569 158.307 99.2774 158.222 99.4295C158.137 99.5794 158.093 99.7467 158.091 99.9311V100.694C158.091 100.925 158.134 101.125 158.219 101.293C158.306 101.461 158.429 101.591 158.587 101.682C158.745 101.774 158.932 101.819 159.149 101.819C159.293 101.819 159.425 101.799 159.544 101.758C159.664 101.718 159.766 101.657 159.851 101.576C159.936 101.495 160.001 101.396 160.046 101.278L161.244 101.357C161.183 101.645 161.058 101.896 160.87 102.111C160.683 102.324 160.442 102.49 160.146 102.61C159.852 102.727 159.513 102.786 159.128 102.786ZM162.116 102.695V98.0249H163.351V98.8488H163.405C163.503 98.5751 163.665 98.3593 163.892 98.2012C164.119 98.0431 164.39 97.9641 164.707 97.9641C165.027 97.9641 165.3 98.0441 165.524 98.2042C165.749 98.3623 165.899 98.5772 165.974 98.8488H166.023C166.118 98.5812 166.291 98.3674 166.54 98.2073C166.791 98.0451 167.088 97.9641 167.431 97.9641C167.867 97.9641 168.22 98.1029 168.492 98.3806C168.765 98.6562 168.902 99.0474 168.902 99.5541V102.695H167.61V99.8095C167.61 99.5501 167.541 99.3555 167.403 99.2258C167.266 99.096 167.093 99.0312 166.887 99.0312C166.651 99.0312 166.468 99.1062 166.336 99.2562C166.204 99.4041 166.139 99.5997 166.139 99.8429V102.695H164.883V99.7821C164.883 99.5531 164.817 99.3707 164.685 99.2349C164.556 99.0991 164.384 99.0312 164.172 99.0312C164.028 99.0312 163.898 99.0677 163.782 99.1406C163.669 99.2116 163.579 99.3119 163.512 99.4416C163.445 99.5693 163.412 99.7193 163.412 99.8916V102.695H162.116ZM174.391 98.0249V98.9977H171.578V98.0249H174.391ZM172.217 96.906H173.512V101.26C173.512 101.379 173.53 101.473 173.567 101.539C173.603 101.604 173.654 101.65 173.719 101.676C173.786 101.703 173.863 101.716 173.95 101.716C174.011 101.716 174.071 101.711 174.132 101.701C174.193 101.688 174.24 101.679 174.272 101.673L174.476 102.637C174.411 102.657 174.32 102.681 174.202 102.707C174.085 102.735 173.942 102.752 173.773 102.759C173.461 102.771 173.188 102.729 172.953 102.634C172.72 102.539 172.538 102.391 172.408 102.19C172.279 101.989 172.215 101.736 172.217 101.43V96.906ZM176.566 102.783C176.268 102.783 176.003 102.731 175.769 102.628C175.536 102.522 175.352 102.367 175.216 102.163C175.082 101.956 175.015 101.699 175.015 101.39C175.015 101.131 175.063 100.913 175.158 100.737C175.254 100.56 175.383 100.419 175.547 100.311C175.712 100.204 175.898 100.123 176.107 100.068C176.318 100.013 176.539 99.9747 176.77 99.9524C177.041 99.924 177.26 99.8977 177.426 99.8733C177.593 99.847 177.713 99.8085 177.788 99.7578C177.863 99.7071 177.901 99.6321 177.901 99.5328V99.5146C177.901 99.322 177.84 99.1731 177.718 99.0677C177.599 98.9623 177.428 98.9096 177.207 98.9096C176.974 98.9096 176.789 98.9613 176.651 99.0646C176.513 99.166 176.422 99.2937 176.377 99.4477L175.18 99.3504C175.24 99.0667 175.36 98.8214 175.538 98.6147C175.717 98.4059 175.947 98.2458 176.229 98.1343C176.512 98.0208 176.841 97.9641 177.214 97.9641C177.473 97.9641 177.721 97.9945 177.958 98.0553C178.198 98.1161 178.409 98.2103 178.594 98.338C178.78 98.4657 178.927 98.6299 179.035 98.8305C179.142 99.0292 179.196 99.2673 179.196 99.545V102.695H177.968V102.047H177.931C177.856 102.193 177.756 102.322 177.63 102.433C177.504 102.543 177.353 102.629 177.177 102.692C177.001 102.752 176.797 102.783 176.566 102.783ZM176.937 101.889C177.127 101.889 177.296 101.852 177.442 101.777C177.588 101.7 177.702 101.596 177.785 101.466C177.868 101.337 177.91 101.19 177.91 101.026V100.53C177.869 100.556 177.814 100.581 177.743 100.603C177.674 100.623 177.596 100.643 177.508 100.661C177.421 100.677 177.334 100.692 177.247 100.706C177.16 100.719 177.081 100.73 177.01 100.74C176.858 100.762 176.725 100.798 176.612 100.846C176.498 100.895 176.41 100.961 176.347 101.044C176.284 101.125 176.253 101.226 176.253 101.348C176.253 101.524 176.317 101.659 176.444 101.752C176.574 101.843 176.738 101.889 176.937 101.889ZM180.201 102.695V98.0249H181.456V98.8396H181.505C181.59 98.5498 181.733 98.3309 181.934 98.183C182.134 98.033 182.365 97.958 182.627 97.958C182.692 97.958 182.762 97.962 182.837 97.9701C182.912 97.9782 182.977 97.9894 183.034 98.0036V99.1528C182.973 99.1346 182.889 99.1183 182.782 99.1042C182.674 99.09 182.576 99.0829 182.487 99.0829C182.296 99.0829 182.126 99.1244 181.976 99.2075C181.828 99.2886 181.711 99.4021 181.623 99.548C181.538 99.694 181.496 99.8622 181.496 100.053V102.695H180.201ZM185.615 102.786C185.134 102.786 184.721 102.689 184.374 102.494C184.03 102.297 183.764 102.02 183.578 101.661C183.391 101.3 183.298 100.874 183.298 100.381C183.298 99.9007 183.391 99.4791 183.578 99.1163C183.764 98.7535 184.027 98.4708 184.365 98.2681C184.706 98.0654 185.105 97.9641 185.563 97.9641C185.871 97.9641 186.158 98.0137 186.423 98.113C186.691 98.2103 186.924 98.3573 187.123 98.5539C187.323 98.7505 187.479 98.9977 187.591 99.2957C187.702 99.5916 187.758 99.9382 187.758 100.335V100.691H183.815V99.8885H186.539C186.539 99.7021 186.498 99.5369 186.417 99.393C186.336 99.2491 186.224 99.1366 186.08 99.0555C185.938 98.9724 185.773 98.9309 185.584 98.9309C185.388 98.9309 185.213 98.9765 185.061 99.0677C184.911 99.1569 184.794 99.2774 184.709 99.4295C184.623 99.5794 184.58 99.7467 184.578 99.9311V100.694C184.578 100.925 184.62 101.125 184.706 101.293C184.793 101.461 184.915 101.591 185.073 101.682C185.232 101.774 185.419 101.819 185.636 101.819C185.78 101.819 185.912 101.799 186.031 101.758C186.151 101.718 186.253 101.657 186.338 101.576C186.423 101.495 186.488 101.396 186.533 101.278L187.731 101.357C187.67 101.645 187.545 101.896 187.357 102.111C187.17 102.324 186.929 102.49 186.633 102.61C186.339 102.727 186 102.786 185.615 102.786ZM191.114 98.0249V98.9977H188.232V98.0249H191.114ZM188.892 102.695V97.6874C188.892 97.3489 188.958 97.0682 189.09 96.8452C189.223 96.6223 189.406 96.4551 189.637 96.3436C189.868 96.2321 190.13 96.1764 190.424 96.1764C190.623 96.1764 190.804 96.1916 190.968 96.222C191.135 96.2524 191.258 96.2797 191.339 96.3041L191.108 97.277C191.058 97.2607 190.995 97.2455 190.92 97.2313C190.847 97.2172 190.772 97.2101 190.695 97.2101C190.504 97.2101 190.372 97.2547 190.297 97.3438C190.222 97.431 190.184 97.5536 190.184 97.7117V102.695H188.892ZM193.07 102.783C192.772 102.783 192.507 102.731 192.274 102.628C192.04 102.522 191.856 102.367 191.72 102.163C191.586 101.956 191.52 101.699 191.52 101.39C191.52 101.131 191.567 100.913 191.662 100.737C191.758 100.56 191.887 100.419 192.052 100.311C192.216 100.204 192.402 100.123 192.611 100.068C192.822 100.013 193.043 99.9747 193.274 99.9524C193.545 99.924 193.764 99.8977 193.93 99.8733C194.097 99.847 194.217 99.8085 194.292 99.7578C194.367 99.7071 194.405 99.6321 194.405 99.5328V99.5146C194.405 99.322 194.344 99.1731 194.222 99.0677C194.103 98.9623 193.932 98.9096 193.712 98.9096C193.478 98.9096 193.293 98.9613 193.155 99.0646C193.017 99.166 192.926 99.2937 192.882 99.4477L191.684 99.3504C191.745 99.0667 191.864 98.8214 192.042 98.6147C192.221 98.4059 192.451 98.2458 192.733 98.1343C193.016 98.0208 193.345 97.9641 193.718 97.9641C193.977 97.9641 194.225 97.9945 194.463 98.0553C194.702 98.1161 194.913 98.2103 195.098 98.338C195.284 98.4657 195.431 98.6299 195.539 98.8305C195.646 99.0292 195.7 99.2673 195.7 99.545V102.695H194.472V102.047H194.435C194.36 102.193 194.26 102.322 194.134 102.433C194.009 102.543 193.858 102.629 193.681 102.692C193.505 102.752 193.301 102.783 193.07 102.783ZM193.441 101.889C193.632 101.889 193.8 101.852 193.946 101.777C194.092 101.7 194.206 101.596 194.289 101.466C194.372 101.337 194.414 101.19 194.414 101.026V100.53C194.373 100.556 194.318 100.581 194.247 100.603C194.178 100.623 194.1 100.643 194.013 100.661C193.925 100.677 193.838 100.692 193.751 100.706C193.664 100.719 193.585 100.73 193.514 100.74C193.362 100.762 193.229 100.798 193.116 100.846C193.002 100.895 192.914 100.961 192.851 101.044C192.788 101.125 192.757 101.226 192.757 101.348C192.757 101.524 192.821 101.659 192.948 101.752C193.078 101.843 193.242 101.889 193.441 101.889Z" fill="#A239CA"/>
<path d="M233.223 102.493C233.223 102.493 228.74 87.6717 233.914 86.3733C239.299 85.0218 238.294 94.4756 237.717 99.09C236.483 108.936 235.244 110.683 234.625 108.206L233.223 102.493ZM230.615 113.56C232.005 115.702 232.61 113.647 230.579 103.934C229.627 99.3824 227.506 90.1146 222.852 93.142C218.38 96.0503 227.434 108.612 227.434 108.612L230.615 113.56ZM226.943 121.546C228.316 122.982 228.481 121.323 225.52 114.192C224.133 110.849 221.169 104.071 218.049 107.06C215.052 109.931 223.794 118.223 223.794 118.223L226.943 121.546ZM222.914 131.073C224.287 132.509 224.452 130.85 221.491 123.719C220.104 120.376 217.14 113.598 214.02 116.587C211.023 119.459 219.765 127.75 219.765 127.75L222.914 131.073ZM233.906 111.907C231.459 112.639 233.261 113.797 243.154 114.577C247.79 114.943 257.28 115.513 255.683 110.196C254.149 105.087 239.549 110.245 239.549 110.245L233.906 111.907ZM230.673 118.275C228.129 118.505 229.665 119.999 239.205 122.73C243.677 124.01 252.864 126.455 252.355 120.926C251.867 115.614 236.533 117.768 236.533 117.768L230.673 118.275ZM226.993 126.08C224.837 126.217 226.101 127.515 234.106 130.045C237.857 131.231 245.57 133.511 245.268 128.824C244.977 124.32 231.961 125.787 231.961 125.787L226.993 126.08ZM224.096 133.342C221.967 133.706 223.361 134.863 231.589 136.53C235.445 137.311 243.356 138.759 242.559 134.13C241.792 129.683 229.005 132.523 229.005 132.523L224.096 133.342ZM238.775 104.16C237.32 106.781 239.897 106.577 249.096 99.7805C253.407 96.5955 262.072 89.8941 255.982 85.7116C250.13 81.6933 242.153 98.1401 242.153 98.1401L238.775 104.16ZM223.626 143.048C222.277 143.695 223.515 144.09 229.509 143.395C232.318 143.069 238.043 142.311 236.328 139.757C234.68 137.303 226.742 141.57 226.742 141.57L223.626 143.048Z" fill="#A387E9"/>
<path opacity="0.3" d="M233.223 102.493C233.223 102.493 228.74 87.6717 233.914 86.3733C239.299 85.0218 238.294 94.4756 237.717 99.09C236.483 108.936 235.244 110.683 234.625 108.206L233.223 102.493ZM230.615 113.56C232.005 115.702 232.61 113.647 230.579 103.934C229.627 99.3824 227.506 90.1146 222.852 93.142C218.38 96.0503 227.434 108.612 227.434 108.612L230.615 113.56ZM226.943 121.546C228.316 122.982 228.481 121.323 225.52 114.192C224.133 110.849 221.169 104.071 218.049 107.06C215.052 109.931 223.794 118.223 223.794 118.223L226.943 121.546ZM222.914 131.073C224.287 132.509 224.452 130.85 221.491 123.719C220.104 120.376 217.14 113.598 214.02 116.587C211.023 119.459 219.765 127.75 219.765 127.75L222.914 131.073ZM233.906 111.907C231.459 112.639 233.261 113.797 243.154 114.577C247.79 114.943 257.28 115.513 255.683 110.196C254.149 105.087 239.549 110.245 239.549 110.245L233.906 111.907ZM230.673 118.275C228.129 118.505 229.665 119.999 239.205 122.73C243.677 124.01 252.864 126.455 252.355 120.926C251.867 115.614 236.533 117.768 236.533 117.768L230.673 118.275ZM226.993 126.08C224.837 126.217 226.101 127.515 234.106 130.045C237.857 131.231 245.57 133.511 245.268 128.824C244.977 124.32 231.961 125.787 231.961 125.787L226.993 126.08ZM224.096 133.342C221.967 133.706 223.361 134.863 231.589 136.53C235.445 137.311 243.356 138.759 242.559 134.13C241.792 129.683 229.005 132.523 229.005 132.523L224.096 133.342ZM238.775 104.16C237.32 106.781 239.897 106.577 249.096 99.7805C253.407 96.5955 262.072 89.8941 255.982 85.7116C250.13 81.6933 242.153 98.1401 242.153 98.1401L238.775 104.16ZM223.626 143.048C222.277 143.695 223.515 144.09 229.509 143.395C232.318 143.069 238.043 142.311 236.328 139.757C234.68 137.303 226.742 141.57 226.742 141.57L223.626 143.048Z" fill="white"/>
<path d="M235.181 109.379L235.533 92.905L235.181 109.379ZM231.626 114.536L226.544 99.9294L231.626 114.536ZM248.026 111.745L232.934 112.662L248.026 111.745ZM227.779 121.873L220.541 110.828L227.779 121.873ZM229.441 118.806L240.529 120.274L229.441 118.806ZM226.174 126.545L234.62 128.081L226.174 126.545ZM223.704 131.43L220.012 124.725L223.704 131.43ZM223.054 133.637L233.057 134.546L223.054 133.637ZM219.496 152.255C219.636 152.257 219.752 152.145 219.754 152.004C219.895 142.388 224.868 127.033 231.848 114.661C236.309 106.754 252.492 91.8167 252.655 91.6671C252.758 91.5718 252.765 91.4107 252.67 91.3071C252.575 91.2043 252.414 91.1964 252.31 91.292C252.146 91.4424 235.905 106.434 231.404 114.411C224.276 127.047 219.389 142.151 219.245 151.997C219.243 152.131 219.346 152.243 219.478 152.254C219.484 152.254 219.49 152.255 219.496 152.255ZM235.176 109.633C235.317 109.636 235.433 109.525 235.436 109.384L235.787 92.9102C235.79 92.7692 235.674 92.6471 235.538 92.6499C235.397 92.647 235.281 92.7584 235.278 92.899L234.927 109.373C234.924 109.509 235.027 109.622 235.16 109.633C235.165 109.633 235.171 109.633 235.176 109.633ZM231.71 114.776C231.842 114.73 231.913 114.585 231.866 114.452L226.785 99.8458C226.738 99.7126 226.593 99.642 226.461 99.6892C226.328 99.7355 226.258 99.8804 226.304 100.013L231.386 114.62C231.42 114.718 231.508 114.782 231.605 114.79C231.64 114.792 231.675 114.789 231.71 114.776ZM232.949 112.916L248.042 111.999C248.182 111.99 248.289 111.87 248.281 111.729C248.272 111.589 248.151 111.484 248.011 111.491L232.918 112.408C232.778 112.417 232.671 112.537 232.679 112.678C232.687 112.805 232.789 112.906 232.913 112.916C232.924 112.916 232.937 112.917 232.949 112.916ZM227.918 122.086C228.036 122.008 228.069 121.851 227.992 121.733L220.754 110.688C220.676 110.571 220.519 110.538 220.401 110.615C220.284 110.692 220.251 110.849 220.328 110.968L227.566 122.012C227.611 122.081 227.683 122.12 227.758 122.126C227.813 122.131 227.869 122.118 227.918 122.086ZM240.782 120.307C240.801 120.168 240.702 120.04 240.563 120.021L229.474 118.553C229.335 118.529 229.207 118.633 229.189 118.773C229.17 118.912 229.268 119.04 229.408 119.058L240.496 120.526C240.501 120.527 240.505 120.527 240.509 120.528C240.643 120.538 240.764 120.442 240.782 120.307ZM234.87 128.126C234.895 127.988 234.803 127.855 234.665 127.83L226.22 126.295C226.085 126.271 225.949 126.361 225.924 126.5C225.898 126.638 225.99 126.771 226.128 126.796L234.574 128.331C234.582 128.333 234.591 128.334 234.599 128.334C234.728 128.345 234.847 128.256 234.87 128.126ZM223.827 131.653C223.95 131.585 223.995 131.43 223.928 131.307L220.235 124.602C220.167 124.479 220.013 124.434 219.889 124.502C219.766 124.57 219.721 124.725 219.788 124.848L223.481 131.553C223.524 131.631 223.601 131.677 223.684 131.684C223.732 131.688 223.782 131.679 223.827 131.653ZM233.311 134.569C233.324 134.429 233.221 134.305 233.08 134.293L223.076 133.383C223.076 133.383 223.075 133.383 223.074 133.383C222.935 133.372 222.812 133.475 222.8 133.614C222.787 133.754 222.89 133.878 223.03 133.891L233.034 134.799C233.035 134.8 233.035 134.8 233.036 134.8C233.176 134.811 233.298 134.709 233.311 134.569ZM218.661 148.446C218.681 148.4 220.774 143.837 225.998 143.132C226.137 143.113 226.235 142.985 226.216 142.846C226.198 142.706 226.067 142.609 225.93 142.628C220.418 143.372 218.217 148.191 218.196 148.239C218.139 148.368 218.197 148.518 218.325 148.576C218.352 148.587 218.38 148.594 218.408 148.597C218.512 148.605 218.616 148.547 218.661 148.446ZM219.496 152.255C219.636 152.257 219.752 152.145 219.754 152.004C219.895 142.388 224.868 127.033 231.848 114.661C236.309 106.754 252.492 91.8167 252.655 91.6671C252.758 91.5718 252.765 91.4107 252.67 91.3071C252.575 91.2043 252.414 91.1964 252.31 91.292C252.146 91.4424 235.905 106.434 231.404 114.411C224.276 127.047 219.389 142.151 219.245 151.997C219.243 152.131 219.346 152.243 219.478 152.254C219.484 152.254 219.49 152.255 219.496 152.255ZM235.176 109.633C235.317 109.636 235.433 109.525 235.436 109.384L235.787 92.9102C235.79 92.7692 235.674 92.6471 235.538 92.6499C235.397 92.647 235.281 92.7584 235.278 92.899L234.927 109.373C234.924 109.509 235.027 109.622 235.16 109.633C235.165 109.633 235.171 109.633 235.176 109.633ZM231.71 114.776C231.842 114.73 231.913 114.585 231.866 114.452L226.785 99.8458C226.738 99.7126 226.593 99.642 226.461 99.6892C226.328 99.7355 226.258 99.8804 226.304 100.013L231.386 114.62C231.42 114.718 231.508 114.782 231.605 114.79C231.64 114.792 231.675 114.789 231.71 114.776ZM232.949 112.916L248.042 111.999C248.182 111.99 248.289 111.87 248.281 111.729C248.272 111.589 248.151 111.484 248.011 111.491L232.918 112.408C232.778 112.417 232.671 112.537 232.679 112.678C232.687 112.805 232.789 112.906 232.913 112.916C232.924 112.916 232.937 112.917 232.949 112.916ZM227.918 122.086C228.036 122.008 228.069 121.851 227.992 121.733L220.754 110.688C220.676 110.571 220.519 110.538 220.401 110.615C220.284 110.692 220.251 110.849 220.328 110.968L227.566 122.012C227.611 122.081 227.683 122.12 227.758 122.126C227.813 122.131 227.869 122.118 227.918 122.086ZM240.782 120.307C240.801 120.168 240.702 120.04 240.563 120.021L229.474 118.553C229.335 118.529 229.207 118.633 229.189 118.773C229.17 118.912 229.268 119.04 229.408 119.058L240.496 120.526C240.501 120.527 240.505 120.527 240.509 120.528C240.643 120.538 240.764 120.442 240.782 120.307ZM234.87 128.126C234.895 127.988 234.803 127.855 234.665 127.83L226.22 126.295C226.085 126.271 225.949 126.361 225.924 126.5C225.898 126.638 225.99 126.771 226.128 126.796L234.574 128.331C234.582 128.333 234.591 128.334 234.599 128.334C234.728 128.345 234.847 128.256 234.87 128.126ZM223.827 131.653C223.95 131.585 223.995 131.43 223.928 131.307L220.235 124.602C220.167 124.479 220.013 124.434 219.889 124.502C219.766 124.57 219.721 124.725 219.788 124.848L223.481 131.553C223.524 131.631 223.601 131.677 223.684 131.684C223.732 131.688 223.782 131.679 223.827 131.653ZM233.311 134.569C233.324 134.429 233.221 134.305 233.08 134.293L223.076 133.383C223.076 133.383 223.075 133.383 223.074 133.383C222.935 133.372 222.812 133.475 222.8 133.614C222.787 133.754 222.89 133.878 223.03 133.891L233.034 134.799C233.035 134.8 233.035 134.8 233.036 134.8C233.176 134.811 233.298 134.709 233.311 134.569ZM218.661 148.446C218.681 148.4 220.774 143.837 225.998 143.132C226.137 143.113 226.235 142.985 226.216 142.846C226.198 142.706 226.067 142.609 225.93 142.628C220.418 143.372 218.217 148.191 218.196 148.239C218.139 148.368 218.197 148.518 218.325 148.576C218.352 148.587 218.38 148.594 218.408 148.597C218.512 148.605 218.616 148.547 218.661 148.446Z" fill="#A387E9"/>
<path opacity="0.2" d="M235.181 109.379L235.533 92.905L235.181 109.379ZM231.626 114.536L226.544 99.9294L231.626 114.536ZM248.026 111.745L232.934 112.662L248.026 111.745ZM227.779 121.873L220.541 110.828L227.779 121.873ZM229.441 118.806L240.529 120.274L229.441 118.806ZM226.174 126.545L234.62 128.081L226.174 126.545ZM223.704 131.43L220.012 124.725L223.704 131.43ZM223.054 133.637L233.057 134.546L223.054 133.637ZM219.496 152.255C219.636 152.257 219.752 152.145 219.754 152.004C219.895 142.388 224.868 127.033 231.848 114.661C236.309 106.754 252.492 91.8167 252.655 91.6671C252.758 91.5718 252.765 91.4107 252.67 91.3071C252.575 91.2043 252.414 91.1964 252.31 91.292C252.146 91.4424 235.905 106.434 231.404 114.411C224.276 127.047 219.389 142.151 219.245 151.997C219.243 152.131 219.346 152.243 219.478 152.254C219.484 152.254 219.49 152.255 219.496 152.255ZM235.176 109.633C235.317 109.636 235.433 109.525 235.436 109.384L235.787 92.9102C235.79 92.7692 235.674 92.6471 235.538 92.6499C235.397 92.647 235.281 92.7584 235.278 92.899L234.927 109.373C234.924 109.509 235.027 109.622 235.16 109.633C235.165 109.633 235.171 109.633 235.176 109.633ZM231.71 114.776C231.842 114.73 231.913 114.585 231.866 114.452L226.785 99.8458C226.738 99.7126 226.593 99.642 226.461 99.6892C226.328 99.7355 226.258 99.8804 226.304 100.013L231.386 114.62C231.42 114.718 231.508 114.782 231.605 114.79C231.64 114.792 231.675 114.789 231.71 114.776ZM232.949 112.916L248.042 111.999C248.182 111.99 248.289 111.87 248.281 111.729C248.272 111.589 248.151 111.484 248.011 111.491L232.918 112.408C232.778 112.417 232.671 112.537 232.679 112.678C232.687 112.805 232.789 112.906 232.913 112.916C232.924 112.916 232.937 112.917 232.949 112.916ZM227.918 122.086C228.036 122.008 228.069 121.851 227.992 121.733L220.754 110.688C220.676 110.571 220.519 110.538 220.401 110.615C220.284 110.692 220.251 110.849 220.328 110.968L227.566 122.012C227.611 122.081 227.683 122.12 227.758 122.126C227.813 122.131 227.869 122.118 227.918 122.086ZM240.782 120.307C240.801 120.168 240.702 120.04 240.563 120.021L229.474 118.553C229.335 118.529 229.207 118.633 229.189 118.773C229.17 118.912 229.268 119.04 229.408 119.058L240.496 120.526C240.501 120.527 240.505 120.527 240.509 120.528C240.643 120.538 240.764 120.442 240.782 120.307ZM234.87 128.126C234.895 127.988 234.803 127.855 234.665 127.83L226.22 126.295C226.085 126.271 225.949 126.361 225.924 126.5C225.898 126.638 225.99 126.771 226.128 126.796L234.574 128.331C234.582 128.333 234.591 128.334 234.599 128.334C234.728 128.345 234.847 128.256 234.87 128.126ZM223.827 131.653C223.95 131.585 223.995 131.43 223.928 131.307L220.235 124.602C220.167 124.479 220.013 124.434 219.889 124.502C219.766 124.57 219.721 124.725 219.788 124.848L223.481 131.553C223.524 131.631 223.601 131.677 223.684 131.684C223.732 131.688 223.782 131.679 223.827 131.653ZM233.311 134.569C233.324 134.429 233.221 134.305 233.08 134.293L223.076 133.383C223.076 133.383 223.075 133.383 223.074 133.383C222.935 133.372 222.812 133.475 222.8 133.614C222.787 133.754 222.89 133.878 223.03 133.891L233.034 134.799C233.035 134.8 233.035 134.8 233.036 134.8C233.176 134.811 233.298 134.709 233.311 134.569ZM218.661 148.446C218.681 148.4 220.774 143.837 225.998 143.132C226.137 143.113 226.235 142.985 226.216 142.846C226.198 142.706 226.067 142.609 225.93 142.628C220.418 143.372 218.217 148.191 218.196 148.239C218.139 148.368 218.197 148.518 218.325 148.576C218.352 148.587 218.38 148.594 218.408 148.597C218.512 148.605 218.616 148.547 218.661 148.446ZM219.496 152.255C219.636 152.257 219.752 152.145 219.754 152.004C219.895 142.388 224.868 127.033 231.848 114.661C236.309 106.754 252.492 91.8167 252.655 91.6671C252.758 91.5718 252.765 91.4107 252.67 91.3071C252.575 91.2043 252.414 91.1964 252.31 91.292C252.146 91.4424 235.905 106.434 231.404 114.411C224.276 127.047 219.389 142.151 219.245 151.997C219.243 152.131 219.346 152.243 219.478 152.254C219.484 152.254 219.49 152.255 219.496 152.255ZM235.176 109.633C235.317 109.636 235.433 109.525 235.436 109.384L235.787 92.9102C235.79 92.7692 235.674 92.6471 235.538 92.6499C235.397 92.647 235.281 92.7584 235.278 92.899L234.927 109.373C234.924 109.509 235.027 109.622 235.16 109.633C235.165 109.633 235.171 109.633 235.176 109.633ZM231.71 114.776C231.842 114.73 231.913 114.585 231.866 114.452L226.785 99.8458C226.738 99.7126 226.593 99.642 226.461 99.6892C226.328 99.7355 226.258 99.8804 226.304 100.013L231.386 114.62C231.42 114.718 231.508 114.782 231.605 114.79C231.64 114.792 231.675 114.789 231.71 114.776ZM232.949 112.916L248.042 111.999C248.182 111.99 248.289 111.87 248.281 111.729C248.272 111.589 248.151 111.484 248.011 111.491L232.918 112.408C232.778 112.417 232.671 112.537 232.679 112.678C232.687 112.805 232.789 112.906 232.913 112.916C232.924 112.916 232.937 112.917 232.949 112.916ZM227.918 122.086C228.036 122.008 228.069 121.851 227.992 121.733L220.754 110.688C220.676 110.571 220.519 110.538 220.401 110.615C220.284 110.692 220.251 110.849 220.328 110.968L227.566 122.012C227.611 122.081 227.683 122.12 227.758 122.126C227.813 122.131 227.869 122.118 227.918 122.086ZM240.782 120.307C240.801 120.168 240.702 120.04 240.563 120.021L229.474 118.553C229.335 118.529 229.207 118.633 229.189 118.773C229.17 118.912 229.268 119.04 229.408 119.058L240.496 120.526C240.501 120.527 240.505 120.527 240.509 120.528C240.643 120.538 240.764 120.442 240.782 120.307ZM234.87 128.126C234.895 127.988 234.803 127.855 234.665 127.83L226.22 126.295C226.085 126.271 225.949 126.361 225.924 126.5C225.898 126.638 225.99 126.771 226.128 126.796L234.574 128.331C234.582 128.333 234.591 128.334 234.599 128.334C234.728 128.345 234.847 128.256 234.87 128.126ZM223.827 131.653C223.95 131.585 223.995 131.43 223.928 131.307L220.235 124.602C220.167 124.479 220.013 124.434 219.889 124.502C219.766 124.57 219.721 124.725 219.788 124.848L223.481 131.553C223.524 131.631 223.601 131.677 223.684 131.684C223.732 131.688 223.782 131.679 223.827 131.653ZM233.311 134.569C233.324 134.429 233.221 134.305 233.08 134.293L223.076 133.383C223.076 133.383 223.075 133.383 223.074 133.383C222.935 133.372 222.812 133.475 222.8 133.614C222.787 133.754 222.89 133.878 223.03 133.891L233.034 134.799C233.035 134.8 233.035 134.8 233.036 134.8C233.176 134.811 233.298 134.709 233.311 134.569ZM218.661 148.446C218.681 148.4 220.774 143.837 225.998 143.132C226.137 143.113 226.235 142.985 226.216 142.846C226.198 142.706 226.067 142.609 225.93 142.628C220.418 143.372 218.217 148.191 218.196 148.239C218.139 148.368 218.197 148.518 218.325 148.576C218.352 148.587 218.38 148.594 218.408 148.597C218.512 148.605 218.616 148.547 218.661 148.446Z" fill="black"/>
<path d="M226.682 145.645L215.204 144.711L215.01 147.086L216.011 147.167L217.028 160.301L222.36 160.735L225.489 147.939L226.489 148.02L226.682 145.645Z" fill="#A387E9"/>
<path opacity="0.3" d="M226.682 145.645L215.204 144.711L215.01 147.086L216.011 147.167L217.028 160.301L222.36 160.735L225.489 147.939L226.489 148.02L226.682 145.645Z" fill="white"/>
<mask id="mask0_54_1581" style="mask-type:luminance" maskUnits="userSpaceOnUse" x="66" y="38" width="34" height="34">
<path d="M83 70C91.2845 70 98 63.2845 98 55C98 46.7155 91.2845 40 83 40C74.7155 40 68 46.7155 68 55C68 63.2845 74.7155 70 83 70Z" fill="black" stroke="white" stroke-width="3" stroke-linejoin="round"/>
<path d="M83.0061 46V55.0075L89.3654 61.3675" stroke="white" stroke-width="3" stroke-linecap="round" stroke-linejoin="round"/>
</mask>
<g mask="url(#mask0_54_1581)">
<path d="M65 37H101V73H65V37Z" fill="#A387E9"/>
</g>
</svg>
