<svg width="251" height="244" viewBox="0 0 251 244" fill="none" xmlns="http://www.w3.org/2000/svg">
<path opacity="0.42" d="M225.061 36.5591C209.692 1.51782 172.804 -11.6747 143.698 11.8424C132.336 21.0225 125.242 35.6301 111.325 41.4895C98.2709 46.9857 81.7274 45.363 67.6065 48.3409C37.5406 54.6802 -2.92279 78.6106 0.166877 115.415C1.52146 131.55 12.4088 149.473 17.7827 164.566C23.9688 181.94 27.6848 203.665 44.0176 214.051C72.0507 231.876 105.863 217.303 131.142 202.925C144.723 195.2 152.212 190.449 166.843 193.097C180.393 195.55 192.591 204.215 205.829 193.958C215.768 186.257 216.587 170.643 224.931 161.479C234.333 151.152 243.868 150.404 248.75 134.88C254.673 116.05 245.948 104.282 240.046 87.454C234.174 70.7147 232.301 53.068 225.061 36.5591Z" fill="#E7DFDD"/>
<path opacity="0.42" d="M108.121 243.31C160.854 243.31 203.602 240.648 203.602 237.363C203.602 234.079 160.854 231.416 108.121 231.416C55.3885 231.416 12.6404 234.079 12.6404 237.363C12.6404 240.648 55.3885 243.31 108.121 243.31Z" fill="#E7DFDD"/>
<path d="M179.874 237.863H83.8639C77.2362 237.863 71.8629 232.49 71.8629 225.861V23.1739C71.8629 16.5455 77.2362 11.1723 83.8639 11.1723H179.874C186.502 11.1723 191.876 16.5455 191.876 23.1739V225.862C191.876 232.49 186.502 237.863 179.874 237.863Z" fill="#0E0B16"/>
<path d="M186.541 36.0638H77.1967V212.972H186.541V36.0638Z" fill="white" stroke="#263238" stroke-width="0.826093" stroke-miterlimit="10"/>
<path d="M148.626 107.7C157.882 98.4441 157.882 83.4375 148.626 74.1816C139.37 64.9258 124.363 64.9258 115.107 74.1816C105.852 83.4375 105.852 98.4441 115.107 107.7C124.363 116.956 139.37 116.956 148.626 107.7Z" fill="#BD62E0"/>
<path d="M162.982 201.843H100.756C100.169 201.843 99.6927 201.367 99.6927 200.78C99.6927 200.192 100.169 199.716 100.756 199.716H162.982C163.57 199.716 164.046 200.192 164.046 200.78C164.046 201.367 163.57 201.843 162.982 201.843Z" fill="#A239CA"/>
<path d="M165.014 140.726H98.7237C97.3574 140.726 96.2493 139.618 96.2493 138.251V130.434C96.2493 129.068 97.3574 127.96 98.7237 127.96H165.015C166.381 127.96 167.489 129.068 167.489 130.434V138.251C167.489 139.618 166.381 140.726 165.014 140.726Z" fill="#E0E0E0"/>
<path d="M165.014 164.609H98.7237C97.3574 164.609 96.2493 163.502 96.2493 162.135V154.318C96.2493 152.952 97.3574 151.843 98.7237 151.843H165.015C166.381 151.843 167.489 152.951 167.489 154.318V162.135C167.489 163.502 166.381 164.609 165.014 164.609Z" fill="#E0E0E0"/>
<path d="M143.669 102.761L136.697 98.7465V95.4283C137.648 94.3171 138.388 92.8804 138.839 91.2484C139.052 91.3213 139.3 91.3763 139.589 91.3763C140.454 91.3763 141.002 88.6949 141.092 86.7832C142.099 84.6509 140.727 83.4051 140.727 83.4051C140.727 83.4051 141.296 82.8356 141.676 80.5581C142.055 78.2807 140.347 79.2295 139.018 77.1417C137.69 75.0539 136.741 72.7765 132.376 72.7765C128.011 72.7765 126.682 76.3826 126.682 76.3826C126.682 76.3826 124.784 76.3826 123.456 76.7625C122.127 77.1417 121.748 81.5075 122.886 83.2154C123.401 83.9869 123.604 85.1821 123.674 86.2631C123.372 85.8912 123.055 85.7912 122.886 86.6312C122.506 88.5294 124.025 91.1861 124.025 91.1861L124.814 90.9606C125.255 92.713 126.033 94.2504 127.042 95.4271V98.7453L120.069 102.76C118.409 103.715 117.386 105.485 117.386 107.4V109.695C121.392 112.793 126.413 114.641 131.869 114.641C137.324 114.641 142.345 112.793 146.351 109.695V107.4C146.352 105.486 145.329 103.716 143.669 102.761Z" fill="white"/>
<path d="M105.275 161.435C105.115 161.435 104.972 161.375 104.845 161.255C104.719 161.135 104.656 160.991 104.656 160.825C104.656 160.714 104.687 160.61 104.749 160.511L105.858 158.727L103.695 158.8C103.504 158.8 103.354 158.744 103.246 158.63C103.138 158.516 103.084 158.379 103.084 158.219C103.084 158.064 103.138 157.929 103.246 157.812C103.354 157.695 103.503 157.636 103.695 157.636L105.83 157.719L104.73 155.945C104.668 155.84 104.637 155.732 104.637 155.621C104.637 155.455 104.7 155.311 104.827 155.191C104.954 155.071 105.096 155.011 105.257 155.011C105.466 155.011 105.632 155.119 105.756 155.335L106.81 157.239L107.854 155.344C107.996 155.117 108.175 155.002 108.39 155.002C108.55 155.002 108.689 155.064 108.806 155.187C108.923 155.311 108.982 155.456 108.982 155.622C108.982 155.72 108.954 155.822 108.899 155.926L107.78 157.719L109.953 157.636C110.143 157.636 110.291 157.694 110.396 157.807C110.5 157.921 110.553 158.058 110.553 158.219C110.553 158.379 110.5 158.516 110.396 158.63C110.291 158.744 110.143 158.8 109.953 158.8L107.771 158.727L108.852 160.492C108.914 160.597 108.944 160.705 108.944 160.815C108.944 160.982 108.881 161.127 108.755 161.25C108.628 161.372 108.488 161.434 108.334 161.434C108.125 161.434 107.961 161.324 107.844 161.102L106.809 159.244L105.783 161.102C105.655 161.325 105.485 161.435 105.275 161.435Z" fill="#A239CA"/>
<path d="M115.296 161.435C115.135 161.435 114.992 161.375 114.866 161.255C114.739 161.135 114.676 160.991 114.676 160.825C114.676 160.714 114.707 160.61 114.769 160.511L115.878 158.727L113.715 158.8C113.524 158.8 113.375 158.744 113.266 158.63C113.158 158.516 113.105 158.379 113.105 158.219C113.105 158.064 113.158 157.929 113.266 157.812C113.374 157.695 113.524 157.636 113.715 157.636L115.85 157.719L114.75 155.945C114.688 155.84 114.657 155.732 114.657 155.621C114.657 155.455 114.72 155.311 114.847 155.191C114.974 155.071 115.117 155.011 115.277 155.011C115.486 155.011 115.653 155.119 115.776 155.335L116.83 157.239L117.874 155.344C118.016 155.117 118.195 155.002 118.411 155.002C118.571 155.002 118.709 155.064 118.826 155.187C118.943 155.311 119.002 155.456 119.002 155.622C119.002 155.72 118.974 155.822 118.919 155.926L117.8 157.719L119.972 157.636C120.164 157.636 120.311 157.694 120.416 157.807C120.521 157.921 120.573 158.058 120.573 158.219C120.573 158.379 120.521 158.516 120.416 158.63C120.311 158.744 120.164 158.8 119.972 158.8L117.791 158.727L118.873 160.492C118.934 160.597 118.965 160.705 118.965 160.815C118.965 160.982 118.901 161.127 118.775 161.25C118.649 161.372 118.508 161.434 118.354 161.434C118.145 161.434 117.981 161.324 117.864 161.102L116.829 159.244L115.803 161.102C115.674 161.325 115.505 161.435 115.296 161.435Z" fill="#A239CA"/>
<path d="M125.315 161.435C125.155 161.435 125.012 161.375 124.886 161.255C124.759 161.135 124.696 160.991 124.696 160.825C124.696 160.714 124.727 160.61 124.788 160.511L125.898 158.727L123.734 158.8C123.543 158.8 123.393 158.744 123.286 158.63C123.178 158.516 123.124 158.379 123.124 158.219C123.124 158.064 123.178 157.929 123.286 157.812C123.393 157.695 123.543 157.636 123.734 157.636L125.87 157.719L124.77 155.945C124.708 155.84 124.678 155.732 124.678 155.621C124.678 155.455 124.741 155.311 124.867 155.191C124.993 155.071 125.137 155.011 125.297 155.011C125.507 155.011 125.673 155.119 125.796 155.335L126.85 157.239L127.895 155.344C128.037 155.117 128.215 155.002 128.431 155.002C128.591 155.002 128.729 155.064 128.846 155.187C128.963 155.311 129.022 155.456 129.022 155.622C129.022 155.72 128.994 155.822 128.938 155.926L127.82 157.719L129.992 157.636C130.184 157.636 130.331 157.694 130.436 157.807C130.541 157.921 130.593 158.058 130.593 158.219C130.593 158.379 130.541 158.516 130.436 158.63C130.331 158.744 130.184 158.8 129.992 158.8L127.811 158.727L128.893 160.492C128.954 160.597 128.985 160.705 128.985 160.815C128.985 160.982 128.921 161.127 128.795 161.25C128.668 161.372 128.528 161.434 128.374 161.434C128.164 161.434 128.001 161.324 127.884 161.102L126.849 159.244L125.823 161.102C125.695 161.325 125.525 161.435 125.315 161.435Z" fill="#A239CA"/>
<path d="M135.335 161.435C135.175 161.435 135.032 161.375 134.906 161.255C134.779 161.135 134.716 160.991 134.716 160.825C134.716 160.714 134.747 160.61 134.808 160.511L135.918 158.727L133.754 158.8C133.564 158.8 133.413 158.744 133.307 158.63C133.199 158.516 133.145 158.379 133.145 158.219C133.145 158.064 133.199 157.929 133.307 157.812C133.414 157.695 133.564 157.636 133.754 157.636L135.89 157.719L134.79 155.945C134.728 155.84 134.698 155.732 134.698 155.621C134.698 155.455 134.761 155.311 134.887 155.191C135.013 155.071 135.157 155.011 135.317 155.011C135.527 155.011 135.693 155.119 135.816 155.335L136.87 157.239L137.915 155.344C138.057 155.117 138.235 155.002 138.451 155.002C138.611 155.002 138.749 155.064 138.866 155.187C138.983 155.311 139.042 155.456 139.042 155.622C139.042 155.72 139.014 155.822 138.958 155.926L137.84 157.719L140.012 157.636C140.204 157.636 140.351 157.694 140.456 157.807C140.561 157.921 140.613 158.058 140.613 158.219C140.613 158.379 140.561 158.516 140.456 158.63C140.351 158.744 140.204 158.8 140.012 158.8L137.831 158.727L138.913 160.492C138.974 160.597 139.005 160.705 139.005 160.815C139.005 160.982 138.942 161.127 138.815 161.25C138.689 161.372 138.548 161.434 138.394 161.434C138.184 161.434 138.021 161.324 137.904 161.102L136.869 159.244L135.843 161.102C135.714 161.325 135.545 161.435 135.335 161.435Z" fill="#A239CA"/>
<path d="M145.355 161.435C145.195 161.435 145.052 161.375 144.926 161.255C144.799 161.135 144.736 160.991 144.736 160.825C144.736 160.714 144.767 160.61 144.828 160.511L145.938 158.727L143.774 158.8C143.583 158.8 143.433 158.744 143.326 158.63C143.218 158.516 143.164 158.379 143.164 158.219C143.164 158.064 143.218 157.929 143.326 157.812C143.433 157.695 143.583 157.636 143.774 157.636L145.91 157.719L144.81 155.945C144.748 155.84 144.718 155.732 144.718 155.621C144.718 155.455 144.781 155.311 144.907 155.191C145.033 155.071 145.177 155.011 145.337 155.011C145.547 155.011 145.713 155.119 145.836 155.335L146.89 157.239L147.935 155.344C148.076 155.117 148.255 155.002 148.471 155.002C148.631 155.002 148.769 155.064 148.886 155.187C149.004 155.311 149.062 155.456 149.062 155.622C149.062 155.72 149.034 155.822 148.978 155.926L147.86 157.719L150.032 157.636C150.224 157.636 150.371 157.694 150.476 157.807C150.581 157.921 150.633 158.058 150.633 158.219C150.633 158.379 150.581 158.516 150.476 158.63C150.371 158.744 150.224 158.8 150.032 158.8L147.851 158.727L148.933 160.492C148.995 160.597 149.025 160.705 149.025 160.815C149.025 160.982 148.961 161.127 148.835 161.25C148.709 161.372 148.568 161.434 148.415 161.434C148.205 161.434 148.041 161.324 147.924 161.102L146.889 159.244L145.863 161.102C145.734 161.325 145.565 161.435 145.355 161.435Z" fill="#A239CA"/>
<path d="M155.375 161.435C155.215 161.435 155.071 161.375 154.945 161.255C154.819 161.135 154.756 160.991 154.756 160.825C154.756 160.714 154.787 160.61 154.848 160.511L155.958 158.727L153.795 158.8C153.603 158.8 153.454 158.744 153.346 158.63C153.238 158.516 153.184 158.379 153.184 158.219C153.184 158.064 153.238 157.929 153.346 157.812C153.454 157.695 153.603 157.636 153.795 157.636L155.93 157.719L154.83 155.945C154.768 155.84 154.738 155.732 154.738 155.621C154.738 155.455 154.802 155.311 154.928 155.191C155.054 155.071 155.197 155.011 155.357 155.011C155.567 155.011 155.733 155.119 155.857 155.335L156.91 157.239L157.955 155.344C158.096 155.117 158.275 155.002 158.491 155.002C158.651 155.002 158.789 155.064 158.907 155.187C159.024 155.311 159.082 155.456 159.082 155.622C159.082 155.72 159.054 155.822 158.999 155.926L157.88 157.719L160.052 157.636C160.244 157.636 160.392 157.694 160.497 157.807C160.601 157.921 160.653 158.058 160.653 158.219C160.653 158.379 160.601 158.516 160.497 158.63C160.392 158.744 160.244 158.8 160.052 158.8L157.871 158.727L158.953 160.492C159.015 160.597 159.045 160.705 159.045 160.815C159.045 160.982 158.981 161.127 158.855 161.25C158.729 161.372 158.589 161.434 158.435 161.434C158.225 161.434 158.062 161.324 157.944 161.102L156.909 159.244L155.883 161.102C155.755 161.325 155.585 161.435 155.375 161.435Z" fill="#A239CA"/>
<path d="M186.541 36.2966H77.1967V43.1499H186.541V36.2966Z" fill="#A239CA"/>
<path d="M143.755 23.6822H119.982C119.087 23.6822 118.361 22.9565 118.361 22.0614C118.361 21.1664 119.087 20.4406 119.982 20.4406H143.755C144.65 20.4406 145.376 21.1664 145.376 22.0614C145.376 22.9565 144.65 23.6822 143.755 23.6822Z" fill="#A239CA" stroke="#263238" stroke-width="0.826093" stroke-miterlimit="10" stroke-linecap="round" stroke-linejoin="round"/>
<path d="M138.353 222.96C138.353 219.379 135.45 216.476 131.869 216.476C128.288 216.476 125.385 219.379 125.385 222.96C125.385 226.541 128.288 229.444 131.869 229.444C135.449 229.444 138.353 226.541 138.353 222.96Z" fill="#A239CA"/>
<path d="M135.155 219.674H128.583V226.246H135.155V219.674Z" fill="#A239CA" stroke="white" stroke-width="0.826093" stroke-miterlimit="10" stroke-linecap="round" stroke-linejoin="round"/>
<path d="M87.4512 109.778C89.0343 111.5 90.5471 113.283 92.0406 115.083C93.536 116.881 94.9944 118.711 96.4348 120.557C96.4978 120.638 96.4725 120.605 96.4873 120.629C96.4941 120.64 96.4954 120.657 96.504 120.665C96.5201 120.683 96.5287 120.713 96.5479 120.729C96.5763 120.775 96.6177 120.808 96.6591 120.851C96.7468 120.929 96.8666 120.989 97 121.014C97.0661 121.024 97.1359 121.034 97.2069 121.026C97.2452 121.031 97.2792 121.019 97.3194 121.018C97.3404 121.019 97.3558 121.008 97.3762 121.005C97.4077 120.992 97.3879 121.019 97.4732 120.969L99.0205 120.13C101.096 119.031 103.188 117.957 105.352 116.993L107.16 119.232C105.417 120.837 103.602 122.843 101.77 124.313L100.386 125.401C100.351 125.433 100.202 125.53 100.109 125.593C100.002 125.661 99.8976 125.735 99.7845 125.796C99.5603 125.92 99.3342 126.043 99.094 126.138C98.6196 126.343 98.1131 126.474 97.5998 126.553C96.5701 126.706 95.5003 126.602 94.5015 126.244C94.0036 126.065 93.5212 125.826 93.082 125.521C92.8572 125.375 92.6515 125.204 92.4464 125.032C92.3433 124.946 92.2512 124.85 92.1549 124.757L91.9091 124.508C90.2747 122.832 88.6582 121.139 87.0781 119.415C85.4969 117.691 83.9341 115.953 82.4418 114.151L87.4512 109.778Z" fill="#B55B52"/>
<path d="M104.51 118.357L105.95 113.732L109.74 115.621C109.74 115.621 109.188 118.995 106.429 119.58L104.51 118.357Z" fill="#B55B52"/>
<path d="M107.471 112.449L110.889 113.39L109.741 115.62L105.951 113.731L107.471 112.449Z" fill="#B55B52"/>
<path d="M67.5136 111.038C67.1009 113.003 66.5969 114.946 66.0688 116.883C65.5432 118.82 64.9693 120.746 64.3726 122.667L64.1503 123.387L64.0391 123.747C64.0156 123.826 64.0002 123.845 63.9792 123.898C63.9112 124.08 63.8705 124.278 63.8624 124.485C63.8519 124.897 63.9495 125.354 64.2188 125.752C64.2411 125.816 64.4542 126.04 64.6203 126.22L65.133 126.777L66.1442 127.91C66.81 128.674 67.4734 129.44 68.1035 130.246L65.9508 132.738C65.062 132.232 64.2071 131.687 63.3541 131.139L62.0872 130.303L61.4609 129.876C61.2478 129.728 61.0767 129.629 60.7357 129.346C59.5609 128.35 58.6831 126.936 58.3613 125.365C58.197 124.581 58.1569 123.764 58.2483 122.955C58.2724 122.761 58.3088 122.535 58.3385 122.368L58.4039 121.997L58.5349 121.255C58.8814 119.274 59.2508 117.298 59.6677 115.334C60.0828 113.37 60.522 111.411 61.052 109.475L67.5136 111.038Z" fill="#B55B52"/>
<path d="M65.9885 130.07L68.5371 128.767L69.6613 133.099C69.6613 133.099 67.6161 133.883 66.033 132.876L65.9885 130.07Z" fill="#B55B52"/>
<path d="M72.0584 127.382L72.1739 131.355L69.3282 133.216L68.3412 128.851L72.0584 127.382Z" fill="#B55B52"/>
<path d="M80.391 90.6145C80.4534 90.9208 80.6659 91.1358 80.866 91.095C81.0662 91.0542 81.178 90.7732 81.1156 90.4668C81.0532 90.1605 80.8407 89.9455 80.6406 89.9863C80.4411 90.027 80.3293 90.3081 80.391 90.6145Z" fill="#263238"/>
<path d="M80.6382 91.1413C80.6382 91.1413 81.6932 92.7658 82.6327 93.462C82.1935 94.0778 81.2262 94.034 81.2262 94.034L80.6382 91.1413Z" fill="#A02724"/>
<path d="M78.9247 89.1419C78.8802 89.1419 78.8351 89.1258 78.7999 89.0931C78.7258 89.0245 78.7209 88.9084 78.79 88.8337C79.4788 88.0881 80.3145 88.2209 80.3509 88.2265C80.451 88.2438 80.5177 88.3383 80.501 88.4383C80.4837 88.5378 80.388 88.6045 80.2904 88.5884C80.2626 88.5841 79.6091 88.4884 79.06 89.0826C79.0235 89.1221 78.9741 89.1419 78.9247 89.1419Z" fill="#263238"/>
<path d="M71.4834 94.9203C72.1647 97.7537 72.8448 102.945 70.413 104.835C70.413 104.835 71.363 107.71 77.8221 107.71C84.9243 107.71 81.2163 105.858 81.2163 105.858C77.3403 105.104 77.4398 101.737 78.1149 99.5357L71.4834 94.9203Z" fill="#B55B52"/>
<path d="M69.6563 105.361C69.2332 104.574 68.7669 103.673 69.7311 103.391C70.7917 103.08 77.6053 102.504 79.6066 103.087C78.9914 104.181 80.0329 105.526 80.0329 105.526L69.6563 105.361Z" fill="#A239CA"/>
<path d="M75.2976 237.902H79.7542L80.1977 228.932H75.7417L75.2976 237.902Z" fill="#B55B52"/>
<path d="M47.0182 236.666L51.5316 236.905L54.2748 228.069L49.7607 227.83L47.0182 236.666Z" fill="#B55B52"/>
<path d="M51.3938 236.548L47.1411 235.627C46.9866 235.593 46.8291 235.672 46.763 235.816L45.2868 239.018C45.1336 239.351 45.3362 239.741 45.6951 239.812C47.1849 240.107 47.9255 240.177 49.7953 240.581C50.946 240.83 53.5428 241.463 55.1321 241.807C56.6862 242.144 57.2686 240.625 56.6491 240.342C53.8708 239.073 52.7101 237.955 51.9578 236.913C51.8225 236.726 51.6205 236.597 51.3938 236.548Z" fill="#263238"/>
<path d="M79.5183 237.453H75.289C75.1309 237.453 74.9938 237.563 74.9592 237.718L74.1939 241.16C74.1148 241.517 74.3853 241.855 74.751 241.849C76.2767 241.823 78.4812 241.733 80.3991 241.733C82.6413 241.733 84.5778 241.855 87.2073 241.855C88.7972 241.855 89.2382 240.248 88.573 240.102C85.5432 239.44 83.0694 239.369 80.451 237.755C80.1669 237.579 79.8525 237.453 79.5183 237.453Z" fill="#263238"/>
<path d="M62.3443 106.145C58.9809 107.744 58.0668 117.439 58.0668 117.439L66.387 121.283C66.387 121.283 68.4519 118.241 68.6101 113.458C68.7756 108.446 65.7829 104.51 62.3443 106.145Z" fill="#4717F6"/>
<path opacity="0.4" d="M66.8576 112.124C65.3554 114.455 65.4975 118.063 66.0176 121.112L66.3851 121.284C66.3851 121.284 68.4525 118.239 68.6112 113.456C68.6205 113.158 68.6193 112.86 68.6088 112.571L66.8576 112.124Z" fill="black"/>
<path d="M85.5617 105.911C85.5617 105.911 89.6842 110.567 85.7909 139.386C79.5492 139.386 68.1127 139.386 65.0756 139.386C64.9329 136.206 66.9311 120.695 63.8636 105.711C63.8636 105.711 67.4147 104.999 70.7984 104.835C73.4452 104.708 77.2773 104.624 79.6041 104.835C82.6722 105.116 85.5617 105.911 85.5617 105.911Z" fill="#4717F6"/>
<path opacity="0.6" d="M85.5617 105.911C85.5617 105.911 89.6842 110.567 85.7909 139.386C79.5492 139.386 68.1127 139.386 65.0756 139.386C64.9329 136.206 66.9311 120.695 63.8636 105.711C63.8636 105.711 67.4147 104.999 70.7984 104.835C73.4452 104.708 77.2773 104.624 79.6041 104.835C82.6722 105.116 85.5617 105.911 85.5617 105.911Z" fill="#4717F6"/>
<path opacity="0.2" d="M87.3722 114.719L87.2931 114.65L83.1731 112.449C82.7544 118.793 85.5901 122.769 87.277 124.509C87.5093 120.444 87.5037 117.239 87.3722 114.719Z" fill="black"/>
<path opacity="0.2" d="M80.1971 228.935L79.9692 233.558H75.5107L75.7387 228.935H80.1971Z" fill="black"/>
<path opacity="0.2" d="M49.7594 227.832L54.2747 228.071L52.8583 232.625L48.343 232.387L49.7594 227.832Z" fill="black"/>
<path d="M70.0492 92.0407C71.0443 95.7536 71.4377 97.9773 73.7293 99.5209C77.1754 101.843 81.4665 99.178 81.6005 95.2428C81.7216 91.701 80.0736 86.2245 76.0895 85.4759C72.1641 84.739 69.0541 88.3278 70.0492 92.0407Z" fill="#B55B52"/>
<path d="M78.4422 139.386C78.4422 139.386 74.0468 168.984 71.6341 180.073C68.9917 192.215 54.8232 232.389 54.8232 232.389L47.8903 230.888C47.8903 230.888 56.7751 198.149 58.9925 181.173C59.8579 174.549 60.9024 163.87 62.2243 154.967C63.5041 146.345 65.0755 139.386 65.0755 139.386H78.4422Z" fill="#E0E0E0"/>
<path d="M56.483 230.074C56.5126 230.081 55.1908 232.582 55.1908 232.582L47.3906 230.893L48.0485 228.548L56.483 230.074Z" fill="#407BFF"/>
<path opacity="0.6" d="M56.483 230.074C56.5126 230.081 55.1908 232.582 55.1908 232.582L47.3906 230.893L48.0485 228.548L56.483 230.074Z" fill="white"/>
<path opacity="0.6" d="M75.6646 149.931C70.5823 150.928 71.1203 169.88 71.7318 179.629C73.1976 172.738 75.3428 159.479 76.8086 150.069C76.4713 149.9 76.0915 149.847 75.6646 149.931Z" fill="#F1F1F1"/>
<path d="M85.791 139.386C85.791 139.386 87.8583 168.343 87.4371 180.154C86.9991 192.439 81.1744 232.663 81.1744 232.663H74.6133C74.6133 232.663 74.3724 193.156 74.0809 181.092C73.7628 167.939 72.1747 139.386 72.1747 139.386H85.791Z" fill="#E0E0E0"/>
<path d="M82.4363 230.05C82.4666 230.05 82.0663 232.774 82.0663 232.774H74.0852L73.8696 230.342L82.4363 230.05Z" fill="#407BFF"/>
<path opacity="0.6" d="M82.4363 230.05C82.4666 230.05 82.0663 232.774 82.0663 232.774H74.0852L73.8696 230.342L82.4363 230.05Z" fill="white"/>
<path d="M83.1442 111.335C83.1442 119.106 87.2796 122.306 87.2796 122.306L94.0012 115.735C94.0012 115.735 91.7158 111.797 88.573 108.183C84.6896 103.717 83.1442 106.338 83.1442 111.335Z" fill="#4717F6"/>
<path opacity="0.2" d="M81.3653 96.6492C81.1948 97.1255 80.747 97.9328 79.6222 98.2546C77.9816 98.724 77.96 100.114 77.96 100.114L77.9803 100.14C79.5456 99.6234 80.8489 98.33 81.3653 96.6492Z" fill="black"/>
<path d="M79.6228 84.6612C81.0076 82.915 78.8772 82.8316 78.8772 82.8316C79.4307 80.7469 76.9389 81.8692 76.9389 81.8692C75.4429 79.8074 74.5991 82.3165 74.5991 82.3165C73.0475 80.5696 72.7621 83.4246 72.7621 83.4246C71.2062 81.2089 70.4137 84.4048 70.4137 84.4048C68.9807 82.104 68.1036 85.1016 68.1036 85.1016C65.1448 84.0423 66.5513 87.1171 66.5513 87.1171C64.0256 87.1881 66.0516 89.1419 66.0516 89.1419C63.0262 89.1493 65.694 90.8819 65.694 90.8819C63.2912 92.4582 66.3073 92.8826 66.3073 92.8826C64.3468 95.9482 67.7132 94.811 67.7132 94.811C66.3493 97.8451 69.3735 96.5084 69.3735 96.5084C69.1771 99.4362 70.8683 98.6394 71.6812 98.0971C71.8381 98.687 72.1309 99.3115 72.6744 99.3825C73.7294 99.5202 73.9345 97.5288 73.9345 97.5288C73.9345 97.5288 74.9135 98.2904 75.7344 97.8778C76.5554 97.4652 76.2459 96.4207 76.2459 96.4207C76.2459 96.4207 76.8741 96.8895 77.4498 96.4423C77.8018 96.1687 77.8037 94.2026 77.3546 93.5114L78.9625 92.882C78.9625 92.882 80.1558 92.714 79.6228 91.1407C79.0903 89.5681 79.5419 88.3259 79.5419 88.3259C81.3566 87.4754 79.868 86.4525 79.868 86.4525C81.9663 85.093 79.6228 84.6612 79.6228 84.6612Z" fill="#263238"/>
<path d="M76.3656 92.1964C76.6182 93.1711 77.2588 94.0086 77.9283 94.5071C78.9364 95.257 79.6887 94.5189 79.6171 93.3786C79.5528 92.352 78.9506 90.725 77.8388 90.4205C76.7442 90.1203 76.0771 91.082 76.3656 92.1964Z" fill="#B55B52"/>
<path d="M131.062 132.671H120.087C119.405 132.671 118.804 133.223 118.744 133.905C118.685 134.587 119.189 135.14 119.871 135.14H130.846C131.528 135.14 132.129 134.587 132.189 133.905C132.249 133.223 131.744 132.671 131.062 132.671Z" fill="#A239CA"/>
<path d="M142.204 132.671H135.835C135.153 132.671 134.552 133.223 134.492 133.905C134.433 134.587 134.937 135.14 135.619 135.14H141.988C142.669 135.14 143.27 134.587 143.33 133.905C143.39 133.223 142.886 132.671 142.204 132.671Z" fill="#A239CA"/>
<path d="M45.5566 26.8143L25.4008 28.5778L24.9882 23.8611C24.5602 18.9678 28.1928 14.6391 33.0855 14.211C37.9788 13.783 42.3075 17.4156 42.7356 22.3083L42.9752 25.0489L45.8833 24.7945L45.6437 22.0538C45.0754 15.557 39.3278 10.7347 32.831 11.303C26.3342 11.8712 21.5119 17.6188 22.0802 24.1156L22.4952 28.8595C20.1499 29.3165 18.4803 31.4797 18.6928 33.9127L20.1326 50.3697C20.3605 52.9721 22.6546 54.8968 25.2569 54.6695L47.821 52.6953C50.4233 52.468 52.348 50.1739 52.1207 47.5716L50.6809 31.1146C50.453 28.5117 48.1589 26.5864 45.5566 26.8143ZM36.9948 39.4954L37.4908 45.162C37.5723 46.0923 36.8842 46.9119 35.954 46.9935C35.0238 47.075 34.2041 46.3869 34.1226 45.4567L33.6266 39.79C32.8866 39.3342 32.3585 38.554 32.2769 37.6213C32.1398 36.0555 33.2986 34.675 34.8644 34.5378C36.4302 34.4007 37.8108 35.5595 37.9479 37.1253C38.0288 38.0574 37.644 38.9179 36.9948 39.4954Z" fill="#A387E9"/>
<path d="M134.55 193.939H122.337C120.929 193.939 119.887 192.797 120.01 191.389L120.789 182.481C120.912 181.072 122.154 179.93 123.562 179.93H135.776C137.184 179.93 138.226 181.072 138.103 182.481L137.324 191.389C137.2 192.797 135.959 193.939 134.55 193.939Z" fill="#D09AE8"/>
<path d="M135.884 181.785H134.31L134.696 177.377C134.927 174.729 132.961 172.574 130.313 172.574C127.664 172.574 125.321 174.729 125.089 177.377L124.704 181.785H123.13L123.515 177.377C123.823 173.861 126.934 171 130.45 171C133.967 171 136.577 173.861 136.27 177.377L135.884 181.785Z" fill="#D09AE8"/>
<path d="M142.775 183.841C140.227 184.859 137.994 186.342 136.465 188.03C135.569 187.267 134.295 186.737 132.767 186.495L132.588 186.466L132.51 187.364L132.61 187.401C134.117 187.971 135.344 188.982 136.159 190.324L136.286 190.535L136.428 190.308C137.995 187.8 140.279 185.699 142.861 184.391L142.948 184.347L143 183.751L142.775 183.841Z" fill="#263238"/>
<path d="M207.684 139.599C207.684 139.599 198.279 115.705 206.656 112.862C215.375 109.904 214.987 125.665 214.653 133.37C213.94 149.811 212.125 152.866 210.769 148.854L207.684 139.599ZM204.862 158.244C207.447 161.598 208.171 158.12 203.506 142.338C201.32 134.942 196.568 119.909 189.282 125.539C182.282 130.948 198.938 150.493 198.938 150.493L204.862 158.244ZM199.867 171.938C202.33 174.128 202.379 171.363 196.526 159.974C193.782 154.635 187.971 143.831 183.217 149.191C178.649 154.341 194.215 166.87 194.215 166.87L199.867 171.938ZM194.489 188.228C196.953 190.417 197.002 187.653 191.148 176.264C188.405 170.925 182.593 160.121 177.839 165.481C173.272 170.631 188.838 183.16 188.838 183.16L194.489 188.228ZM210.079 155.069C206.133 156.608 209.268 158.28 225.725 158.238C233.437 158.219 249.2 157.883 245.845 149.309C242.621 141.071 219.183 151.563 219.183 151.563L210.079 155.069ZM205.592 166.029C201.419 166.753 204.159 169.015 220.295 172.245C227.858 173.759 243.373 176.564 241.789 167.494C240.266 158.779 215.211 164.402 215.211 164.402L205.592 166.029ZM200.56 179.427C197.014 179.942 199.279 181.918 212.85 185.023C219.21 186.479 232.266 189.209 231.136 181.502C230.05 174.097 208.732 178.273 208.732 178.273L200.56 179.427ZM196.748 191.819C193.278 192.709 195.739 194.433 209.563 196.08C216.042 196.852 229.313 198.182 227.372 190.638C225.507 183.39 204.752 189.806 204.752 189.806L196.748 191.819ZM217.084 141.608C215.033 146.137 219.265 145.452 233.555 132.98C240.252 127.135 253.673 114.892 243.043 108.798C232.831 102.944 221.858 131.203 221.858 131.203L217.084 141.608ZM197.278 207.927C195.134 209.177 197.235 209.664 207.049 207.709C211.648 206.792 221.009 204.768 217.831 200.777C214.777 196.942 202.23 205.063 202.23 205.063L197.278 207.927Z" fill="#A387E9"/>
<path opacity="0.3" d="M207.684 139.599C207.684 139.599 198.279 115.705 206.656 112.862C215.375 109.904 214.987 125.665 214.653 133.37C213.94 149.811 212.125 152.866 210.769 148.854L207.684 139.599ZM204.862 158.244C207.447 161.598 208.171 158.12 203.506 142.338C201.32 134.942 196.568 119.909 189.282 125.539C182.282 130.948 198.938 150.493 198.938 150.493L204.862 158.244ZM199.867 171.938C202.33 174.128 202.379 171.363 196.526 159.974C193.782 154.635 187.971 143.831 183.217 149.191C178.649 154.341 194.215 166.87 194.215 166.87L199.867 171.938ZM194.489 188.228C196.953 190.417 197.002 187.653 191.148 176.264C188.405 170.925 182.593 160.121 177.839 165.481C173.272 170.631 188.838 183.16 188.838 183.16L194.489 188.228ZM210.079 155.069C206.133 156.608 209.268 158.28 225.725 158.238C233.437 158.219 249.2 157.883 245.845 149.309C242.621 141.071 219.183 151.563 219.183 151.563L210.079 155.069ZM205.592 166.029C201.419 166.753 204.159 169.015 220.295 172.245C227.858 173.759 243.373 176.564 241.789 167.494C240.266 158.779 215.211 164.402 215.211 164.402L205.592 166.029ZM200.56 179.427C197.014 179.942 199.279 181.918 212.85 185.023C219.21 186.479 232.266 189.209 231.136 181.502C230.05 174.097 208.732 178.273 208.732 178.273L200.56 179.427ZM196.748 191.819C193.278 192.709 195.739 194.433 209.563 196.08C216.042 196.852 229.313 198.182 227.372 190.638C225.507 183.39 204.752 189.806 204.752 189.806L196.748 191.819ZM217.084 141.608C215.033 146.137 219.265 145.452 233.555 132.98C240.252 127.135 253.673 114.892 243.043 108.798C232.831 102.944 221.858 131.203 221.858 131.203L217.084 141.608ZM197.278 207.927C195.134 209.177 197.235 209.664 207.049 207.709C211.648 206.792 221.009 204.768 217.831 200.777C214.777 196.942 202.23 205.063 202.23 205.063L197.278 207.927Z" fill="white"/>
<path d="M211.848 150.719L210.211 123.441L211.848 150.719ZM206.664 159.721L196.298 136.261L206.664 159.721ZM233.397 152.901L208.574 156.447L233.397 152.901ZM201.293 172.366L187.842 155.083L201.293 172.366ZM203.628 167.073L222.154 168.007L203.628 167.073ZM199.269 180.306L213.436 181.707L199.269 180.306ZM195.844 188.712L188.838 178.126L195.844 188.712ZM195.066 192.448L211.723 192.604L195.066 192.448ZM191.69 223.7C191.923 223.685 192.098 223.484 192.084 223.25C191.023 207.338 197.176 181.287 207.048 159.898C213.358 146.227 238.097 119.36 238.346 119.09C238.504 118.919 238.493 118.652 238.322 118.493C238.152 118.336 237.884 118.345 237.725 118.517C237.475 118.787 212.647 145.753 206.281 159.544C196.199 181.39 190.155 207.014 191.24 223.308C191.256 223.53 191.441 223.702 191.661 223.702C191.671 223.701 191.68 223.701 191.69 223.7ZM211.872 151.14C212.106 151.126 212.283 150.926 212.269 150.693L210.632 123.415C210.618 123.182 210.41 122.995 210.186 123.018C209.952 123.033 209.776 123.232 209.789 123.465L211.426 150.743C211.44 150.968 211.626 151.141 211.847 151.141C211.855 151.141 211.864 151.141 211.872 151.14ZM206.835 160.107C207.048 160.012 207.145 159.763 207.05 159.55L196.685 136.091C196.591 135.877 196.341 135.78 196.128 135.875C195.915 135.97 195.819 136.219 195.913 136.432L206.279 159.892C206.348 160.05 206.503 160.144 206.664 160.144C206.722 160.143 206.78 160.132 206.835 160.107ZM208.634 156.866L233.457 153.319C233.688 153.285 233.849 153.072 233.816 152.841C233.783 152.61 233.569 152.453 233.337 152.482L208.514 156.029C208.283 156.063 208.123 156.276 208.156 156.508C208.186 156.718 208.367 156.87 208.573 156.87C208.593 156.869 208.613 156.869 208.634 156.866ZM201.552 172.699C201.736 172.555 201.769 172.291 201.626 172.106L188.176 154.824C188.031 154.641 187.768 154.608 187.583 154.75C187.399 154.894 187.366 155.158 187.509 155.343L200.959 172.626C201.043 172.732 201.167 172.788 201.293 172.788C201.384 172.788 201.475 172.759 201.552 172.699ZM222.575 168.028C222.587 167.795 222.408 167.597 222.174 167.586L203.649 166.651C203.414 166.629 203.217 166.819 203.206 167.052C203.194 167.285 203.373 167.483 203.607 167.495L222.133 168.429C222.14 168.43 222.147 168.43 222.154 168.43C222.378 168.429 222.564 168.254 222.575 168.028ZM213.856 181.748C213.879 181.516 213.709 181.31 213.478 181.286L199.311 179.885C199.084 179.864 198.872 180.032 198.849 180.264C198.826 180.496 198.996 180.702 199.227 180.726L213.394 182.127C213.408 182.128 213.422 182.129 213.436 182.129C213.65 182.129 213.834 181.966 213.856 181.748ZM196.077 189.065C196.271 188.936 196.325 188.673 196.197 188.479L189.19 177.893C189.062 177.699 188.8 177.645 188.605 177.774C188.41 177.902 188.357 178.165 188.485 178.359L195.491 188.945C195.573 189.068 195.707 189.134 195.844 189.134C195.925 189.135 196.006 189.113 196.077 189.065ZM212.146 192.608C212.148 192.375 211.961 192.184 211.727 192.182L195.069 192.025C195.068 192.025 195.066 192.025 195.065 192.025C194.834 192.025 194.645 192.211 194.643 192.444C194.641 192.677 194.828 192.868 195.061 192.87L211.719 193.026C211.72 193.026 211.721 193.026 211.723 193.026C211.955 193.026 212.144 192.84 212.146 192.608ZM189.798 217.517C189.825 217.438 192.671 209.614 201.21 207.746C201.438 207.696 201.582 207.471 201.532 207.243C201.483 207.014 201.254 206.873 201.029 206.921C192.019 208.893 189.03 217.155 189.001 217.238C188.924 217.458 189.04 217.699 189.26 217.776C189.306 217.792 189.354 217.8 189.4 217.8C189.573 217.799 189.736 217.691 189.798 217.517ZM191.69 223.7C191.923 223.685 192.098 223.484 192.084 223.25C191.023 207.338 197.176 181.287 207.048 159.898C213.358 146.227 238.097 119.36 238.346 119.09C238.504 118.919 238.493 118.652 238.322 118.493C238.152 118.336 237.884 118.345 237.725 118.517C237.475 118.787 212.647 145.753 206.281 159.544C196.199 181.39 190.155 207.014 191.24 223.308C191.256 223.53 191.441 223.702 191.661 223.702C191.671 223.701 191.68 223.701 191.69 223.7ZM211.872 151.14C212.106 151.126 212.283 150.926 212.269 150.693L210.632 123.415C210.618 123.182 210.41 122.995 210.186 123.018C209.952 123.033 209.776 123.232 209.789 123.465L211.426 150.743C211.44 150.968 211.626 151.141 211.847 151.141C211.855 151.141 211.864 151.141 211.872 151.14ZM206.835 160.107C207.048 160.012 207.145 159.763 207.05 159.55L196.685 136.091C196.591 135.877 196.341 135.78 196.128 135.875C195.915 135.97 195.819 136.219 195.913 136.432L206.279 159.892C206.348 160.05 206.503 160.144 206.664 160.144C206.722 160.143 206.78 160.132 206.835 160.107ZM208.634 156.866L233.457 153.319C233.688 153.285 233.849 153.072 233.816 152.841C233.783 152.61 233.569 152.453 233.337 152.482L208.514 156.029C208.283 156.063 208.123 156.276 208.156 156.508C208.186 156.718 208.367 156.87 208.573 156.87C208.593 156.869 208.613 156.869 208.634 156.866ZM201.552 172.699C201.736 172.555 201.769 172.291 201.626 172.106L188.176 154.824C188.031 154.641 187.768 154.608 187.583 154.75C187.399 154.894 187.366 155.158 187.509 155.343L200.959 172.626C201.043 172.732 201.167 172.788 201.293 172.788C201.384 172.788 201.475 172.759 201.552 172.699ZM222.575 168.028C222.587 167.795 222.408 167.597 222.174 167.586L203.649 166.651C203.414 166.629 203.217 166.819 203.206 167.052C203.194 167.285 203.373 167.483 203.607 167.495L222.133 168.429C222.14 168.43 222.147 168.43 222.154 168.43C222.378 168.429 222.564 168.254 222.575 168.028ZM213.856 181.748C213.879 181.516 213.709 181.31 213.478 181.286L199.311 179.885C199.084 179.864 198.872 180.032 198.849 180.264C198.826 180.496 198.996 180.702 199.227 180.726L213.394 182.127C213.408 182.128 213.422 182.129 213.436 182.129C213.65 182.129 213.834 181.966 213.856 181.748ZM196.077 189.065C196.271 188.936 196.325 188.673 196.197 188.479L189.19 177.893C189.062 177.699 188.8 177.645 188.605 177.774C188.41 177.902 188.357 178.165 188.485 178.359L195.491 188.945C195.573 189.068 195.707 189.134 195.844 189.134C195.925 189.135 196.006 189.113 196.077 189.065ZM212.146 192.608C212.148 192.375 211.961 192.184 211.727 192.182L195.069 192.025C195.068 192.025 195.066 192.025 195.065 192.025C194.834 192.025 194.645 192.211 194.643 192.444C194.641 192.677 194.828 192.868 195.061 192.87L211.719 193.026C211.72 193.026 211.721 193.026 211.723 193.026C211.955 193.026 212.144 192.84 212.146 192.608ZM189.798 217.517C189.825 217.438 192.671 209.614 201.21 207.746C201.438 207.696 201.582 207.471 201.532 207.243C201.483 207.014 201.254 206.873 201.029 206.921C192.019 208.893 189.03 217.155 189.001 217.238C188.924 217.458 189.04 217.699 189.26 217.776C189.306 217.792 189.354 217.8 189.4 217.8C189.573 217.799 189.736 217.691 189.798 217.517Z" fill="#A387E9"/>
<path opacity="0.2" d="M211.848 150.719L210.211 123.441L211.848 150.719ZM206.664 159.721L196.298 136.261L206.664 159.721ZM233.397 152.901L208.574 156.447L233.397 152.901ZM201.293 172.366L187.842 155.083L201.293 172.366ZM203.628 167.073L222.154 168.007L203.628 167.073ZM199.269 180.306L213.436 181.707L199.269 180.306ZM195.844 188.712L188.838 178.126L195.844 188.712ZM195.066 192.448L211.723 192.604L195.066 192.448ZM191.69 223.7C191.923 223.685 192.098 223.484 192.084 223.25C191.023 207.338 197.176 181.287 207.048 159.898C213.358 146.227 238.097 119.36 238.346 119.09C238.504 118.919 238.493 118.652 238.322 118.493C238.152 118.336 237.884 118.345 237.725 118.517C237.475 118.787 212.647 145.753 206.281 159.544C196.199 181.39 190.155 207.014 191.24 223.308C191.256 223.53 191.441 223.702 191.661 223.702C191.671 223.701 191.68 223.701 191.69 223.7ZM211.872 151.14C212.106 151.126 212.283 150.926 212.269 150.693L210.632 123.415C210.618 123.182 210.41 122.995 210.186 123.018C209.952 123.033 209.776 123.232 209.789 123.465L211.426 150.743C211.44 150.968 211.626 151.141 211.847 151.141C211.855 151.141 211.864 151.141 211.872 151.14ZM206.835 160.107C207.048 160.012 207.145 159.763 207.05 159.55L196.685 136.091C196.591 135.877 196.341 135.78 196.128 135.875C195.915 135.97 195.819 136.219 195.913 136.432L206.279 159.892C206.348 160.05 206.503 160.144 206.664 160.144C206.722 160.143 206.78 160.132 206.835 160.107ZM208.634 156.866L233.457 153.319C233.688 153.285 233.849 153.072 233.816 152.841C233.783 152.61 233.569 152.453 233.337 152.482L208.514 156.029C208.283 156.063 208.123 156.276 208.156 156.508C208.186 156.718 208.367 156.87 208.573 156.87C208.593 156.869 208.613 156.869 208.634 156.866ZM201.552 172.699C201.736 172.555 201.769 172.291 201.626 172.106L188.176 154.824C188.031 154.641 187.768 154.608 187.583 154.75C187.399 154.894 187.366 155.158 187.509 155.343L200.959 172.626C201.043 172.732 201.167 172.788 201.293 172.788C201.384 172.788 201.475 172.759 201.552 172.699ZM222.575 168.028C222.587 167.795 222.408 167.597 222.174 167.586L203.649 166.651C203.414 166.629 203.217 166.819 203.206 167.052C203.194 167.285 203.373 167.483 203.607 167.495L222.133 168.429C222.14 168.43 222.147 168.43 222.154 168.43C222.378 168.429 222.564 168.254 222.575 168.028ZM213.856 181.748C213.879 181.516 213.709 181.31 213.478 181.286L199.311 179.885C199.084 179.864 198.872 180.032 198.849 180.264C198.826 180.496 198.996 180.702 199.227 180.726L213.394 182.127C213.408 182.128 213.422 182.129 213.436 182.129C213.65 182.129 213.834 181.966 213.856 181.748ZM196.077 189.065C196.271 188.936 196.325 188.673 196.197 188.479L189.19 177.893C189.062 177.699 188.8 177.645 188.605 177.774C188.41 177.902 188.357 178.165 188.485 178.359L195.491 188.945C195.573 189.068 195.707 189.134 195.844 189.134C195.925 189.135 196.006 189.113 196.077 189.065ZM212.146 192.608C212.148 192.375 211.961 192.184 211.727 192.182L195.069 192.025C195.068 192.025 195.066 192.025 195.065 192.025C194.834 192.025 194.645 192.211 194.643 192.444C194.641 192.677 194.828 192.868 195.061 192.87L211.719 193.026C211.72 193.026 211.721 193.026 211.723 193.026C211.955 193.026 212.144 192.84 212.146 192.608ZM189.798 217.517C189.825 217.438 192.671 209.614 201.21 207.746C201.438 207.696 201.582 207.471 201.532 207.243C201.483 207.014 201.254 206.873 201.029 206.921C192.019 208.893 189.03 217.155 189.001 217.238C188.924 217.458 189.04 217.699 189.26 217.776C189.306 217.792 189.354 217.8 189.4 217.8C189.573 217.799 189.736 217.691 189.798 217.517ZM191.69 223.7C191.923 223.685 192.098 223.484 192.084 223.25C191.023 207.338 197.176 181.287 207.048 159.898C213.358 146.227 238.097 119.36 238.346 119.09C238.504 118.919 238.493 118.652 238.322 118.493C238.152 118.336 237.884 118.345 237.725 118.517C237.475 118.787 212.647 145.753 206.281 159.544C196.199 181.39 190.155 207.014 191.24 223.308C191.256 223.53 191.441 223.702 191.661 223.702C191.671 223.701 191.68 223.701 191.69 223.7ZM211.872 151.14C212.106 151.126 212.283 150.926 212.269 150.693L210.632 123.415C210.618 123.182 210.41 122.995 210.186 123.018C209.952 123.033 209.776 123.232 209.789 123.465L211.426 150.743C211.44 150.968 211.626 151.141 211.847 151.141C211.855 151.141 211.864 151.141 211.872 151.14ZM206.835 160.107C207.048 160.012 207.145 159.763 207.05 159.55L196.685 136.091C196.591 135.877 196.341 135.78 196.128 135.875C195.915 135.97 195.819 136.219 195.913 136.432L206.279 159.892C206.348 160.05 206.503 160.144 206.664 160.144C206.722 160.143 206.78 160.132 206.835 160.107ZM208.634 156.866L233.457 153.319C233.688 153.285 233.849 153.072 233.816 152.841C233.783 152.61 233.569 152.453 233.337 152.482L208.514 156.029C208.283 156.063 208.123 156.276 208.156 156.508C208.186 156.718 208.367 156.87 208.573 156.87C208.593 156.869 208.613 156.869 208.634 156.866ZM201.552 172.699C201.736 172.555 201.769 172.291 201.626 172.106L188.176 154.824C188.031 154.641 187.768 154.608 187.583 154.75C187.399 154.894 187.366 155.158 187.509 155.343L200.959 172.626C201.043 172.732 201.167 172.788 201.293 172.788C201.384 172.788 201.475 172.759 201.552 172.699ZM222.575 168.028C222.587 167.795 222.408 167.597 222.174 167.586L203.649 166.651C203.414 166.629 203.217 166.819 203.206 167.052C203.194 167.285 203.373 167.483 203.607 167.495L222.133 168.429C222.14 168.43 222.147 168.43 222.154 168.43C222.378 168.429 222.564 168.254 222.575 168.028ZM213.856 181.748C213.879 181.516 213.709 181.31 213.478 181.286L199.311 179.885C199.084 179.864 198.872 180.032 198.849 180.264C198.826 180.496 198.996 180.702 199.227 180.726L213.394 182.127C213.408 182.128 213.422 182.129 213.436 182.129C213.65 182.129 213.834 181.966 213.856 181.748ZM196.077 189.065C196.271 188.936 196.325 188.673 196.197 188.479L189.19 177.893C189.062 177.699 188.8 177.645 188.605 177.774C188.41 177.902 188.357 178.165 188.485 178.359L195.491 188.945C195.573 189.068 195.707 189.134 195.844 189.134C195.925 189.135 196.006 189.113 196.077 189.065ZM212.146 192.608C212.148 192.375 211.961 192.184 211.727 192.182L195.069 192.025C195.068 192.025 195.066 192.025 195.065 192.025C194.834 192.025 194.645 192.211 194.643 192.444C194.641 192.677 194.828 192.868 195.061 192.87L211.719 193.026C211.72 193.026 211.721 193.026 211.723 193.026C211.955 193.026 212.144 192.84 212.146 192.608ZM189.798 217.517C189.825 217.438 192.671 209.614 201.21 207.746C201.438 207.696 201.582 207.471 201.532 207.243C201.483 207.014 201.254 206.873 201.029 206.921C192.019 208.893 189.03 217.155 189.001 217.238C188.924 217.458 189.04 217.699 189.26 217.776C189.306 217.792 189.354 217.8 189.4 217.8C189.573 217.799 189.736 217.691 189.798 217.517Z" fill="black"/>
<path d="M202.68 211.808H183.58V215.76H185.245L188.695 237.333H197.566L201.016 215.76H202.68V211.808Z" fill="#A387E9"/>
<path opacity="0.3" d="M202.68 211.808H183.58V215.76H185.245L188.695 237.333H197.566L201.016 215.76H202.68V211.808Z" fill="white"/>
</svg>
