<svg width="335" height="263" viewBox="0 0 335 263" fill="none" xmlns="http://www.w3.org/2000/svg">
<path opacity="0.42" d="M103.439 13.7727C114.805 1.70094 132.646 -0.773765 148.883 0.18733C199.892 3.2099 245.939 32.5953 285.768 65.8343C300.165 77.8642 314.38 90.8321 323.742 107.403C342.808 141.134 337.143 187.861 310.648 215.644C301.636 225.102 290.706 232.359 279.492 238.771C259.546 250.197 238.024 259.367 215.386 261.986C199.242 263.843 182.899 262.334 166.852 259.739C122.011 252.473 77.9991 236.426 41.1114 208.977C24.9322 196.938 9.68303 181.969 3.01368 162.492C-3.65566 143.014 0.612873 118.328 17.1345 106.799C23.9673 102.031 32.1347 99.8812 40.1348 97.8569C51.9054 94.8807 63.8705 91.9464 74.4932 85.8966C85.4661 79.6471 98.4585 67.5568 96.2834 53.7254C93.9565 38.8819 92.0849 25.8444 103.439 13.7727Z" fill="#E7DFDD"/>
<path opacity="0.42" d="M16.3069 77.3182C14.1524 81.3333 15.7921 86.0635 19.9693 87.8832C24.1464 89.703 29.2793 87.9233 31.4338 83.9081C33.5883 79.893 31.9486 75.1628 27.7714 73.3431C23.5942 71.5233 18.4614 73.303 16.3069 77.3182Z" fill="#E7DFDD"/>
<path opacity="0.42" d="M22.1847 32.4347C14.3507 47.0342 20.3137 64.2339 35.5034 70.8512C50.6931 77.4685 69.3575 70.9977 77.1915 56.3982C85.0255 41.7987 79.0625 24.5991 63.8728 17.9817C48.683 11.3644 30.0186 17.8352 22.1847 32.4347Z" fill="#E7DFDD"/>
<path d="M68.9378 24H28.7463C27.2301 24 26.001 25.2291 26.001 26.7453V62.1249C26.001 63.6411 27.2301 64.8702 28.7463 64.8702H68.9378C70.4539 64.8702 71.683 63.6411 71.683 62.1249V26.7453C71.683 25.2291 70.4539 24 68.9378 24Z" fill="white"/>
<rect x="26.2745" y="24.2758" width="45.4509" height="40.3722" rx="2.47076" stroke="#A239CA" stroke-width="0.549057"/>
<path d="M46.3697 32.4884V31.7971L47.9849 30.3016C48.1223 30.1686 48.2375 30.049 48.3306 29.9426C48.4251 29.8363 48.4967 29.7321 48.5455 29.6302C48.5942 29.5268 48.6186 29.4153 48.6186 29.2957C48.6186 29.1627 48.5883 29.0482 48.5277 28.9522C48.4672 28.8547 48.3845 28.7802 48.2796 28.7285C48.1747 28.6753 48.0558 28.6487 47.9229 28.6487C47.784 28.6487 47.6629 28.6768 47.5595 28.7329C47.4561 28.789 47.3763 28.8695 47.3202 28.9744C47.2641 29.0793 47.236 29.2041 47.236 29.3488H46.3254C46.3254 29.0519 46.3926 28.7942 46.527 28.5756C46.6614 28.357 46.8498 28.1878 47.092 28.0682C47.3343 27.9485 47.6134 27.8887 47.9295 27.8887C48.2545 27.8887 48.5374 27.9463 48.7781 28.0615C49.0204 28.1753 49.2087 28.3333 49.3431 28.5357C49.4775 28.7381 49.5447 28.97 49.5447 29.2314C49.5447 29.4028 49.5108 29.5719 49.4428 29.7388C49.3763 29.9057 49.2574 30.0911 49.0861 30.2949C48.9148 30.4973 48.6732 30.7403 48.3616 31.0239L47.6991 31.6731V31.7041H49.6046V32.4884H46.3697ZM52.0789 32.5881C51.6978 32.5866 51.3699 32.4928 51.0951 32.3067C50.8219 32.1206 50.6114 31.851 50.4637 31.498C50.3174 31.145 50.2451 30.7203 50.2465 30.224C50.2465 29.7292 50.3197 29.3075 50.4659 28.9589C50.6136 28.6103 50.8241 28.3451 51.0974 28.1635C51.3721 27.9803 51.6993 27.8887 52.0789 27.8887C52.4585 27.8887 52.7849 27.9803 53.0582 28.1635C53.3329 28.3466 53.5442 28.6125 53.6919 28.9611C53.8396 29.3082 53.9127 29.7292 53.9112 30.224C53.9112 30.7218 53.8374 31.1472 53.6897 31.5002C53.5434 31.8533 53.3337 32.1228 53.0604 32.309C52.7872 32.4951 52.46 32.5881 52.0789 32.5881ZM52.0789 31.7927C52.3389 31.7927 52.5464 31.662 52.7015 31.4005C52.8566 31.1391 52.9334 30.7469 52.9319 30.224C52.9319 29.8799 52.8965 29.5933 52.8256 29.3643C52.7561 29.1354 52.6572 28.9633 52.5287 28.8481C52.4016 28.7329 52.2517 28.6753 52.0789 28.6753C51.8204 28.6753 51.6136 28.8045 51.4585 29.063C51.3034 29.3215 51.2251 29.7085 51.2236 30.224C51.2236 30.5726 51.2584 30.8636 51.3278 31.097C51.3987 31.3289 51.4984 31.5032 51.6269 31.6199C51.7554 31.7351 51.9061 31.7927 52.0789 31.7927ZM54.5953 32.4884V31.7971L56.2105 30.3016C56.3479 30.1686 56.4631 30.049 56.5562 29.9426C56.6507 29.8363 56.7223 29.7321 56.7711 29.6302C56.8198 29.5268 56.8442 29.4153 56.8442 29.2957C56.8442 29.1627 56.8139 29.0482 56.7534 28.9522C56.6928 28.8547 56.6101 28.7802 56.5052 28.7285C56.4003 28.6753 56.2814 28.6487 56.1485 28.6487C56.0096 28.6487 55.8885 28.6768 55.7851 28.7329C55.6817 28.789 55.602 28.8695 55.5458 28.9744C55.4897 29.0793 55.4616 29.2041 55.4616 29.3488H54.551C54.551 29.0519 54.6182 28.7942 54.7526 28.5756C54.887 28.357 55.0754 28.1878 55.3176 28.0682C55.5599 27.9485 55.839 27.8887 56.1551 27.8887C56.4801 27.8887 56.763 27.9463 57.0037 28.0615C57.246 28.1753 57.4343 28.3333 57.5687 28.5357C57.7031 28.7381 57.7704 28.97 57.7704 29.2314C57.7704 29.4028 57.7364 29.5719 57.6684 29.7388C57.602 29.9057 57.4831 30.0911 57.3117 30.2949C57.1404 30.4973 56.8989 30.7403 56.5872 31.0239L55.9247 31.6731V31.7041H57.8302V32.4884H54.5953ZM58.3592 31.6908V30.9352L60.2535 27.9508H60.9049V28.9965H60.5194L59.3252 30.8865V30.922H62.0172V31.6908H58.3592ZM60.5371 32.4884V31.4604L60.5549 31.1258V27.9508H61.4544V32.4884H60.5371Z" fill="#A239CA"/>
<path d="M43.5177 31.2618C43.5177 31.3294 41.1134 31.3837 38.1479 31.3837C35.1814 31.3837 32.7776 31.3288 32.7776 31.2618C32.7776 31.1943 35.1814 31.14 38.1479 31.14C41.1128 31.1394 43.5177 31.1943 43.5177 31.2618Z" fill="#A239CA"/>
<path d="M62.8736 34.3305C62.8736 34.398 56.2679 34.4524 48.121 34.4524C39.9714 34.4524 33.3668 34.398 33.3668 34.3305C33.3668 34.263 39.9714 34.2086 48.121 34.2086C56.2679 34.2081 62.8736 34.263 62.8736 34.3305Z" fill="#A239CA"/>
<path d="M34.78 39.5284H32.8556V41.4529H34.78V39.5284Z" fill="#A239CA"/>
<path d="M39.5178 39.5284H37.5934V41.4529H39.5178V39.5284Z" fill="#A239CA"/>
<path d="M44.3424 39.4411H42.4179V41.3656H44.3424V39.4411Z" fill="#A239CA"/>
<path d="M48.9923 39.5284H47.0679V41.4529H48.9923V39.5284Z" fill="#A239CA"/>
<path d="M53.7302 39.5284H51.8057V41.4529H53.7302V39.5284Z" fill="#A239CA"/>
<path d="M58.4674 39.5284H56.543V41.4529H58.4674V39.5284Z" fill="#A239CA"/>
<path d="M63.2047 39.5284H61.2802V41.4529H63.2047V39.5284Z" fill="#A239CA"/>
<path d="M34.78 43.62H32.8556V45.5444H34.78V43.62Z" fill="#A239CA"/>
<path d="M39.5178 43.62H37.5934V45.5444H39.5178V43.62Z" fill="#A239CA"/>
<path d="M44.2551 43.62H42.3306V45.5444H44.2551V43.62Z" fill="#A239CA"/>
<path d="M48.9923 43.62H47.0679V45.5444H48.9923V43.62Z" fill="#A239CA"/>
<path d="M53.7302 43.62H51.8057V45.5444H53.7302V43.62Z" fill="#A239CA"/>
<path d="M58.5547 43.5327H56.6302V45.4572H58.5547V43.5327Z" fill="#A239CA"/>
<path d="M63.2047 43.62H61.2802V45.5444H63.2047V43.62Z" fill="#A239CA"/>
<path d="M34.78 47.7116H32.8556V49.636H34.78V47.7116Z" fill="#A239CA"/>
<path d="M39.6051 47.6243H37.6807V49.5487H39.6051V47.6243Z" fill="#A239CA"/>
<path d="M44.2551 47.7116H42.3306V49.636H44.2551V47.7116Z" fill="#A239CA"/>
<path d="M48.9923 47.7116H47.0679V49.636H48.9923V47.7116Z" fill="#A239CA"/>
<path d="M53.7302 47.7116H51.8057V49.636H53.7302V47.7116Z" fill="#A239CA"/>
<path d="M58.4674 47.7116H56.543V49.636H58.4674V47.7116Z" fill="#A239CA"/>
<path d="M63.2047 47.7116H61.2802V49.636H63.2047V47.7116Z" fill="#A239CA"/>
<path d="M34.78 51.8032H32.8556V53.7276H34.78V51.8032Z" fill="#A239CA"/>
<path d="M39.5178 51.8032H37.5934V53.7276H39.5178V51.8032Z" fill="#A239CA"/>
<path d="M44.2551 51.8032H42.3306V53.7276H44.2551V51.8032Z" fill="#A239CA"/>
<path d="M49.0797 51.7158H47.1552V53.6403H49.0797V51.7158Z" fill="#A239CA"/>
<path d="M53.7302 51.8032H51.8057V53.7276H53.7302V51.8032Z" fill="#A239CA"/>
<path d="M58.4674 51.8032H56.543V53.7276H58.4674V51.8032Z" fill="#A239CA"/>
<path d="M63.2047 51.8032H61.2802V53.7276H63.2047V51.8032Z" fill="#A239CA"/>
<path d="M34.78 55.8947H32.8556V57.8192H34.78V55.8947Z" fill="#A239CA"/>
<path d="M39.5178 55.8947H37.5934V57.8192H39.5178V55.8947Z" fill="#A239CA"/>
<path d="M44.2551 55.8947H42.3306V57.8192H44.2551V55.8947Z" fill="#A239CA"/>
<path d="M48.9923 55.8947H47.0679V57.8192H48.9923V55.8947Z" fill="#A239CA"/>
<path d="M53.7302 55.8947H51.8057V57.8192H53.7302V55.8947Z" fill="#A239CA"/>
<path d="M58.5547 55.8074H56.6302V57.7319H58.5547V55.8074Z" fill="#A239CA"/>
<path d="M63.2047 55.8947H61.2802V57.8192H63.2047V55.8947Z" fill="#A239CA"/>
<path d="M312.381 104.449C314.185 93.2269 306.55 82.6669 295.327 80.8629C284.105 79.059 273.545 86.6943 271.741 97.9169C269.937 109.139 277.572 119.7 288.795 121.503C300.017 123.307 310.577 115.672 312.381 104.449Z" fill="#4717F6"/>
<path d="M292.273 119.593C302.56 119.593 310.899 111.254 310.899 100.967C310.899 90.6799 302.56 82.3408 292.273 82.3408C281.986 82.3408 273.647 90.6799 273.647 100.967C273.647 111.254 281.986 119.593 292.273 119.593Z" fill="white"/>
<path d="M273.458 99.8494C273.458 99.8494 273.464 99.9526 273.464 100.154C273.464 100.361 273.462 100.657 273.461 101.045C273.46 101.241 273.458 101.46 273.456 101.701C273.466 101.942 273.5 102.205 273.523 102.49C273.548 102.775 273.577 103.082 273.607 103.41C273.624 103.74 273.724 104.079 273.783 104.446C274.017 105.912 274.58 107.664 275.526 109.544C276.482 111.417 277.908 113.403 279.915 115.14C280.168 115.355 280.423 115.572 280.681 115.793C280.952 115.996 281.238 116.186 281.52 116.387C281.81 116.578 282.081 116.805 282.394 116.972C282.703 117.146 283.015 117.321 283.33 117.499C283.488 117.587 283.647 117.675 283.807 117.764C283.974 117.837 284.142 117.911 284.31 117.986C284.648 118.135 284.989 118.285 285.333 118.437C285.681 118.578 286.048 118.678 286.41 118.802C286.777 118.911 287.134 119.066 287.519 119.131C288.281 119.291 289.049 119.5 289.854 119.558C290.255 119.598 290.656 119.664 291.064 119.684C291.473 119.69 291.885 119.696 292.299 119.701C292.506 119.701 292.715 119.716 292.923 119.702C293.132 119.684 293.34 119.665 293.55 119.647C293.969 119.606 294.393 119.585 294.814 119.526C295.65 119.357 296.511 119.246 297.342 118.961L297.974 118.775C298.079 118.744 298.187 118.716 298.291 118.68L298.598 118.556C299.009 118.39 299.422 118.222 299.838 118.055C300.244 117.867 300.637 117.644 301.041 117.439C301.239 117.33 301.449 117.239 301.64 117.114L302.214 116.74C303.004 116.271 303.708 115.665 304.441 115.085C304.777 114.761 305.115 114.434 305.455 114.107L305.709 113.86L305.942 113.591L306.404 113.05L306.869 112.506L307.284 111.919L307.698 111.327L307.906 111.031C307.969 110.928 308.026 110.821 308.087 110.716C308.325 110.294 308.564 109.871 308.804 109.446C309.002 108.999 309.2 108.552 309.399 108.102C310.128 106.275 310.585 104.315 310.743 102.299C310.849 100.279 310.654 98.2746 310.171 96.3678C310.032 95.896 309.894 95.4256 309.756 94.9572C309.574 94.5044 309.392 94.053 309.211 93.6043L309.074 93.2683L308.906 92.9472L308.573 92.3064L308.239 91.6697L307.848 91.0696L307.46 90.4716L307.265 90.175L307.045 89.8973C306.751 89.5281 306.459 89.1601 306.168 88.7943C305.516 88.1236 304.897 87.4312 304.175 86.8624L303.655 86.4164C303.482 86.267 303.286 86.1496 303.103 86.0152C302.729 85.7593 302.37 85.4864 301.991 85.2475C301.601 85.0268 301.213 84.8069 300.827 84.5883L300.539 84.4247C300.44 84.3759 300.337 84.3344 300.237 84.2883L299.635 84.0215C298.849 83.6305 298.009 83.4085 297.202 83.1309C296.792 83.0175 296.374 82.9415 295.964 82.8458C295.759 82.8003 295.554 82.7548 295.35 82.7094C295.145 82.6686 294.937 82.6564 294.731 82.6286C294.319 82.5804 293.91 82.5322 293.504 82.484C293.096 82.4514 292.69 82.4636 292.288 82.4514C291.481 82.4032 290.693 82.5112 289.917 82.5695C289.526 82.5838 289.151 82.691 288.774 82.7508C288.399 82.8268 288.021 82.8777 287.658 82.9727C287.297 83.078 286.939 83.1825 286.585 83.2857C286.408 83.3373 286.231 83.3889 286.056 83.4398C285.887 83.507 285.718 83.5742 285.549 83.6407C285.213 83.7758 284.881 83.9088 284.553 84.0412C284.221 84.1668 283.922 84.3555 283.611 84.5069C283.304 84.6691 282.995 84.8191 282.7 84.9861C282.415 85.1707 282.134 85.3527 281.856 85.5332C279.639 86.9934 277.966 88.7752 276.773 90.5076C275.589 92.2474 274.802 93.9112 274.379 95.334C274.271 95.689 274.128 96.0128 274.068 96.3379C273.996 96.659 273.928 96.959 273.865 97.2387C273.804 97.5184 273.737 97.7743 273.696 98.0119C273.666 98.2508 273.639 98.468 273.615 98.6629C273.565 99.0471 273.528 99.341 273.502 99.5467C273.477 99.7476 273.458 99.8494 273.458 99.8494C273.458 99.8494 273.463 99.7469 273.483 99.5467C273.504 99.3403 273.535 99.045 273.576 98.6588C273.597 98.4633 273.62 98.2447 273.647 98.0044C273.684 97.7655 273.749 97.5082 273.806 97.2272C273.867 96.9461 273.932 96.6441 274.001 96.3209C274.058 95.9944 274.199 95.6679 274.304 95.3109C274.717 93.8779 275.497 92.2005 276.679 90.4431C277.87 88.6938 279.547 86.8922 281.776 85.4124C282.056 85.2298 282.339 85.0452 282.626 84.8585C282.922 84.6888 283.233 84.5361 283.542 84.3718C283.856 84.2184 284.156 84.0269 284.491 83.8993C284.822 83.7649 285.157 83.6292 285.495 83.4927C285.665 83.4248 285.834 83.357 286.005 83.2884C286.182 83.2361 286.36 83.1839 286.538 83.1309C286.895 83.0257 287.256 82.9198 287.62 82.8125C287.986 82.7162 288.367 82.6632 288.745 82.5858C289.126 82.5241 289.504 82.4154 289.898 82.3998C290.682 82.3387 291.477 82.2281 292.291 82.2749C292.697 82.2865 293.108 82.2729 293.519 82.3055C293.929 82.353 294.343 82.4005 294.759 82.4487C294.966 82.4765 295.177 82.4888 295.384 82.5295C295.59 82.575 295.797 82.6198 296.004 82.6659C296.418 82.7616 296.841 82.8383 297.255 82.9524C298.071 83.2307 298.919 83.4547 299.715 83.8477L300.324 84.1165C300.425 84.1627 300.529 84.2041 300.628 84.2537L300.92 84.4186C301.31 84.6386 301.702 84.8599 302.097 85.0825C302.48 85.3235 302.845 85.5984 303.223 85.857C303.408 85.9928 303.606 86.1109 303.78 86.2616L304.307 86.7117C305.037 87.2859 305.663 87.9844 306.322 88.6626C306.617 89.0325 306.913 89.4038 307.21 89.7772L307.434 90.0575L307.631 90.3576L308.024 90.9617L308.419 91.5686L308.757 92.2121L309.095 92.8597L309.264 93.1841L309.403 93.5236C309.586 93.9777 309.77 94.4338 309.955 94.8914C310.094 95.3652 310.234 95.8403 310.374 96.3176C310.864 98.2454 311.062 100.273 310.955 102.315C310.794 104.353 310.331 106.335 309.594 108.183C309.392 108.637 309.191 109.09 308.991 109.541C308.748 109.971 308.507 110.398 308.266 110.824C308.205 110.93 308.147 111.038 308.083 111.142L307.873 111.442L307.453 112.04L307.034 112.633L306.563 113.183L306.095 113.73L305.86 114.001L305.602 114.25C305.259 114.581 304.917 114.91 304.577 115.238C303.836 115.824 303.123 116.434 302.324 116.908L301.743 117.285C301.55 117.412 301.338 117.503 301.138 117.613C300.729 117.82 300.332 118.045 299.92 118.234C299.5 118.403 299.082 118.571 298.667 118.738L298.356 118.863C298.251 118.899 298.143 118.927 298.037 118.959L297.398 119.146C296.558 119.432 295.687 119.543 294.843 119.712C294.417 119.771 293.988 119.792 293.565 119.832C293.354 119.851 293.142 119.868 292.933 119.886C292.722 119.9 292.512 119.884 292.302 119.885C291.883 119.878 291.468 119.871 291.055 119.864C290.644 119.843 290.238 119.776 289.834 119.734C289.021 119.674 288.247 119.461 287.478 119.297C287.089 119.23 286.729 119.073 286.36 118.963C285.995 118.837 285.625 118.734 285.274 118.591C284.927 118.437 284.583 118.285 284.243 118.133C284.073 118.058 283.904 117.983 283.735 117.908C283.575 117.818 283.415 117.728 283.256 117.639C282.939 117.459 282.624 117.281 282.313 117.105C281.998 116.935 281.725 116.706 281.434 116.512C281.15 116.309 280.861 116.117 280.589 115.91C280.33 115.688 280.073 115.467 279.819 115.25C277.803 113.492 276.375 111.486 275.423 109.596C274.481 107.699 273.927 105.934 273.705 104.459C273.647 104.091 273.551 103.749 273.537 103.418C273.51 103.089 273.485 102.781 273.462 102.494C273.442 102.208 273.411 101.944 273.406 101.703C273.411 101.461 273.416 101.242 273.421 101.045C273.431 100.657 273.439 100.36 273.445 100.153C273.45 99.9519 273.458 99.8494 273.458 99.8494Z" fill="#E7DFDD"/>
<path d="M300.757 101.477C300.757 101.493 300.522 101.508 300.095 101.521C299.626 101.53 299.015 101.542 298.274 101.557C296.729 101.578 294.575 101.593 292.145 101.597H292.025V101.477C292.025 101.088 292.024 100.678 292.024 100.262C292.024 97.5476 292.038 95.0909 292.06 93.3124C292.075 92.4551 292.088 91.7457 292.098 91.2068C292.113 90.7092 292.129 90.4343 292.145 90.4343C292.162 90.4343 292.178 90.7092 292.193 91.2068C292.202 91.7457 292.216 92.4551 292.231 93.3124C292.253 95.0909 292.267 97.5476 292.267 100.262C292.267 100.678 292.267 101.088 292.267 101.477L292.147 101.357C294.577 101.361 296.73 101.375 298.275 101.397C299.016 101.412 299.627 101.424 300.096 101.434C300.522 101.447 300.757 101.462 300.757 101.477Z" fill="#4717F6"/>
<path d="M292.202 85.242C292.269 85.242 292.324 85.9466 292.324 86.8155C292.324 87.6851 292.269 88.3897 292.202 88.3897C292.136 88.3897 292.081 87.6851 292.081 86.8155C292.081 85.9466 292.136 85.242 292.202 85.242Z" fill="#4717F6"/>
<path d="M300.74 87.7699C300.787 87.8175 300.334 88.3469 299.728 88.9524C299.122 89.5586 298.593 90.0107 298.546 89.9639C298.498 89.9163 298.951 89.3869 299.557 88.7814C300.163 88.1752 300.692 87.7224 300.74 87.7699Z" fill="#4717F6"/>
<path d="M305.731 93.2228C305.762 93.2839 305.168 93.6417 304.44 94.0843C303.712 94.5262 303.12 94.8887 303.08 94.8337C303.042 94.7807 303.576 94.3246 304.314 93.8772C305.052 93.4285 305.702 93.1645 305.731 93.2228Z" fill="#4717F6"/>
<path d="M308.657 101.315C308.657 101.382 307.696 101.437 306.511 101.437C305.326 101.437 304.365 101.382 304.365 101.315C304.365 101.248 305.325 101.193 306.511 101.193C307.696 101.193 308.657 101.248 308.657 101.315Z" fill="#4717F6"/>
<path d="M278.896 101.029C278.896 101.095 277.989 101.15 276.869 101.15C275.75 101.15 274.842 101.096 274.842 101.029C274.842 100.961 275.75 100.907 276.869 100.907C277.989 100.907 278.896 100.961 278.896 101.029Z" fill="#4717F6"/>
<path d="M281.001 107.053C281.045 107.103 280.36 107.726 279.47 108.443C278.58 109.159 277.826 109.697 277.786 109.643C277.746 109.59 278.432 108.968 279.318 108.254C280.204 107.54 280.957 107.003 281.001 107.053Z" fill="#4717F6"/>
<path d="M286.193 111.712C286.249 111.752 285.741 112.534 285.151 113.519C284.559 114.502 284.107 115.318 284.044 115.287C283.986 115.259 284.344 114.388 284.942 113.393C285.54 112.399 286.142 111.673 286.193 111.712Z" fill="#4717F6"/>
<path d="M292.202 117.721C292.136 117.721 292.081 116.76 292.081 115.575C292.081 114.39 292.136 113.428 292.202 113.428C292.269 113.428 292.324 114.389 292.324 115.575C292.324 116.76 292.269 117.721 292.202 117.721Z" fill="#4717F6"/>
<path d="M301.454 114.861C301.42 114.915 300.58 114.432 299.684 113.649C298.785 112.868 298.193 112.103 298.242 112.061C298.294 112.015 298.959 112.698 299.844 113.466C300.725 114.238 301.493 114.803 301.454 114.861Z" fill="#4717F6"/>
<path d="M305.796 110.186C305.748 110.233 305.112 109.673 304.374 108.936C303.636 108.198 303.077 107.562 303.124 107.515C303.172 107.467 303.808 108.026 304.546 108.764C305.283 109.502 305.842 110.138 305.796 110.186Z" fill="#4717F6"/>
<path d="M280.804 95.2579C280.757 95.3054 280.195 94.8201 279.551 94.1752C278.905 93.5297 278.42 92.9683 278.468 92.9208C278.515 92.8732 279.077 93.3579 279.722 94.0035C280.366 94.6483 280.851 95.2104 280.804 95.2579Z" fill="#4717F6"/>
<path d="M286.162 89.6136C286.115 89.6611 285.563 89.188 284.929 88.5574C284.295 87.9267 283.82 87.3769 283.868 87.3294C283.915 87.2819 284.466 87.755 285.1 88.3856C285.734 89.0162 286.209 89.5661 286.162 89.6136Z" fill="#4717F6"/>
<path d="M275.595 101.15C275.595 91.2353 283.343 83.1329 293.114 82.56C292.747 82.5383 292.379 82.5247 292.007 82.5247C281.72 82.5247 273.381 90.864 273.381 101.151C273.381 111.437 281.72 119.776 292.007 119.776C292.379 119.776 292.747 119.762 293.114 119.741C283.342 119.166 275.595 111.065 275.595 101.15Z" fill="#E7DFDD"/>
<path d="M253.261 240.539H110.621C107.159 240.539 104.352 237.732 104.352 234.27V26.5553C104.352 23.0927 107.159 20.2865 110.621 20.2865H253.261C256.724 20.2865 259.53 23.0934 259.53 26.5553V234.27C259.53 237.732 256.723 240.539 253.261 240.539Z" fill="#E7DFDD"/>
<path d="M253.261 240.539C253.261 240.539 253.423 240.526 253.742 240.507C254.06 240.486 254.534 240.413 255.139 240.236C255.736 240.04 256.461 239.71 257.189 239.124C257.907 238.537 258.628 237.678 259.071 236.531C259.305 235.964 259.436 235.318 259.478 234.636C259.514 233.952 259.487 233.224 259.493 232.464C259.491 230.943 259.489 229.279 259.487 227.477C259.482 223.873 259.478 219.715 259.473 215.033C259.461 196.306 259.445 169.209 259.425 135.729C259.42 118.988 259.414 100.651 259.407 80.965C259.405 71.1222 259.402 60.942 259.4 50.4563C259.398 45.2132 259.398 39.894 259.396 34.5015C259.393 31.8066 259.389 29.0941 259.385 26.3639C259.358 25.0246 258.845 23.7111 258.001 22.6664C257.139 21.6366 255.944 20.8709 254.619 20.5817C253.957 20.431 253.284 20.4175 252.584 20.4263C251.89 20.4263 251.195 20.4263 250.499 20.4263C249.107 20.4263 247.711 20.427 246.311 20.427C243.51 20.4276 240.693 20.4276 237.859 20.4283C232.191 20.429 226.459 20.4297 220.666 20.4304C209.08 20.4317 197.25 20.4331 185.207 20.4344C161.121 20.4351 136.183 20.4365 110.64 20.4371C109.078 20.4317 107.531 21.0481 106.409 22.1267C105.278 23.1945 104.585 24.7055 104.519 26.2539C104.488 29.4131 104.511 32.5886 104.504 35.7397C104.504 42.0479 104.503 48.3147 104.503 54.5353C104.502 66.9773 104.502 79.2367 104.501 91.2829C104.498 115.375 104.495 138.614 104.492 160.751C104.487 182.889 104.483 203.925 104.478 223.612C104.477 226.073 104.477 228.513 104.476 230.931C104.481 232.138 104.462 233.35 104.488 234.537C104.528 235.713 104.931 236.861 105.601 237.812C106.271 238.767 107.215 239.512 108.279 239.957C108.815 240.173 109.377 240.313 109.946 240.383C110.515 240.433 111.101 240.422 111.684 240.422C114.014 240.423 116.322 240.424 118.606 240.424C127.744 240.428 136.514 240.431 144.884 240.434C178.366 240.454 205.459 240.471 224.185 240.482C233.545 240.494 240.814 240.503 245.745 240.51C248.207 240.517 250.086 240.522 251.352 240.525C252.614 240.529 253.261 240.539 253.261 240.539C253.261 240.539 252.614 240.549 251.351 240.555C250.086 240.558 248.207 240.563 245.744 240.57C240.813 240.576 233.544 240.585 224.184 240.598C205.458 240.61 178.365 240.625 144.884 240.646C136.513 240.649 127.744 240.652 118.605 240.655C116.321 240.656 114.013 240.657 111.684 240.657C111.102 240.657 110.519 240.67 109.92 240.617C109.328 240.545 108.744 240.4 108.188 240.175C107.081 239.714 106.101 238.941 105.404 237.95C104.707 236.962 104.287 235.767 104.245 234.546C104.217 233.338 104.237 232.142 104.23 230.93C104.23 228.512 104.229 226.072 104.228 223.611C104.224 203.924 104.219 182.888 104.215 160.75C104.212 138.613 104.209 115.373 104.206 91.2816C104.205 79.2353 104.204 66.976 104.204 54.534C104.204 48.3133 104.203 42.0465 104.203 35.7383C104.21 32.5811 104.187 29.4267 104.219 26.2383C104.288 24.6139 105.015 23.0275 106.201 21.9081C107.378 20.7772 109.003 20.1296 110.64 20.1358C136.182 20.1364 161.12 20.1378 185.207 20.1391C197.25 20.1405 209.08 20.1419 220.666 20.1425C226.459 20.1432 232.191 20.1439 237.858 20.1453C240.692 20.1459 243.509 20.1459 246.31 20.1466C247.71 20.1466 249.107 20.1473 250.498 20.1473C251.194 20.1473 251.889 20.1473 252.583 20.1473C253.269 20.1391 253.991 20.152 254.68 20.3102C256.065 20.6143 257.314 21.414 258.213 22.4906C259.094 23.5814 259.63 24.956 259.658 26.3544C259.66 29.0873 259.663 31.8032 259.666 34.5008C259.664 39.8926 259.664 45.2125 259.662 50.4557C259.66 60.942 259.657 71.1215 259.655 80.9643C259.648 100.65 259.642 118.987 259.637 135.728C259.616 169.209 259.6 196.305 259.589 215.033C259.584 219.714 259.58 223.872 259.575 227.477C259.573 229.279 259.571 230.942 259.569 232.463C259.559 233.224 259.585 233.947 259.546 234.639C259.501 235.329 259.366 235.98 259.128 236.553C258.675 237.709 257.944 238.571 257.219 239.159C256.482 239.745 255.75 240.073 255.148 240.264C254.539 240.437 254.062 240.505 253.743 240.522C253.423 240.537 253.261 240.539 253.261 240.539Z" fill="#263238"/>
<g opacity="0.3">
<path d="M124.566 233.824H254.803L253.375 206.735V192.316L124.566 212.443V233.824Z" fill="#0E0B16"/>
</g>
<g opacity="0.3">
<path d="M221.098 20.7358L224.057 29.5136V33.8139H220.72L221.098 20.7358Z" fill="#0E0B16"/>
</g>
<path d="M111.273 29.111V231.435H216.82H252.609V29.111H111.273Z" fill="white"/>
<path d="M252.609 195.257C252.609 195.257 252.601 194.995 252.598 194.479C252.595 193.96 252.592 193.192 252.587 192.18C252.582 190.149 252.576 187.142 252.567 183.224C252.558 175.383 252.546 163.9 252.529 149.324C252.516 120.165 252.497 78.6298 252.475 29.111L252.608 29.2441C210.849 29.2488 162.525 29.2549 111.272 29.2611L111.422 29.111C111.422 29.1681 111.422 29.2291 111.422 29.2909C111.407 107.068 111.394 178.096 111.384 231.435L111.272 231.322C143.785 231.343 170.172 231.36 188.432 231.372C197.559 231.385 204.655 231.395 209.472 231.402C211.878 231.409 213.713 231.415 214.951 231.419C216.186 231.424 216.819 231.436 216.819 231.436C216.819 231.436 216.186 231.447 214.951 231.453C213.713 231.456 211.877 231.461 209.472 231.469C204.655 231.476 197.559 231.486 188.432 231.499C170.171 231.511 143.785 231.529 111.272 231.549H111.159V231.436C111.149 178.097 111.136 107.069 111.122 29.2923C111.122 29.2305 111.122 29.1687 111.122 29.1124V28.9624H111.272C162.525 28.9685 210.849 28.9746 252.608 28.9793H252.741V29.1124C252.719 78.6312 252.7 120.166 252.687 149.326C252.671 163.902 252.658 175.385 252.65 183.226C252.641 187.143 252.634 190.15 252.629 192.181C252.624 193.193 252.621 193.962 252.618 194.48C252.616 194.995 252.609 195.257 252.609 195.257Z" fill="#263238"/>
<path d="M221.098 35.5421H149.585V19.0944C149.585 16.7233 151.508 14.8002 153.879 14.8002H216.803C219.174 14.8002 221.098 16.7226 221.098 19.0944V35.5421Z" fill="#263238"/>
<path d="M194.442 7H176.241L178.368 22.6012H192.078L194.442 7Z" fill="#263238"/>
<path d="M216.503 14.8003C216.503 14.8831 202.55 14.9503 185.342 14.9503C168.128 14.9503 154.179 14.8831 154.179 14.8003C154.179 14.7174 168.128 14.6502 185.342 14.6502C202.55 14.6502 216.503 14.7174 216.503 14.8003Z" fill="#455A64"/>
<path d="M151.186 32.1955C151.103 32.1955 151.036 29.2617 151.036 25.6429C151.036 22.0228 151.103 19.0897 151.186 19.0897C151.269 19.0897 151.336 22.0228 151.336 25.6429C151.336 29.2617 151.269 32.1955 151.186 32.1955Z" fill="#455A64"/>
<path d="M218.782 30.6438C218.699 30.6438 218.632 27.9801 218.632 24.6947C218.632 21.4085 218.699 18.7455 218.782 18.7455C218.865 18.7455 218.932 21.4085 218.932 24.6947C218.932 27.9801 218.865 30.6438 218.782 30.6438Z" fill="#455A64"/>
<path d="M215.334 33.4032C215.334 33.486 201.011 33.5532 183.347 33.5532C165.677 33.5532 151.358 33.486 151.358 33.4032C151.358 33.3203 165.678 33.2531 183.347 33.2531C201.011 33.2531 215.334 33.3203 215.334 33.4032Z" fill="#455A64"/>
<path d="M234.715 67.9405H156.66V72.7384H234.715V67.9405Z" fill="#E0E0E0"/>
<path d="M192.071 77.7413H156.66V82.5059H192.071V77.7413Z" fill="#E0E0E0"/>
<path d="M146.095 83.9375H133.293C131.845 83.9375 130.671 82.7638 130.671 81.3152V68.5128C130.671 67.0649 131.844 65.8905 133.293 65.8905H146.095C147.543 65.8905 148.718 67.0642 148.718 68.5128V81.3152C148.718 82.7638 147.544 83.9375 146.095 83.9375Z" fill="#A239CA"/>
<path d="M139.436 79.2136L134.38 75.307L135.743 73.5428L139.133 76.1623L143.954 70.6151L145.637 72.0779L139.436 79.2136Z" fill="white"/>
<path d="M234.715 97.6468H156.66V102.445H234.715V97.6468Z" fill="#E0E0E0"/>
<path d="M192.071 107.448H156.66V112.212H192.071V107.448Z" fill="#E0E0E0"/>
<path d="M146.095 113.644H133.293C131.845 113.644 130.671 112.47 130.671 111.021V98.2191C130.671 96.7712 131.844 95.5968 133.293 95.5968H146.095C147.543 95.5968 148.718 96.7705 148.718 98.2191V111.021C148.718 112.47 147.544 113.644 146.095 113.644Z" fill="#A239CA"/>
<path d="M139.436 108.92L134.38 105.013L135.743 103.249L139.133 105.869L143.954 100.321L145.637 101.784L139.436 108.92Z" fill="white"/>
<path d="M234.715 129.475H156.66V134.273H234.715V129.475Z" fill="#E0E0E0"/>
<path d="M192.071 139.276H156.66V144.04H192.071V139.276Z" fill="#E0E0E0"/>
<path d="M234.715 158.9H156.66V163.698H234.715V158.9Z" fill="#E0E0E0"/>
<path d="M192.071 168.701H156.66V173.466H192.071V168.701Z" fill="#E0E0E0"/>
<path d="M146.095 145.473H133.293C131.845 145.473 130.671 144.299 130.671 142.85V130.048C130.671 128.6 131.844 127.426 133.293 127.426H146.095C147.543 127.426 148.718 128.599 148.718 130.048V142.85C148.718 144.298 147.544 145.473 146.095 145.473Z" fill="#A239CA"/>
<path d="M139.436 140.749L134.38 136.842L135.743 135.078L139.133 137.698L143.954 132.15L145.637 133.612L139.436 140.749Z" fill="white"/>
<path d="M146.353 176.041H133.035C131.563 176.041 130.365 174.844 130.365 173.371V160.053C130.365 158.581 131.563 157.383 133.035 157.383H146.353C147.826 157.383 149.024 158.581 149.024 160.053V173.371C149.024 174.844 147.826 176.041 146.353 176.041ZM133.036 157.995C131.901 157.995 130.978 158.918 130.978 160.053V173.371C130.978 174.506 131.901 175.429 133.036 175.429H146.354C147.489 175.429 148.412 174.506 148.412 173.371V160.053C148.412 158.919 147.489 157.995 146.354 157.995H133.036Z" fill="#A239CA"/>
<path d="M234.715 192.559H156.66V197.357H234.715V192.559Z" fill="#E0E0E0"/>
<path d="M192.071 202.36H156.66V207.125H192.071V202.36Z" fill="#E0E0E0"/>
<path d="M146.353 209.7H133.035C131.563 209.7 130.365 208.503 130.365 207.03V193.712C130.365 192.24 131.563 191.042 133.035 191.042H146.353C147.826 191.042 149.024 192.24 149.024 193.712V207.03C149.024 208.503 147.826 209.7 146.353 209.7ZM133.036 191.654C131.901 191.654 130.978 192.577 130.978 193.712V207.03C130.978 208.164 131.901 209.088 133.036 209.088H146.354C147.489 209.088 148.412 208.165 148.412 207.03V193.712C148.412 192.578 147.489 191.654 146.354 191.654H133.036Z" fill="#A239CA"/>
<path d="M225.087 49.3621H147.266V56.0246H225.087V49.3621Z" fill="#A239CA"/>
<path d="M82.1312 132.216C82.1312 132.216 92.6286 146.955 94.5942 147.608C101.331 149.846 108.953 131.562 108.953 131.562L104.201 134.278L97.423 139.865L89.401 128.899L82.1312 133.083" fill="#A57E6D"/>
<path d="M95.8804 144.346C95.8562 144.35 95.7861 144.079 95.7787 143.63C95.7697 143.183 95.8451 142.556 96.0824 141.909C96.3222 141.263 96.6718 140.737 96.9693 140.403C97.2669 140.066 97.4952 139.906 97.5116 139.925C97.564 139.969 96.7361 140.725 96.2828 141.983C95.8103 143.234 95.9492 144.346 95.8804 144.346Z" fill="#755246"/>
<path d="M97.3464 230.9L98.846 237.953L103.785 238.397L105.866 236.058L103.962 227.637L97.3464 230.9Z" fill="#A57E6D"/>
<path d="M67.2791 229.65C67.209 229.88 67.2791 238.674 67.2791 238.674L70.0501 240.318L73.6694 238.148L74.4346 229.649H67.2791V229.65Z" fill="#A57E6D"/>
<path d="M64.9254 153.649C64.9254 153.649 61.3753 160.372 59.8502 165.867C58.3252 171.362 56.8678 174.502 58.4375 179.436C60.0072 184.37 62.104 203.072 63.1356 208.009C63.9844 212.072 65.8672 227.991 67.2127 233.037H74.9216L75.7064 176.52C75.7064 176.52 89.3871 208.255 90.9569 212.068C92.527 215.881 97.1243 232.141 97.1243 232.141L105.086 230.907C105.086 230.907 100.264 202.761 98.8063 196.033C97.3484 189.304 93.1996 171.026 91.5175 165.307C89.8355 159.588 90.0109 155.62 87.6244 152.838L64.9254 153.649Z" fill="#E7DFDD"/>
<path d="M76.7471 154.756C76.7405 154.746 76.7868 154.695 76.9003 154.651C77.0122 154.609 77.1983 154.584 77.4098 154.657C77.6159 154.722 77.861 154.924 77.9131 155.234C77.9688 155.529 77.8594 155.899 77.5491 156.099C77.2323 156.29 76.852 156.226 76.6114 156.046C76.3552 155.863 76.2823 155.555 76.3138 155.341C76.3413 155.119 76.4454 154.962 76.5327 154.881C76.6216 154.798 76.6876 154.778 76.6938 154.789C76.7216 154.812 76.4798 154.969 76.4643 155.352C76.4577 155.535 76.529 155.758 76.7257 155.887C76.9139 156.018 77.2139 156.056 77.436 155.918C77.6569 155.779 77.7545 155.493 77.7192 155.266C77.6897 155.033 77.5208 154.871 77.3536 154.796C77.0032 154.643 76.7553 154.791 76.7471 154.756Z" fill="#455A64"/>
<path d="M78.9774 169.358C78.9786 169.365 78.9147 169.383 78.7905 169.412C78.6663 169.439 78.4815 169.475 78.2413 169.503C77.7622 169.561 77.054 169.599 76.1929 169.469C75.9769 169.433 75.7572 169.402 75.5187 169.33C75.4011 169.291 75.2769 169.233 75.1765 169.131C75.0761 169.028 75.0187 168.89 74.9925 168.757C74.9285 168.227 74.9326 167.705 74.8986 167.13C74.8507 165.99 74.7986 164.741 74.7437 163.431C74.6396 160.805 74.5576 158.428 74.5084 156.706C74.4892 155.871 74.4736 155.183 74.4617 154.668C74.4609 154.448 74.4605 154.265 74.4597 154.113C74.4617 153.986 74.4662 153.919 74.4736 153.919C74.481 153.919 74.4908 153.985 74.5027 154.112C74.5142 154.263 74.5281 154.445 74.5445 154.665C74.5736 155.18 74.6121 155.867 74.6593 156.701C74.7465 158.421 74.8527 160.797 74.9568 163.423C75.0056 164.734 75.0523 165.982 75.0949 167.123C75.122 167.685 75.1162 168.248 75.1658 168.723C75.2003 168.959 75.3564 169.108 75.5716 169.174C75.7818 169.243 76.0097 169.281 76.2171 169.321C77.0585 169.467 77.7565 169.453 78.2335 169.421C78.7114 169.388 78.9741 169.34 78.9774 169.358Z" fill="#455A64"/>
<path d="M89.8384 160.057C89.8453 160.067 89.7388 160.159 89.522 160.292C89.3064 160.425 88.9703 160.584 88.5297 160.705C87.6654 160.953 86.2916 160.967 85.0751 160.22C83.8648 159.463 83.2673 158.225 83.1054 157.341C83.0181 156.892 83.0115 156.521 83.0349 156.268C83.0574 156.015 83.0923 155.879 83.1042 155.881C83.1493 155.882 83.0447 156.445 83.2525 157.308C83.4464 158.156 84.0415 159.322 85.1874 160.039C86.3387 160.747 87.6477 160.762 88.4933 160.559C89.3593 160.361 89.8175 160.018 89.8384 160.057Z" fill="#455A64"/>
<path d="M79.9114 157.06C79.8524 157.063 79.7799 156.294 79.7495 155.344C79.7188 154.394 79.7418 153.622 79.8008 153.621C79.8598 153.619 79.9323 154.387 79.9627 155.337C79.993 156.287 79.97 157.058 79.9114 157.06Z" fill="#455A64"/>
<path d="M81.2443 156.815C81.184 156.809 81.2135 156.051 81.2365 155.118C81.2615 154.185 81.2713 153.426 81.3316 153.423C81.389 153.42 81.475 154.181 81.45 155.124C81.4267 156.066 81.3017 156.822 81.2443 156.815Z" fill="#455A64"/>
<path d="M88.6671 155.922C88.6683 155.929 88.5978 155.949 88.4621 155.979C88.3019 156.012 88.1056 156.052 87.8666 156.101C87.349 156.206 86.5957 156.333 85.6616 156.469C83.794 156.742 81.1931 157.006 78.3106 157.067C75.4273 157.123 72.8178 156.965 70.9403 156.767C70.0014 156.669 69.2436 156.572 68.7222 156.489C68.4816 156.449 68.2837 156.417 68.1222 156.39C67.9853 156.365 67.914 156.349 67.9152 156.342C67.9165 156.334 67.9894 156.337 68.1279 156.348C68.2902 156.363 68.4898 156.383 68.7325 156.406C69.2563 156.465 70.0153 156.538 70.9538 156.617C72.8305 156.775 75.4318 156.909 78.3057 156.853C81.1787 156.793 83.7718 156.553 85.6407 156.319C86.5752 156.203 87.331 156.098 87.8519 156.019C88.0933 155.986 88.2921 155.958 88.4535 155.936C88.5925 155.92 88.6658 155.915 88.6671 155.922Z" fill="#455A64"/>
<path d="M68.5866 157.029C68.6066 157.039 68.4345 157.431 67.9956 157.959C67.5624 158.485 66.8283 159.128 65.8578 159.541C64.8869 159.955 63.9147 160.038 63.2352 159.986C62.5503 159.937 62.1487 159.789 62.1552 159.768C62.1626 159.732 62.5725 159.826 63.2409 159.835C63.9057 159.847 64.8389 159.743 65.7738 159.345C66.7086 158.947 67.4308 158.347 67.8824 157.859C68.3394 157.37 68.5562 157.01 68.5866 157.029Z" fill="#455A64"/>
<path d="M78.6925 166.792C78.6335 166.793 78.5638 164.791 78.5368 162.32C78.5097 159.85 78.5356 157.847 78.5946 157.847C78.6536 157.846 78.7233 159.847 78.7503 162.318C78.7774 164.788 78.7516 166.791 78.6925 166.792Z" fill="#455A64"/>
<path d="M75.7679 176.278C75.7089 176.277 75.6831 175.098 75.7101 173.647C75.7372 172.194 75.8069 171.018 75.8659 171.019C75.9249 171.02 75.9507 172.198 75.9233 173.651C75.8966 175.102 75.8269 176.279 75.7679 176.278Z" fill="#455A64"/>
<path d="M88.4625 171.063C88.4658 171.094 87.9732 171.172 87.1781 171.298C86.383 171.423 85.2854 171.599 84.0788 171.824C82.8718 172.048 81.7841 172.278 80.9971 172.447C80.2102 172.616 79.7221 172.72 79.7143 172.69C79.7069 172.663 80.182 172.507 80.9619 172.3C81.7418 172.093 82.8283 171.839 84.0399 171.614C85.251 171.389 86.3559 171.235 87.158 171.148C87.9605 171.061 88.4592 171.035 88.4625 171.063Z" fill="#455A64"/>
<path d="M89.6425 172.947C89.6417 172.979 89.0679 172.986 88.1416 173C87.2154 173.015 85.9366 173.044 84.5259 173.115C83.1148 173.188 81.8398 173.289 80.9168 173.369C79.9938 173.448 79.4225 173.5 79.4184 173.469C79.4164 173.454 79.5569 173.423 79.8127 173.378C80.0684 173.333 80.4402 173.278 80.9004 173.219C81.8214 173.1 83.0989 172.975 84.5145 172.902C85.9297 172.831 87.2133 172.825 88.1416 172.849C88.6056 172.861 88.981 172.878 89.24 172.897C89.4999 172.915 89.6429 172.933 89.6425 172.947Z" fill="#455A64"/>
<path d="M72.7539 171.72C72.7391 171.749 72.3448 171.568 71.6993 171.301C71.0542 171.035 70.1518 170.694 69.13 170.397C68.1074 170.102 67.1627 169.908 66.4746 169.789C65.7865 169.669 65.3569 169.611 65.3598 169.579C65.3619 169.553 65.7975 169.557 66.4967 169.64C67.1955 169.721 68.1558 169.894 69.1894 170.192C70.2222 170.492 71.1264 170.86 71.7604 171.164C72.3953 171.467 72.7662 171.697 72.7539 171.72Z" fill="#455A64"/>
<path d="M106.849 235.274L106.867 235.825C106.867 235.825 116.321 239.31 116.472 241.08L97.9111 241.519L98.0173 235.337C100.807 236.55 103.699 236.626 106.849 235.274Z" fill="#FF725E"/>
<g opacity="0.6">
<path d="M99.9436 237.268C99.5866 237.374 99.348 237.784 99.4399 238.145C99.5317 238.506 99.9464 238.753 100.305 238.652C100.664 238.552 100.965 238.069 100.833 237.72C100.701 237.372 100.199 237.109 99.8747 237.293" fill="white"/>
</g>
<g opacity="0.6">
<path d="M97.9111 241.52L97.9369 240.033L115.717 240.156C115.717 240.156 116.552 240.496 116.472 241.081L97.9111 241.52Z" fill="white"/>
</g>
<path d="M106.933 235.876C106.933 235.966 106.481 236.018 106.041 236.321C105.595 236.611 105.374 237.009 105.29 236.975C105.206 236.959 105.328 236.414 105.866 236.058C106.401 235.697 106.951 235.792 106.933 235.876Z" fill="#263238"/>
<path d="M108.899 236.635C108.922 236.722 108.533 236.886 108.234 237.276C107.924 237.658 107.856 238.074 107.766 238.073C107.681 238.089 107.606 237.56 107.986 237.081C108.363 236.599 108.895 236.549 108.899 236.635Z" fill="#263238"/>
<path d="M110.06 238.939C109.978 238.96 109.841 238.51 110.063 238.008C110.28 237.505 110.703 237.299 110.743 237.373C110.796 237.447 110.527 237.72 110.352 238.135C110.167 238.545 110.15 238.928 110.06 238.939Z" fill="#263238"/>
<path d="M73.6621 237.965C73.6621 237.965 67.7027 236.951 68.1587 233.122L66.6796 233.718L57.3018 239.125C56.6948 239.475 56.3916 240.227 56.6719 240.869C56.8879 241.364 57.3572 241.677 57.8798 241.69C60.6772 241.761 70.9702 241.972 71.6031 241.237L73.399 239.402C73.7718 239.022 73.8758 238.453 73.6621 237.965Z" fill="#FF725E"/>
<g opacity="0.6">
<path d="M56.7932 241.091L72.238 240.608L71.8397 241.003C71.4471 241.47 71.0895 241.452 70.6101 241.523C69.1894 241.733 65.6896 241.882 57.9081 241.719C57.4551 241.71 57.035 241.474 56.7932 241.091Z" fill="white"/>
</g>
<g opacity="0.6">
<path d="M72.3245 238.332C71.9284 238.258 71.4956 238.534 71.4056 238.927C71.3153 239.319 71.5922 239.762 71.9869 239.843C72.3818 239.924 72.9112 239.608 72.9568 239.208C73.0028 238.808 72.6489 238.306 72.2463 238.322" fill="white"/>
</g>
<path d="M63.0301 239.169C62.9513 239.142 63.2338 238.442 62.9444 237.62C62.6798 236.79 62.0326 236.402 62.0787 236.333C62.0935 236.302 62.2847 236.348 62.5336 236.538C62.7816 236.724 63.066 237.072 63.22 237.528C63.372 237.984 63.3556 238.433 63.2697 238.731C63.1849 239.032 63.0605 239.185 63.0301 239.169Z" fill="#263238"/>
<path d="M61.1076 239.747C61.0227 239.742 61.0293 239.138 60.6864 238.514C60.3575 237.882 59.8513 237.551 59.8948 237.478C59.9157 237.404 60.5639 237.659 60.9427 238.377C61.3296 239.091 61.1812 239.771 61.1076 239.747Z" fill="#263238"/>
<path d="M65.8788 238.816C65.7904 238.817 65.8053 237.886 65.3574 236.869C64.9257 235.844 64.2397 235.216 64.3003 235.152C64.3351 235.088 65.1579 235.656 65.624 236.754C66.1017 237.847 65.9501 238.835 65.8788 238.816Z" fill="#263238"/>
<path d="M68.2963 236.733C68.2151 236.763 67.9172 236.029 67.2721 235.329C66.6363 234.62 65.9334 234.254 65.972 234.176C65.992 234.105 66.8022 234.373 67.4872 235.133C68.1784 235.888 68.3693 236.719 68.2963 236.733Z" fill="#263238"/>
<path d="M66.9092 234.926C66.8997 234.912 67.0296 234.787 67.3125 234.628C67.5934 234.472 68.0354 234.282 68.6191 234.217C68.9028 234.196 69.2477 234.14 69.6 234.347C69.7765 234.448 69.9027 234.694 69.8467 234.922C69.7936 235.147 69.6422 235.31 69.4715 235.432C68.7702 235.895 67.6925 235.758 67.0593 235.047C66.438 234.322 66.3999 233.307 66.7865 232.588C66.8949 232.414 67.053 232.237 67.2955 232.196C67.5387 232.151 67.7647 232.323 67.8449 232.498C68.0183 232.855 67.9712 233.188 67.9627 233.473C67.9175 234.057 67.7588 234.507 67.6237 234.799C67.4876 235.093 67.3754 235.234 67.3609 235.225C67.3061 235.206 67.7087 234.582 67.7575 233.462C67.7574 233.188 67.772 232.863 67.6339 232.614C67.567 232.493 67.4548 232.426 67.3354 232.448C67.2189 232.466 67.0974 232.583 67.0159 232.725C66.7053 233.322 66.742 234.25 67.277 234.854C67.8042 235.46 68.7524 235.578 69.32 235.211C69.4554 235.12 69.5661 234.992 69.5969 234.866C69.6271 234.741 69.575 234.619 69.4655 234.547C69.2346 234.393 68.9074 234.407 68.6367 234.421C67.5203 234.509 66.9315 234.982 66.9092 234.926Z" fill="#263238"/>
<path d="M83.6705 118.936C82.9 118.319 81.9967 117.89 81.1926 117.318C80.3885 116.745 79.6516 115.229 79.4672 114.259L73.1604 114.825C72.4944 117.318 72.219 119.916 72.3473 122.493C72.4018 123.591 72.5633 124.764 73.2994 125.58C74.1072 126.475 75.3949 126.716 76.5859 126.906C78.5102 127.213 80.4348 127.521 82.359 127.828C83.0398 127.937 83.7701 128.039 84.3915 127.74C84.9972 127.448 85.3763 126.828 85.6202 126.201C86.5948 123.701 85.7657 120.613 83.6705 118.936Z" fill="#263238"/>
<path d="M60.2961 124.595C59.9592 122.721 60.3187 120.816 60.4924 118.944C60.7457 116.213 60.5974 113.393 60.4765 110.601C60.3555 107.808 60.2637 104.978 60.6256 102.289C60.9879 99.5994 61.8572 97.0268 63.3192 95.58C64.7815 94.1332 66.8918 94.0496 68.3472 95.8267L67.7918 102.942C68.6378 113.052 68.7423 123.233 68.1033 133.22C66.1815 133.597 64.2155 133.616 62.2593 133.276C61.8581 133.206 61.39 133.052 61.1937 132.485C60.9547 131.796 61.2826 131.046 61.4093 130.325C61.5757 129.378 61.3777 128.329 61.1023 127.397C60.8277 126.465 60.4724 125.574 60.2961 124.595Z" fill="#263238"/>
<path d="M65.6664 96.4276C66.2303 95.8628 66.9353 95.4403 67.6988 95.2087C68.0103 95.1144 68.3476 95.0517 68.6583 95.1493C68.9689 95.2468 69.2349 95.5481 69.1939 95.871L67.298 98.549C66.925 98.8977 66.3189 98.8416 65.8615 98.6145C65.5074 98.4391 65.1799 98.1477 65.0971 97.7612C64.9926 97.2682 65.3102 96.7846 65.6664 96.4276Z" fill="#455A64"/>
<path d="M79.8295 104.179C79.4967 100.298 76.1905 97.185 72.2281 97.2895C68.0242 97.4006 64.8008 100.893 65.0451 104.968L66.4459 121.36C66.473 121.677 66.6078 121.975 66.8234 122.209C67.9808 123.464 69.869 124.303 71.4432 124.293C72.9686 124.282 74.4285 123.673 75.5962 122.781C75.9917 122.478 76.1888 121.982 76.1261 121.489L75.6126 117.281C75.6126 117.281 76.4835 117.159 76.6962 117.073C77.6245 116.698 79.8746 115.991 79.9672 112.28C79.9979 111.043 80.1213 107.58 79.8295 104.179Z" fill="#A57E6D"/>
<path d="M75.2606 110.271C75.2548 110.235 75.652 110.136 76.2979 110.005C76.4618 109.976 76.6159 109.932 76.6348 109.819C76.6643 109.698 76.5811 109.528 76.4856 109.345C76.2983 108.964 76.1024 108.564 75.8966 108.145C75.0753 106.434 74.4667 105.023 74.5372 104.991C74.6077 104.959 75.3302 106.32 76.1516 108.03C76.3499 108.453 76.5397 108.855 76.7204 109.24C76.7979 109.42 76.9225 109.621 76.8577 109.871C76.8229 109.996 76.7085 110.093 76.6049 110.129C76.5012 110.169 76.4085 110.178 76.327 110.189C75.6733 110.273 75.2663 110.307 75.2606 110.271Z" fill="#263238"/>
<path d="M78.6032 106.496C78.6397 106.807 78.4012 107.094 78.0709 107.137C77.7409 107.179 77.4438 106.961 77.4073 106.65C77.3708 106.339 77.6094 106.052 77.9389 106.009C78.2692 105.967 78.5668 106.184 78.6032 106.496Z" fill="#263238"/>
<path d="M78.875 105.319C78.8172 105.424 78.2942 105.088 77.6516 105.186C77.0077 105.273 76.6056 105.742 76.5191 105.657C76.4773 105.62 76.5237 105.439 76.6974 105.228C76.8683 105.018 77.1827 104.792 77.5839 104.735C77.9848 104.677 78.3528 104.805 78.5778 104.958C78.8077 105.111 78.9041 105.271 78.875 105.319Z" fill="#263238"/>
<path d="M72.5334 107.065C72.5699 107.376 72.3314 107.663 72.001 107.705C71.6711 107.748 71.374 107.53 71.3375 107.218C71.301 106.907 71.5395 106.62 71.8695 106.578C72.1994 106.536 72.4969 106.753 72.5334 107.065Z" fill="#263238"/>
<path d="M72.619 105.948C72.5407 106.045 72.0338 105.64 71.3321 105.651C70.6304 105.65 70.1272 106.061 70.0481 105.966C70.0095 105.924 70.0862 105.75 70.3058 105.565C70.5214 105.38 70.8928 105.198 71.3301 105.194C71.7674 105.192 72.1407 105.368 72.3575 105.55C72.5789 105.733 72.6576 105.905 72.619 105.948Z" fill="#263238"/>
<path d="M75.6126 117.281C75.6126 117.281 73.0691 117.693 69.7915 116.082C69.7915 116.082 71.092 119.238 75.7552 118.452L75.6126 117.281Z" fill="#755246"/>
<path d="M75.1105 111.825C74.8531 111.54 74.4314 111.405 74.0297 111.478C73.751 111.529 73.4776 111.683 73.3252 111.921C73.1723 112.159 73.1625 112.481 73.335 112.683C73.5293 112.912 73.899 112.94 74.2014 112.831C74.5039 112.721 74.7535 112.501 74.99 112.283C75.0556 112.222 75.122 112.159 75.1597 112.081C75.1974 112.002 75.1986 111.902 75.1396 111.844" fill="#755246"/>
<path d="M72.9637 103.548C72.917 103.727 72.2629 103.705 71.5128 103.866C70.7595 104.011 70.1689 104.286 70.053 104.141C70.0009 104.071 70.0915 103.899 70.3222 103.708C70.5509 103.518 70.9268 103.323 71.3776 103.231C71.8284 103.14 72.2526 103.172 72.5395 103.256C72.8297 103.34 72.983 103.463 72.9637 103.548Z" fill="#263238"/>
<path d="M78.7118 103.921C78.5831 104.072 78.0442 103.946 77.4044 103.968C76.7642 103.972 76.2289 104.12 76.0962 103.974C76.038 103.902 76.1158 103.754 76.3453 103.606C76.5716 103.459 76.9556 103.329 77.3958 103.32C77.8355 103.311 78.2229 103.425 78.4528 103.563C78.6864 103.702 78.7684 103.848 78.7118 103.921Z" fill="#263238"/>
<path d="M72.6805 96.3932C72.2616 95.8714 71.5989 95.7014 70.8862 95.6973C67.9771 95.6813 65.0491 97.8588 63.804 100.488C62.5589 103.117 62.995 106.705 64.5462 109.166L65.6409 109.197C67.8455 108.74 70.6829 101.999 73.3018 98.1215C73.6272 97.6399 73.0444 96.8465 72.6805 96.3932Z" fill="#263238"/>
<path d="M78.4024 97.4653C77.0142 96.2845 74.8387 94.9144 72.5042 96.2165C72.2411 96.962 73.1055 97.753 73.7944 98.1887C74.8031 98.8264 75.6625 99.2313 76.331 99.6957C77.6827 100.635 79.4245 102.26 79.8389 104.283C79.8647 104.41 79.8938 108.4 80.0196 108.362C80.1823 108.312 80.5155 103.437 80.55 102.3C80.6233 99.8765 79.7905 98.6461 78.4024 97.4653Z" fill="#263238"/>
<path d="M66.1594 107.796C66.0881 107.77 63.3069 107.113 63.543 109.903C63.779 112.693 66.5316 111.881 66.5295 111.8C66.5279 111.72 66.1594 107.796 66.1594 107.796Z" fill="#A57E6D"/>
<path d="M65.588 110.815C65.5749 110.808 65.5421 110.853 65.4634 110.898C65.3864 110.942 65.2507 110.978 65.1007 110.936C64.7966 110.853 64.5089 110.406 64.4528 109.904C64.4241 109.651 64.4569 109.405 64.5298 109.197C64.5978 108.985 64.7175 108.832 64.8638 108.793C65.0085 108.746 65.1212 108.826 65.1618 108.902C65.2056 108.977 65.1929 109.034 65.2081 109.037C65.2163 109.044 65.2643 108.985 65.2315 108.872C65.2155 108.818 65.177 108.755 65.1069 108.707C65.0352 108.658 64.9343 108.639 64.8319 108.658C64.6179 108.691 64.4409 108.906 64.3605 109.134C64.2683 109.364 64.2257 109.641 64.2577 109.926C64.3232 110.486 64.6556 110.988 65.0688 111.071C65.2696 111.105 65.4282 111.032 65.5073 110.959C65.5884 110.883 65.5983 110.819 65.588 110.815Z" fill="#755246"/>
<path d="M79.0438 97.9489C79.0487 97.9698 78.7483 98.0641 78.2487 98.158C77.7495 98.2522 77.0495 98.3362 76.2724 98.3416C75.4953 98.3453 74.7941 98.2698 74.2941 98.1813C73.7932 98.0932 73.492 98.0026 73.4965 97.9817C73.5018 97.9559 73.8113 98.0038 74.3113 98.06C74.8113 98.1166 75.5048 98.1719 76.2716 98.1682C77.0384 98.1629 77.7306 98.0998 78.2303 98.037C78.7294 97.9747 79.0381 97.9235 79.0438 97.9489Z" fill="#455A64"/>
<path d="M80.2311 99.8211C80.2381 99.84 80.0217 99.9466 79.645 100.041C79.2696 100.135 78.7298 100.202 78.1372 100.15C77.5445 100.097 77.0249 99.9355 76.6724 99.7756C76.3183 99.6162 76.1244 99.4732 76.1347 99.4556C76.1572 99.4039 76.997 99.8822 78.1528 99.9773C79.3069 100.088 80.2184 99.7662 80.2311 99.8211Z" fill="#455A64"/>
<path d="M63.5716 101.479C63.572 101.444 64.1823 101.475 65.1479 101.325C65.6323 101.262 66.1967 101.117 66.816 100.938C67.4299 100.74 68.0922 100.484 68.764 100.161C69.4332 99.8334 70.0435 99.4686 70.5833 99.1145C71.1144 98.7481 71.5837 98.4018 71.9509 98.0792C72.696 97.4456 73.0985 96.9882 73.1227 97.0104C73.1317 97.0182 73.0366 97.137 72.8559 97.3452C72.7678 97.4514 72.6526 97.5747 72.5128 97.7116C72.3751 97.851 72.219 98.0104 72.0321 98.1715C71.6714 98.5088 71.2054 98.8686 70.6734 99.2465C70.1329 99.6121 69.5177 99.985 68.8402 100.317C68.1607 100.644 67.4873 100.899 66.8631 101.091C66.2331 101.263 65.6585 101.398 65.1659 101.447C64.9216 101.484 64.6983 101.495 64.5024 101.504C64.3069 101.518 64.138 101.521 63.9999 101.512C63.7224 101.502 63.5712 101.492 63.5716 101.479Z" fill="#455A64"/>
<path d="M73.0604 98.0063C73.071 98.0112 73.0096 98.1584 72.8878 98.4203C72.8284 98.5518 72.7526 98.7117 72.6497 98.8895C72.5477 99.0674 72.4432 99.2777 72.2977 99.4916C72.0251 99.9314 71.6628 100.432 71.2148 100.95C70.7607 101.462 70.2218 101.992 69.5988 102.48C68.9713 102.963 68.325 103.356 67.7147 103.667C67.0996 103.969 66.5229 104.193 66.0266 104.339C65.7819 104.424 65.5512 104.468 65.3524 104.519C65.1536 104.571 64.9794 104.6 64.8364 104.622C64.5511 104.667 64.3929 104.686 64.3913 104.675C64.3847 104.64 65.0171 104.545 65.9893 104.222C66.4754 104.063 67.0401 103.83 67.6426 103.525C68.2402 103.21 68.8742 102.819 69.4927 102.343C70.1066 101.862 70.6406 101.343 71.0956 100.844C71.5444 100.338 71.9124 99.8515 72.1956 99.4244C72.762 98.5715 73.0292 97.9907 73.0604 98.0063Z" fill="#455A64"/>
<path d="M70.8866 95.6973C70.8833 95.6792 71.0972 95.6218 71.4481 95.6645C71.7952 95.7091 72.2714 95.8809 72.6797 96.2387C72.7801 96.3292 72.8735 96.4235 72.9518 96.5276C73.0334 96.6325 73.0858 96.7538 73.1317 96.8502C73.2293 97.0534 73.3145 97.2444 73.3625 97.4137C73.4629 97.7559 73.4108 97.9805 73.392 97.9764C73.3633 97.9764 73.369 97.7625 73.2461 97.453C73.1862 97.2981 73.0944 97.1215 72.9887 96.9215C72.9338 96.8165 72.8891 96.719 72.817 96.6305C72.7456 96.5391 72.6583 96.4526 72.5653 96.3686C72.1846 96.0358 71.7493 95.8575 71.4263 95.785C71.1009 95.7149 70.8882 95.7264 70.8866 95.6973Z" fill="#455A64"/>
<path d="M63.9114 108.109C63.9155 108.108 63.9015 108.059 63.8712 107.967C63.8425 107.875 63.79 107.742 63.7368 107.567C63.622 107.219 63.4728 106.71 63.345 106.069C63.2175 105.429 63.1204 104.653 63.1367 103.791C63.1486 102.93 63.2843 101.981 63.6032 101.04C63.7659 100.572 63.9757 100.134 64.2171 99.7334C64.4593 99.333 64.7409 98.9777 65.0253 98.6551C65.6036 98.0157 66.2176 97.5305 66.7594 97.1669C67.3016 96.8026 67.7668 96.5473 68.0926 96.3805C68.2537 96.2932 68.3836 96.235 68.4689 96.1895C68.5549 96.1452 68.5992 96.1198 68.5972 96.1161C68.5955 96.112 68.5476 96.1292 68.4582 96.1661C68.3693 96.2042 68.2361 96.2554 68.0705 96.3358C67.7369 96.4895 67.2623 96.7337 66.709 97.0911C66.1561 97.4477 65.529 97.9309 64.9372 98.5752C64.6462 98.9006 64.3581 99.26 64.1093 99.667C63.8618 100.074 63.647 100.521 63.481 100.999C63.1568 101.955 63.0232 102.918 63.0179 103.789C63.0081 104.663 63.1159 105.445 63.2556 106.088C63.3958 106.731 63.5593 107.239 63.6892 107.583C63.7503 107.757 63.8101 107.887 63.8466 107.976C63.8851 108.065 63.9073 108.111 63.9114 108.109Z" fill="#455A64"/>
<path d="M75.4761 112.566C75.4859 112.479 74.8421 112.39 74.108 112.06C73.3703 111.738 72.8519 111.253 72.8141 111.319C72.774 111.374 73.2592 111.99 74.0314 112.328C74.7986 112.672 75.4728 112.634 75.4761 112.566Z" fill="#263238"/>
<path d="M79.8742 119.927L75.8667 119.452L66.3873 120.676L61.547 123.373L69.9575 126.921L76.0749 125.666L79.8742 119.927Z" fill="#A57E6D"/>
<path d="M64.0163 121.77L57.3063 124.517L58.8116 137.405C58.8116 137.405 61.3093 136.513 62.6474 143.025C63.9856 149.537 64.0085 153.708 64.0085 153.708L88.4285 152.838C88.4285 152.838 87.5362 137.227 87.0903 133.748L85.4505 120.457L79.1483 119.404C79.1483 119.404 73.0797 129.656 64.0163 121.77Z" fill="#4717F6"/>
<path d="M85.4506 120.457C85.4506 120.457 88.4285 120.241 90.7737 124.356C92.5594 127.49 93.1901 128.697 93.1901 128.697L86.2702 132.741L83.505 125.184L85.4506 120.457Z" fill="#4717F6"/>
<path d="M57.3841 124.471C57.3841 124.471 54.7099 125.991 53.3041 127.951C51.8885 129.925 50.1798 133.517 50.1798 133.517L58.3604 138.077L59.5776 135.736L57.3841 124.471Z" fill="#4717F6"/>
<path d="M59.6777 135.505C59.64 135.491 59.8523 134.943 60.0437 134.021C60.1429 133.561 60.2179 133.006 60.2605 132.387C60.2925 131.767 60.2855 131.084 60.2084 130.372C60.124 129.66 59.9777 128.992 59.8076 128.395C59.6273 127.801 59.4297 127.277 59.2301 126.851C58.8371 125.996 58.5076 125.509 58.5412 125.487C58.5535 125.479 58.6432 125.595 58.7957 125.813C58.9519 126.029 59.1498 126.361 59.3662 126.786C59.5859 127.21 59.8019 127.737 59.9957 128.338C60.1793 128.943 60.3343 129.622 60.4203 130.347C60.4986 131.073 60.4998 131.77 60.4564 132.4C60.4023 133.029 60.3097 133.592 60.1904 134.054C60.0744 134.516 59.9564 134.884 59.8523 135.13C59.7527 135.377 59.6916 135.51 59.6777 135.505Z" fill="#263238"/>
<path d="M85.9206 126.684C85.8546 126.697 85.6386 125.406 84.9861 123.95C84.3451 122.487 83.534 121.46 83.5881 121.42C83.6086 121.404 83.8381 121.639 84.1517 122.067C84.4652 122.494 84.8521 123.122 85.1816 123.863C85.5095 124.605 85.7144 125.313 85.8202 125.833C85.9267 126.352 85.9468 126.68 85.9206 126.684Z" fill="#263238"/>
<path d="M81.0709 119.425C81.0778 119.427 81.0545 119.498 81.0032 119.632C80.9475 119.762 80.884 119.965 80.7598 120.206C80.5344 120.698 80.1426 121.386 79.5405 122.15C78.9405 122.914 78.1028 123.735 77.0281 124.447C75.9576 125.161 74.6371 125.745 73.1731 126.028C71.705 126.293 70.2628 126.226 69.0062 125.948C67.7463 125.671 66.6684 125.21 65.8331 124.714C64.9954 124.219 64.3819 123.72 63.9933 123.342C63.7905 123.162 63.6581 122.996 63.5589 122.894C63.4634 122.789 63.4159 122.731 63.4212 122.726C63.4355 122.712 63.6454 122.925 64.0491 123.28C64.4511 123.637 65.0725 124.112 65.9077 124.582C66.7414 125.055 67.8078 125.494 69.0472 125.755C70.2837 126.019 71.6972 126.078 73.1338 125.818C74.5662 125.541 75.8625 124.975 76.9203 124.282C77.9814 123.591 78.8171 122.796 79.4233 122.054C80.0319 121.313 80.4393 120.645 80.6856 120.168C80.934 119.692 81.0524 119.417 81.0709 119.425Z" fill="#263238"/>
<path d="M69.6021 134.401C68.2615 130.031 67.2681 125.507 66.8783 120.953C66.6029 117.735 65.7619 115.142 65.643 111.971L63.8167 115.212C62.8499 119.289 62.1728 123.435 61.7925 127.608C61.6736 128.915 61.6294 130.373 62.479 131.372C63.1618 132.175 64.3434 132.566 64.7196 133.55C65.127 134.615 64.5327 136.191 65.5426 136.721C66.0418 136.983 66.6853 136.754 67.0685 136.34C67.4517 135.927 67.6353 135.372 67.8082 134.835C67.9009 135.664 68.862 136.525 69.4845 135.971C69.9005 135.601 69.7657 134.933 69.6021 134.401Z" fill="#263238"/>
<path d="M22.5285 175.435C24.2439 178.934 28.5929 180.203 31.9213 178.178L119.918 124.632L130.438 106.998L110.63 111.376L24.8739 166.958C22.0588 168.783 21.0518 172.423 22.5285 175.435Z" fill="#A239CA"/>
<path d="M24.8739 166.958C22.0588 168.783 21.0518 172.423 22.5289 175.435C24.2443 178.933 28.5933 180.203 31.9217 178.178L24.8739 166.958Z" fill="#263238"/>
<g opacity="0.4">
<path d="M110.63 111.376L24.8738 166.958L26.0773 168.875L112.227 113.934L110.63 111.376Z" fill="black"/>
</g>
<g opacity="0.4">
<path d="M118.174 122.049L30.765 176.337L31.9213 178.178L119.918 124.632L118.174 122.049Z" fill="black"/>
</g>
<g opacity="0.4">
<path d="M114.192 116.511L27.7729 171.574L29.3771 174.128L115.898 119.148L114.192 116.511Z" fill="black"/>
</g>
<g opacity="0.4">
<path d="M119.918 124.632L110.63 111.376L122.756 108.696L126.826 113.053L119.918 124.632Z" fill="#E296FF"/>
</g>
<path d="M104.381 134.243L105.897 132.41C105.897 132.41 105.445 128.492 106.053 127.49L106.365 126.887C106.365 126.887 105.89 124.999 106.889 124.489C107.132 123.748 107.486 123.429 108.023 123.797C108.023 123.797 107.641 122.379 108.97 122.098C110.3 121.818 111.085 127.88 111.085 127.88C111.085 127.88 111.936 130.567 110.402 130.669C110.402 130.669 109.603 131.684 108.65 131.843C108.65 131.843 108.47 133.492 107.122 133.485L104.381 134.243Z" fill="#A57E6D"/>
<path d="M108.402 131.148C108.41 131.14 108.486 131.192 108.568 131.333C108.651 131.471 108.722 131.71 108.69 132.002C108.663 132.291 108.518 132.636 108.244 132.908C107.975 133.186 107.606 133.397 107.212 133.565C106.424 133.903 105.659 134.067 105.105 134.129C104.549 134.192 104.202 134.167 104.202 134.141C104.192 134.073 105.586 134.035 107.129 133.368C107.51 133.206 107.856 133.013 108.105 132.769C108.36 132.529 108.496 132.24 108.541 131.981C108.635 131.447 108.366 131.162 108.402 131.148Z" fill="#755246"/>
<path d="M109.451 128.906C109.386 128.911 109.302 127.688 108.911 126.239C108.529 124.787 107.992 123.685 108.052 123.656C108.076 123.644 108.242 123.904 108.455 124.355C108.668 124.804 108.921 125.448 109.117 126.184C109.313 126.92 109.414 127.604 109.453 128.1C109.492 128.596 109.479 128.905 109.451 128.906Z" fill="#755246"/>
<path d="M108.339 129.652C108.276 129.661 108.081 128.474 107.679 127.052C107.282 125.628 106.831 124.514 106.889 124.489C106.938 124.465 107.483 125.553 107.885 126.995C108.291 128.434 108.393 129.647 108.339 129.652Z" fill="#755246"/>
<path d="M110.478 129.464C110.525 129.43 110.751 129.793 110.651 130.277C110.556 130.762 110.207 131.009 110.177 130.96C110.134 130.916 110.364 130.645 110.442 130.235C110.529 129.827 110.422 129.488 110.478 129.464Z" fill="#755246"/>
<path d="M106.747 129.984C106.687 129.985 106.632 129.316 106.526 128.499C106.422 127.682 106.306 127.021 106.366 127.006C106.421 126.992 106.632 127.64 106.738 128.472C106.845 129.303 106.804 129.984 106.747 129.984Z" fill="#755246"/>
<path d="M50.5643 133.518C50.5643 133.518 45.1449 144.949 44.3248 146.652C43.5047 148.355 42.18 151.509 44.3248 153.276C46.4695 155.042 61.4027 155.155 61.4027 155.155L62.145 149.132L52.3217 146.753L58.0998 138.078L50.5643 133.518Z" fill="#A57E6D"/>
<path d="M63.4409 149.219C63.4409 149.219 63.7933 148.329 64.7335 147.512C65.6737 146.696 67.7365 146.063 68.0041 145.281C68.2717 144.499 69.0537 145.106 68.8705 146.081C68.7541 146.702 67.4762 148.327 67.4762 148.327C67.4762 148.327 68.9763 148.704 69.9747 148.128C70.973 147.553 74.4699 146.519 74.8437 147.007C75.2666 147.56 74.351 147.745 73.958 147.968C73.6588 148.137 71.3353 149.29 71.3353 149.29C71.3353 149.29 75.9605 149.132 76.5425 149.352C77.1757 149.591 76.5273 150.151 76.2359 150.162C76.0523 150.17 75.2601 150.878 74.6986 151.4C74.3174 151.755 73.8182 151.955 73.2973 151.962L72.2223 151.978L75.4871 152.321C75.4871 152.321 76.0515 152.837 75.2662 153.106C74.9158 153.226 65.0184 154.651 64.2511 154.696C62.924 154.774 60.8228 155.099 60.8228 155.099L61.3568 148.939L63.4409 149.219Z" fill="#A57E6D"/>
<path d="M76.3191 150.22C76.3388 150.272 75.3769 150.666 74.1203 150.887C72.8641 151.114 71.8251 151.077 71.8264 151.022C71.8247 150.959 72.8461 150.9 74.083 150.677C75.3199 150.459 76.299 150.161 76.3191 150.22Z" fill="#755246"/>
<path d="M86.8395 108.198L89.4166 103.656C88.2764 101.805 87.6178 99.6264 87.6178 97.2936C87.6178 90.5844 93.0569 85.1453 99.7661 85.1453C106.475 85.1453 111.914 90.5844 111.914 97.2936C111.914 104.003 106.475 109.442 99.7661 109.442C96.9644 109.442 94.3864 108.491 92.3314 106.898L92.3355 106.903L86.8395 108.198Z" fill="white"/>
<path d="M86.8395 108.198C87.1788 108.121 88.8731 107.737 92.3466 106.951L92.4208 106.934L92.3745 106.873L92.3704 106.868L92.3015 106.936C93.6753 108.014 95.6541 109.064 98.1377 109.402C98.7554 109.481 99.4009 109.532 100.064 109.5C100.396 109.482 100.733 109.473 101.074 109.445C101.412 109.394 101.755 109.343 102.102 109.29C103.481 109.019 104.89 108.496 106.204 107.681C107.518 106.869 108.735 105.766 109.711 104.41C110.684 103.056 111.423 101.451 111.769 99.7068C112.112 97.9645 112.083 96.0977 111.626 94.2906C111.165 92.4898 110.304 90.7303 109.016 89.2831C107.713 87.8044 106.101 86.6211 104.325 85.9338C102.556 85.2318 100.67 84.965 98.8669 85.0957C97.0635 85.226 95.3381 85.7437 93.8581 86.5773C92.3737 87.4044 91.122 88.5081 90.156 89.7409C89.1871 90.9741 88.5051 92.3344 88.0825 93.689C87.6633 95.0497 87.5502 96.3989 87.5559 97.6477C87.6284 100.163 88.4723 102.228 89.3764 103.681L89.3756 103.633C87.7715 106.52 87.001 107.907 86.8395 108.198C87.0059 107.91 87.8014 106.537 89.4576 103.679L89.4715 103.655L89.4568 103.631C88.5723 102.181 87.751 100.131 87.692 97.6432C87.6932 96.4079 87.81 95.0755 88.2293 93.7336C88.6514 92.398 89.3293 91.0586 90.2879 89.8446C91.2441 88.6315 92.4806 87.5466 93.945 86.7347C95.4049 85.9162 97.1045 85.41 98.88 85.2842C100.655 85.1576 102.512 85.4223 104.251 86.1142C105.999 86.7912 107.584 87.9568 108.867 89.4114C110.135 90.8356 110.982 92.5664 111.436 94.3378C111.888 96.1153 111.918 97.9539 111.583 99.6691C111.245 101.387 110.52 102.968 109.563 104.304C108.605 105.641 107.408 106.732 106.115 107.537C104.82 108.344 103.432 108.864 102.072 109.137C101.729 109.191 101.391 109.243 101.058 109.294C100.721 109.324 100.388 109.332 100.061 109.353C99.4054 109.387 98.7673 109.339 98.1562 109.264C95.6992 108.942 93.7339 107.916 92.3618 106.859L92.0597 106.626L92.2925 106.927L92.2966 106.932L92.3245 106.855C88.8649 107.702 87.1772 108.115 86.8395 108.198Z" fill="#263238"/>
<path d="M93.6798 98.0108L95.3803 96.3104L98.6595 99.2252L105.097 93.0312L106.676 94.7312L98.4168 102.504L93.6798 98.0108Z" fill="#A239CA"/>
</svg>
