<svg width="20" height="16" viewBox="0 0 20 16" fill="none" xmlns="http://www.w3.org/2000/svg">
<path d="M7.76069 10.3668C7.18569 9.79279 6.83569 9.01279 6.83569 8.13779C6.83569 6.38479 8.24769 4.97179 9.99969 4.97179C10.8667 4.97179 11.6647 5.32279 12.2297 5.89679" stroke="#667085" stroke-linecap="round" stroke-linejoin="round"/>
<path d="M13.1049 8.6989C12.8729 9.9889 11.8569 11.0069 10.5679 11.2409" stroke="#667085" stroke-linecap="round" stroke-linejoin="round"/>
<path d="M4.65463 13.4723C3.06763 12.2263 1.72363 10.4063 0.749634 8.1373C1.73363 5.8583 3.08663 4.0283 4.68363 2.7723C6.27063 1.5163 8.10163 0.834297 9.99963 0.834297C11.9086 0.834297 13.7386 1.5263 15.3356 2.7913" stroke="#667085" stroke-linecap="round" stroke-linejoin="round"/>
<path d="M17.4477 4.9908C18.1357 5.9048 18.7407 6.9598 19.2497 8.1368C17.2827 12.6938 13.8067 15.4388 9.99965 15.4388C9.13665 15.4388 8.28565 15.2988 7.46765 15.0258" stroke="#667085" stroke-linecap="round" stroke-linejoin="round"/>
</svg>
